font.ufo
<glyph name="exclam" format="1">
  <advance width="371"/>
  <unicode hex="0021"/>
  <outline>
    <contour>
      <point x="214" y="810" type="curve" smooth="yes"/>
      <point x="205" y="810"/>
      <point x="198" y="802"/>
      <point x="198" y="784" type="curve" smooth="yes"/>
      <point x="198" y="508"/>
      <point x="139" y="309"/>
      <point x="142" y="286" type="curve" smooth="yes"/>
      <point x="142" y="262"/>
      <point x="165" y="235"/>
      <point x="186" y="235" type="curve" smooth="yes"/>
      <point x="224" y="235"/>
      <point x="299" y="649"/>
      <point x="299" y="748" type="curve" smooth="yes"/>
      <point x="299" y="767"/>
      <point x="239" y="810"/>
    </contour>
    <contour>
      <point x="119" y="143" type="curve" smooth="yes"/>
      <point x="96" y="143"/>
      <point x="68" y="107"/>
      <point x="68" y="83" type="curve" smooth="yes"/>
      <point x="68" y="52"/>
      <point x="122" y="-3"/>
      <point x="155" y="-3" type="curve" smooth="yes"/>
      <point x="168" y="-3"/>
      <point x="184" y="13"/>
      <point x="184" y="22" type="curve" smooth="yes"/>
      <point x="184" y="51"/>
      <point x="144" y="143"/>
    </contour>
  </outline>
</glyph>
<glyph name="quotedbl" format="1">
  <advance width="331"/>
  <unicode hex="0022"/>
  <outline>
    <contour>
      <point x="91" y="846" type="curve" smooth="yes"/>
      <point x="83" y="846"/>
      <point x="78" y="840"/>
      <point x="78" y="827" type="curve" smooth="yes"/>
      <point x="78" y="717"/>
      <point x="60" y="616"/>
      <point x="60" y="591" type="curve" smooth="yes"/>
      <point x="60" y="573"/>
      <point x="80" y="553"/>
      <point x="94" y="553" type="curve" smooth="yes"/>
      <point x="123" y="553"/>
      <point x="144" y="757"/>
      <point x="144" y="803" type="curve" smooth="yes"/>
      <point x="144" y="816"/>
      <point x="106" y="846"/>
    </contour>
    <contour>
      <point x="261" y="846" type="curve" smooth="yes"/>
      <point x="253" y="846"/>
      <point x="247" y="840"/>
      <point x="247" y="827" type="curve" smooth="yes"/>
      <point x="247" y="717"/>
      <point x="229" y="616"/>
      <point x="229" y="591" type="curve" smooth="yes"/>
      <point x="229" y="573"/>
      <point x="250" y="553"/>
      <point x="263" y="553" type="curve" smooth="yes"/>
      <point x="293" y="553"/>
      <point x="313" y="757"/>
      <point x="313" y="803" type="curve" smooth="yes"/>
      <point x="313" y="816"/>
      <point x="276" y="846"/>
    </contour>
  </outline>
</glyph>
<glyph name="numbersign" format="1">
  <advance width="656"/>
  <unicode hex="0023"/>
  <outline>
    <contour>
      <point x="260" y="696" type="curve" smooth="yes"/>
      <point x="260" y="541"/>
      <point x="122" y="87"/>
      <point x="129" y="57" type="curve" smooth="yes"/>
      <point x="129" y="20"/>
      <point x="150" y="-8"/>
      <point x="166" y="-8" type="curve" smooth="yes"/>
      <point x="186" y="-8"/>
      <point x="202" y="51"/>
      <point x="226" y="137" type="curve" smooth="yes"/>
      <point x="288" y="359"/>
      <point x="347" y="580"/>
      <point x="347" y="653" type="curve" smooth="yes"/>
      <point x="347" y="693"/>
      <point x="296" y="728"/>
      <point x="279" y="728" type="curve" smooth="yes"/>
      <point x="262" y="728"/>
      <point x="260" y="719"/>
    </contour>
    <contour>
      <point x="482" y="696" type="curve" smooth="yes"/>
      <point x="482" y="543"/>
      <point x="344" y="83"/>
      <point x="351" y="47" type="curve" smooth="yes"/>
      <point x="351" y="21"/>
      <point x="365" y="-8"/>
      <point x="383" y="-8" type="curve" smooth="yes"/>
      <point x="403" y="-8"/>
      <point x="423" y="38"/>
      <point x="447" y="129" type="curve" smooth="yes"/>
      <point x="507" y="352"/>
      <point x="569" y="580"/>
      <point x="569" y="653" type="curve" smooth="yes"/>
      <point x="569" y="693"/>
      <point x="519" y="728"/>
      <point x="501" y="728" type="curve" smooth="yes"/>
      <point x="485" y="728"/>
      <point x="482" y="719"/>
    </contour>
    <contour>
      <point x="664" y="541" type="curve" smooth="yes"/>
      <point x="664" y="557"/>
      <point x="655" y="570"/>
      <point x="601" y="570" type="curve" smooth="yes"/>
      <point x="507" y="570"/>
      <point x="109" y="550"/>
      <point x="109" y="496" type="curve" smooth="yes"/>
      <point x="109" y="477"/>
      <point x="126" y="447"/>
      <point x="143" y="447" type="curve" smooth="yes"/>
      <point x="162" y="447"/>
      <point x="236" y="461"/>
      <point x="337" y="474" type="curve" smooth="yes"/>
      <point x="558" y="502"/>
      <point x="664" y="509"/>
    </contour>
    <contour>
      <point x="609" y="235" type="curve" smooth="yes"/>
      <point x="609" y="251"/>
      <point x="601" y="263"/>
      <point x="545" y="263" type="curve" smooth="yes"/>
      <point x="453" y="263"/>
      <point x="54" y="243"/>
      <point x="54" y="189" type="curve" smooth="yes"/>
      <point x="54" y="170"/>
      <point x="73" y="140"/>
      <point x="88" y="140" type="curve" smooth="yes"/>
      <point x="110" y="140"/>
      <point x="181" y="154"/>
      <point x="283" y="167" type="curve" smooth="yes"/>
      <point x="504" y="196"/>
      <point x="609" y="202"/>
    </contour>
  </outline>
</glyph>
<glyph name="dollar" format="1">
  <advance width="534"/>
  <unicode hex="0024"/>
  <outline>
    <contour>
      <point x="441" y="678" type="curve" smooth="yes"/>
      <point x="365" y="678"/>
      <point x="207" y="627"/>
      <point x="143" y="563" type="curve" smooth="yes"/>
      <point x="127" y="547"/>
      <point x="114" y="502"/>
      <point x="114" y="469" type="curve" smooth="yes"/>
      <point x="114" y="356"/>
      <point x="393" y="263"/>
      <point x="393" y="182" type="curve" smooth="yes"/>
      <point x="393" y="126"/>
      <point x="295" y="93"/>
      <point x="197" y="93" type="curve" smooth="yes"/>
      <point x="116" y="93"/>
      <point x="75" y="187"/>
      <point x="44" y="187" type="curve" smooth="yes"/>
      <point x="31" y="187"/>
      <point x="23" y="174"/>
      <point x="23" y="150" type="curve" smooth="yes"/>
      <point x="23" y="101"/>
      <point x="96" y="6"/>
      <point x="210" y="6" type="curve" smooth="yes"/>
      <point x="335" y="6"/>
      <point x="483" y="72"/>
      <point x="482" y="179" type="curve" smooth="yes"/>
      <point x="482" y="313"/>
      <point x="198" y="418"/>
      <point x="198" y="480" type="curve" smooth="yes"/>
      <point x="198" y="523"/>
      <point x="350" y="585"/>
      <point x="442" y="586" type="curve" smooth="yes"/>
      <point x="467" y="586"/>
      <point x="477" y="577"/>
      <point x="492" y="577" type="curve" smooth="yes"/>
      <point x="500" y="577"/>
      <point x="506" y="581"/>
      <point x="506" y="593" type="curve" smooth="yes"/>
      <point x="506" y="625"/>
      <point x="483" y="678"/>
    </contour>
    <contour>
      <point x="420" y="780" type="curve" smooth="yes"/>
      <point x="378" y="780"/>
      <point x="350" y="660"/>
      <point x="263" y="353" type="curve" smooth="yes"/>
      <point x="227" y="222"/>
      <point x="162" y="21"/>
      <point x="162" y="-40" type="curve" smooth="yes"/>
      <point x="161" y="-56"/>
      <point x="170" y="-71"/>
      <point x="183" y="-71" type="curve" smooth="yes"/>
      <point x="226" y="-71"/>
      <point x="267" y="178"/>
      <point x="432" y="690" type="curve" smooth="yes"/>
      <point x="439" y="713"/>
      <point x="442" y="731"/>
      <point x="442" y="744" type="curve" smooth="yes"/>
      <point x="442" y="762"/>
      <point x="437" y="779"/>
    </contour>
  </outline>
</glyph>
<glyph name="ampersand" format="1">
  <advance width="704"/>
  <unicode hex="0026"/>
  <outline>
    <contour>
      <point x="620" y="376" type="curve" smooth="yes"/>
      <point x="587" y="376"/>
      <point x="245" y="87"/>
      <point x="131" y="87" type="curve" smooth="yes"/>
      <point x="115" y="87"/>
      <point x="103" y="98"/>
      <point x="103" y="112" type="curve" smooth="yes"/>
      <point x="103" y="180"/>
      <point x="493" y="398"/>
      <point x="492" y="557" type="curve" smooth="yes"/>
      <point x="492" y="605"/>
      <point x="469" y="681"/>
      <point x="373" y="681" type="curve" smooth="yes"/>
      <point x="258" y="681"/>
      <point x="179" y="591"/>
      <point x="179" y="494" type="curve" smooth="yes"/>
      <point x="180" y="302"/>
      <point x="366" y="20"/>
      <point x="556" y="20" type="curve" smooth="yes"/>
      <point x="624" y="20"/>
      <point x="654" y="40"/>
      <point x="654" y="67" type="curve" smooth="yes"/>
      <point x="654" y="86"/>
      <point x="634" y="91"/>
      <point x="569" y="91" type="curve" smooth="yes"/>
      <point x="407" y="91"/>
      <point x="268" y="317"/>
      <point x="267" y="487" type="curve" smooth="yes"/>
      <point x="267" y="549"/>
      <point x="302" y="605"/>
      <point x="353" y="605" type="curve" smooth="yes"/>
      <point x="388" y="605"/>
      <point x="403" y="579"/>
      <point x="403" y="549" type="curve" smooth="yes"/>
      <point x="403" y="426"/>
      <point x="15" y="217"/>
      <point x="15" y="123" type="curve" smooth="yes"/>
      <point x="15" y="71"/>
      <point x="78" y="9"/>
      <point x="130" y="9" type="curve" smooth="yes"/>
      <point x="275" y="9"/>
      <point x="651" y="294"/>
      <point x="651" y="343" type="curve" smooth="yes"/>
      <point x="651" y="361"/>
      <point x="643" y="376"/>
    </contour>
  </outline>
</glyph>
<glyph name="quotesingle" format="1">
  <advance width="145"/>
  <unicode hex="0027"/>
  <outline>
    <contour>
      <point x="97" y="846" type="curve" smooth="yes"/>
      <point x="89" y="846"/>
      <point x="84" y="840"/>
      <point x="84" y="827" type="curve" smooth="yes"/>
      <point x="84" y="720"/>
      <point x="61" y="616"/>
      <point x="61" y="591" type="curve" smooth="yes"/>
      <point x="61" y="574"/>
      <point x="82" y="553"/>
      <point x="95" y="553" type="curve" smooth="yes"/>
      <point x="123" y="546"/>
      <point x="154" y="759"/>
      <point x="154" y="803" type="curve" smooth="yes"/>
      <point x="154" y="816"/>
      <point x="112" y="846"/>
    </contour>
  </outline>
</glyph>
<glyph name="parenleft" format="1">
  <advance width="485"/>
  <unicode hex="0028"/>
  <outline>
    <contour>
      <point x="551" y="829" type="curve" smooth="yes"/>
      <point x="551" y="852"/>
      <point x="526" y="875"/>
      <point x="502" y="875" type="curve" smooth="yes"/>
      <point x="430" y="875"/>
      <point x="80" y="634"/>
      <point x="80" y="272" type="curve" smooth="yes"/>
      <point x="80" y="27"/>
      <point x="295" y="-99"/>
      <point x="416" y="-99" type="curve" smooth="yes"/>
      <point x="436" y="-99"/>
      <point x="445" y="-90"/>
      <point x="445" y="-78" type="curve" smooth="yes"/>
      <point x="445" y="-22"/>
      <point x="169" y="4"/>
      <point x="169" y="261" type="curve" smooth="yes"/>
      <point x="169" y="627"/>
      <point x="551" y="774"/>
    </contour>
  </outline>
</glyph>
<glyph name="parenright" format="1">
  <advance width="504"/>
  <unicode hex="0029"/>
  <outline>
    <contour>
      <point x="-9" y="-87" type="curve" smooth="yes"/>
      <point x="57" y="-87"/>
      <point x="427" y="168"/>
      <point x="426" y="571" type="curve" smooth="yes"/>
      <point x="426" y="739"/>
      <point x="309" y="861"/>
      <point x="228" y="861" type="curve" smooth="yes"/>
      <point x="197" y="861"/>
      <point x="172" y="848"/>
      <point x="172" y="818" type="curve" smooth="yes"/>
      <point x="172" y="760"/>
      <point x="333" y="748"/>
      <point x="333" y="537" type="curve" smooth="yes"/>
      <point x="333" y="182"/>
      <point x="-32" y="-21"/>
      <point x="-32" y="-70" type="curve" smooth="yes"/>
      <point x="-32" y="-81"/>
      <point x="-22" y="-87"/>
    </contour>
  </outline>
</glyph>
<glyph name="asterisk" format="1">
  <advance width="357"/>
  <unicode hex="002A"/>
  <outline>
    <contour>
      <point x="381" y="726" type="curve" smooth="yes"/>
      <point x="381" y="739"/>
      <point x="363" y="752"/>
      <point x="351" y="752" type="curve" smooth="yes"/>
      <point x="338" y="752"/>
      <point x="301" y="711"/>
      <point x="261" y="686" type="curve"/>
      <point x="268" y="711"/>
      <point x="279" y="746"/>
      <point x="279" y="756" type="curve" smooth="yes"/>
      <point x="279" y="772"/>
      <point x="252" y="793"/>
      <point x="240" y="793" type="curve" smooth="yes"/>
      <point x="231" y="793"/>
      <point x="227" y="790"/>
      <point x="227" y="778" type="curve" smooth="yes"/>
      <point x="227" y="765"/>
      <point x="228" y="721"/>
      <point x="227" y="687" type="curve"/>
      <point x="209" y="696"/>
      <point x="180" y="731"/>
      <point x="176" y="739" type="curve" smooth="yes"/>
      <point x="170" y="752"/>
      <point x="138" y="758"/>
      <point x="119" y="758" type="curve" smooth="yes"/>
      <point x="109" y="758"/>
      <point x="109" y="753"/>
      <point x="109" y="746" type="curve" smooth="yes"/>
      <point x="109" y="730"/>
      <point x="174" y="679"/>
      <point x="213" y="664" type="curve"/>
      <point x="170" y="637"/>
      <point x="101" y="617"/>
      <point x="101" y="606" type="curve" smooth="yes"/>
      <point x="101" y="595"/>
      <point x="114" y="583"/>
      <point x="126" y="583" type="curve" smooth="yes"/>
      <point x="136" y="583"/>
      <point x="198" y="616"/>
      <point x="221" y="638" type="curve"/>
      <point x="215" y="610"/>
      <point x="197" y="562"/>
      <point x="197" y="551" type="curve" smooth="yes"/>
      <point x="197" y="542"/>
      <point x="209" y="529"/>
      <point x="219" y="529" type="curve" smooth="yes"/>
      <point x="233" y="529"/>
      <point x="249" y="605"/>
      <point x="253" y="636" type="curve"/>
      <point x="283" y="610"/>
      <point x="324" y="584"/>
      <point x="339" y="584" type="curve" smooth="yes"/>
      <point x="348" y="584"/>
      <point x="361" y="593"/>
      <point x="361" y="602" type="curve" smooth="yes"/>
      <point x="361" y="613"/>
      <point x="303" y="636"/>
      <point x="271" y="663" type="curve"/>
      <point x="311" y="680"/>
      <point x="381" y="717"/>
    </contour>
  </outline>
</glyph>
<glyph name="plus" format="1">
  <advance width="600"/>
  <unicode hex="002B"/>
  <outline>
    <contour>
      <point x="606" y="362" type="curve" smooth="yes"/>
      <point x="606" y="378"/>
      <point x="578" y="384"/>
      <point x="537" y="384" type="curve" smooth="yes"/>
      <point x="483" y="384"/>
      <point x="337" y="365"/>
      <point x="209" y="363" type="curve" smooth="yes"/>
      <point x="148" y="361"/>
      <point x="99" y="362"/>
      <point x="83" y="362" type="curve" smooth="yes"/>
      <point x="65" y="362"/>
      <point x="55" y="355"/>
      <point x="55" y="340" type="curve" smooth="yes"/>
      <point x="55" y="315"/>
      <point x="83" y="280"/>
      <point x="117" y="280" type="curve" smooth="yes"/>
      <point x="279" y="280"/>
      <point x="606" y="308"/>
    </contour>
    <contour>
      <point x="396" y="504" type="curve" smooth="yes"/>
      <point x="396" y="526"/>
      <point x="345" y="577"/>
      <point x="321" y="577" type="curve" smooth="yes"/>
      <point x="310" y="577"/>
      <point x="301" y="569"/>
      <point x="300" y="547" type="curve" smooth="yes"/>
      <point x="276" y="256"/>
      <point x="246" y="167"/>
      <point x="246" y="131" type="curve" smooth="yes"/>
      <point x="246" y="101"/>
      <point x="274" y="70"/>
      <point x="292" y="70" type="curve" smooth="yes"/>
      <point x="313" y="70"/>
      <point x="322" y="139"/>
      <point x="355" y="298" type="curve" smooth="yes"/>
      <point x="378" y="402"/>
      <point x="396" y="471"/>
    </contour>
  </outline>
</glyph>
<glyph name="period" format="1">
  <advance width="237"/>
  <unicode hex="002E"/>
  <outline>
    <contour>
      <point x="145" y="-6" type="curve" smooth="yes"/>
      <point x="159" y="-6"/>
      <point x="177" y="12"/>
      <point x="177" y="22" type="curve" smooth="yes"/>
      <point x="177" y="51"/>
      <point x="136" y="145"/>
      <point x="109" y="145" type="curve" smooth="yes"/>
      <point x="84" y="145"/>
      <point x="56" y="108"/>
      <point x="56" y="83" type="curve" smooth="yes"/>
      <point x="56" y="51"/>
      <point x="111" y="-6"/>
    </contour>
  </outline>
</glyph>
<glyph name="slash" format="1">
  <advance width="354"/>
  <unicode hex="002F"/>
  <outline>
    <contour>
      <point x="231" y="290" type="curve" smooth="yes"/>
      <point x="313" y="487"/>
      <point x="412" y="661"/>
      <point x="412" y="715" type="curve" smooth="yes"/>
      <point x="412" y="744"/>
      <point x="370" y="796"/>
      <point x="355" y="796" type="curve" smooth="yes"/>
      <point x="341" y="796"/>
      <point x="340" y="787"/>
      <point x="331" y="767" type="curve" smooth="yes"/>
      <point x="148" y="343"/>
      <point x="15" y="29"/>
      <point x="15" y="-20" type="curve" smooth="yes"/>
      <point x="15" y="-38"/>
      <point x="46" y="-77"/>
      <point x="62" y="-77" type="curve" smooth="yes"/>
      <point x="78" y="-77"/>
      <point x="117" y="14"/>
    </contour>
  </outline>
</glyph>
<glyph name="zero" format="1">
  <advance width="500"/>
  <unicode hex="0030"/>
  <outline>
    <contour>
      <point x="201" y="18" type="curve" smooth="yes"/>
      <point x="337" y="18"/>
      <point x="471" y="296"/>
      <point x="471" y="494" type="curve" smooth="yes"/>
      <point x="471" y="648"/>
      <point x="422" y="727"/>
      <point x="340" y="727" type="curve" smooth="yes"/>
      <point x="210" y="727"/>
      <point x="52" y="451"/>
      <point x="52" y="201" type="curve" smooth="yes"/>
      <point x="52" y="109"/>
      <point x="123" y="18"/>
    </contour>
    <contour>
      <point x="381" y="488" type="curve" smooth="yes"/>
      <point x="381" y="330"/>
      <point x="265" y="97"/>
      <point x="206" y="97" type="curve" smooth="yes"/>
      <point x="157" y="97"/>
      <point x="145" y="152"/>
      <point x="145" y="212" type="curve" smooth="yes"/>
      <point x="145" y="401"/>
      <point x="278" y="645"/>
      <point x="335" y="645" type="curve" smooth="yes"/>
      <point x="366" y="645"/>
      <point x="381" y="592"/>
    </contour>
  </outline>
</glyph>
<glyph name="one" format="1">
  <advance width="314"/>
  <unicode hex="0031"/>
  <outline>
    <contour>
      <point x="220" y="343" type="curve" smooth="yes"/>
      <point x="251" y="465"/>
      <point x="271" y="593"/>
      <point x="271" y="651" type="curve" smooth="yes"/>
      <point x="271" y="675"/>
      <point x="228" y="726"/>
      <point x="198" y="726" type="curve" smooth="yes"/>
      <point x="187" y="726"/>
      <point x="177" y="718"/>
      <point x="175" y="695" type="curve" smooth="yes"/>
      <point x="152" y="336"/>
      <point x="68" y="135"/>
      <point x="68" y="67" type="curve" smooth="yes"/>
      <point x="68" y="40"/>
      <point x="95" y="7"/>
      <point x="113" y="7" type="curve" smooth="yes"/>
      <point x="147" y="7"/>
      <point x="175" y="172"/>
    </contour>
  </outline>
</glyph>
<glyph name="two" format="1">
  <advance width="581"/>
  <unicode hex="0032"/>
  <outline>
    <contour>
      <point x="207" y="553" type="curve" smooth="yes"/>
      <point x="224" y="553"/>
      <point x="264" y="632"/>
      <point x="339" y="632" type="curve" smooth="yes"/>
      <point x="384" y="632"/>
      <point x="410" y="596"/>
      <point x="410" y="545" type="curve" smooth="yes"/>
      <point x="410" y="348"/>
      <point x="41" y="164"/>
      <point x="41" y="106" type="curve" smooth="yes"/>
      <point x="41" y="65"/>
      <point x="100" y="21"/>
      <point x="139" y="21" type="curve" smooth="yes"/>
      <point x="215" y="21"/>
      <point x="510" y="78"/>
      <point x="510" y="120" type="curve" smooth="yes"/>
      <point x="510" y="139"/>
      <point x="489" y="143"/>
      <point x="447" y="143" type="curve" smooth="yes"/>
      <point x="396" y="143"/>
      <point x="191" y="107"/>
      <point x="118" y="98" type="curve"/>
      <point x="115" y="90" type="line"/>
      <point x="330" y="226"/>
      <point x="500" y="385"/>
      <point x="500" y="553" type="curve" smooth="yes"/>
      <point x="500" y="649"/>
      <point x="434" y="725"/>
      <point x="333" y="725" type="curve" smooth="yes"/>
      <point x="239" y="725"/>
      <point x="144" y="643"/>
      <point x="144" y="598" type="curve" smooth="yes"/>
      <point x="144" y="576"/>
      <point x="186" y="553"/>
    </contour>
  </outline>
</glyph>
<glyph name="three" format="1">
  <advance width="571"/>
  <unicode hex="0033"/>
  <outline>
    <contour>
      <point x="222" y="335" type="curve" smooth="yes"/>
      <point x="291" y="335"/>
      <point x="537" y="459"/>
      <point x="537" y="579" type="curve" smooth="yes"/>
      <point x="537" y="649"/>
      <point x="474" y="720"/>
      <point x="386" y="720" type="curve" smooth="yes"/>
      <point x="309" y="720"/>
      <point x="161" y="668"/>
      <point x="161" y="626" type="curve" smooth="yes"/>
      <point x="161" y="611"/>
      <point x="203" y="572"/>
      <point x="218" y="572" type="curve" smooth="yes"/>
      <point x="241" y="572"/>
      <point x="321" y="637"/>
      <point x="391" y="637" type="curve" smooth="yes"/>
      <point x="436" y="637"/>
      <point x="442" y="608"/>
      <point x="442" y="590" type="curve" smooth="yes"/>
      <point x="442" y="465"/>
      <point x="183" y="399"/>
      <point x="183" y="352" type="curve" smooth="yes"/>
      <point x="183" y="339"/>
      <point x="197" y="335"/>
    </contour>
    <contour>
      <point x="34" y="50" type="curve" smooth="yes"/>
      <point x="34" y="29"/>
      <point x="61" y="16"/>
      <point x="134" y="16" type="curve" smooth="yes"/>
      <point x="302" y="16"/>
      <point x="527" y="118"/>
      <point x="527" y="240" type="curve" smooth="yes"/>
      <point x="527" y="328"/>
      <point x="399" y="374"/>
      <point x="237" y="374" type="curve" smooth="yes"/>
      <point x="204" y="374"/>
      <point x="182" y="369"/>
      <point x="182" y="348" type="curve" smooth="yes"/>
      <point x="182" y="304"/>
      <point x="414" y="319"/>
      <point x="414" y="242" type="curve" smooth="yes"/>
      <point x="414" y="101"/>
      <point x="34" y="81"/>
    </contour>
  </outline>
</glyph>
<glyph name="four" format="1">
  <advance width="551"/>
  <unicode hex="0034"/>
  <outline>
    <contour>
      <point x="467" y="325" type="curve" smooth="yes"/>
      <point x="467" y="344"/>
      <point x="454" y="353"/>
      <point x="433" y="353" type="curve" smooth="yes"/>
      <point x="407" y="353"/>
      <point x="296" y="294"/>
      <point x="217" y="294" type="curve" smooth="yes"/>
      <point x="181" y="294"/>
      <point x="161" y="308"/>
      <point x="161" y="349" type="curve" smooth="yes"/>
      <point x="161" y="453"/>
      <point x="373" y="649"/>
      <point x="373" y="684" type="curve" smooth="yes"/>
      <point x="373" y="706"/>
      <point x="347" y="724"/>
      <point x="325" y="724" type="curve" smooth="yes"/>
      <point x="281" y="724"/>
      <point x="72" y="469"/>
      <point x="72" y="345" type="curve" smooth="yes"/>
      <point x="72" y="261"/>
      <point x="135" y="215"/>
      <point x="209" y="215" type="curve" smooth="yes"/>
      <point x="317" y="215"/>
      <point x="467" y="280"/>
    </contour>
    <contour>
      <point x="441" y="532" type="curve" smooth="yes"/>
      <point x="429" y="532"/>
      <point x="420" y="523"/>
      <point x="420" y="500" type="curve" smooth="yes"/>
      <point x="420" y="258"/>
      <point x="328" y="95"/>
      <point x="328" y="34" type="curve" smooth="yes"/>
      <point x="328" y="11"/>
      <point x="346" y="-12"/>
      <point x="360" y="-12" type="curve" smooth="yes"/>
      <point x="406" y="-12"/>
      <point x="509" y="351"/>
      <point x="509" y="465" type="curve" smooth="yes"/>
      <point x="509" y="494"/>
      <point x="460" y="532"/>
    </contour>
  </outline>
</glyph>
<glyph name="five" format="1">
  <advance width="537"/>
  <unicode hex="0035"/>
  <outline>
    <contour>
      <point x="590" y="685" type="curve" smooth="yes"/>
      <point x="590" y="709"/>
      <point x="529" y="716"/>
      <point x="444" y="716" type="curve" smooth="yes"/>
      <point x="367" y="716"/>
      <point x="307" y="707"/>
      <point x="276" y="698" type="curve"/>
      <point x="237" y="689"/>
      <point x="154" y="559"/>
      <point x="154" y="497" type="curve" smooth="yes"/>
      <point x="154" y="368"/>
      <point x="362" y="331"/>
      <point x="362" y="239" type="curve" smooth="yes"/>
      <point x="362" y="175"/>
      <point x="258" y="98"/>
      <point x="190" y="98" type="curve" smooth="yes"/>
      <point x="122" y="98"/>
      <point x="63" y="189"/>
      <point x="45" y="189" type="curve" smooth="yes"/>
      <point x="35" y="189"/>
      <point x="29" y="175"/>
      <point x="29" y="160" type="curve" smooth="yes"/>
      <point x="29" y="103"/>
      <point x="111" y="20"/>
      <point x="208" y="20" type="curve" smooth="yes"/>
      <point x="324" y="20"/>
      <point x="456" y="135"/>
      <point x="456" y="248" type="curve" smooth="yes"/>
      <point x="456" y="352"/>
      <point x="250" y="421"/>
      <point x="250" y="495" type="curve" smooth="yes"/>
      <point x="250" y="523"/>
      <point x="294" y="613"/>
      <point x="323" y="620" type="curve" smooth="yes"/>
      <point x="394" y="636"/>
      <point x="590" y="656"/>
    </contour>
  </outline>
</glyph>
<glyph name="six" format="1">
  <advance width="556"/>
  <unicode hex="0036"/>
  <outline>
    <contour>
      <point x="191" y="20" type="curve" smooth="yes"/>
      <point x="332" y="20"/>
      <point x="491" y="144"/>
      <point x="491" y="257" type="curve" smooth="yes"/>
      <point x="491" y="327"/>
      <point x="381" y="408"/>
      <point x="220" y="419" type="curve"/>
      <point x="180" y="364" type="line"/>
      <point x="312" y="351"/>
      <point x="393" y="300"/>
      <point x="393" y="249" type="curve" smooth="yes"/>
      <point x="393" y="176"/>
      <point x="286" y="101"/>
      <point x="200" y="101" type="curve" smooth="yes"/>
      <point x="163" y="101"/>
      <point x="136" y="122"/>
      <point x="136" y="169" type="curve" smooth="yes"/>
      <point x="136" y="400"/>
      <point x="458" y="653"/>
      <point x="458" y="687" type="curve" smooth="yes"/>
      <point x="458" y="703"/>
      <point x="424" y="720"/>
      <point x="398" y="720" type="curve" smooth="yes"/>
      <point x="345" y="720"/>
      <point x="47" y="396"/>
      <point x="47" y="172" type="curve" smooth="yes"/>
      <point x="47" y="83"/>
      <point x="107" y="20"/>
    </contour>
  </outline>
</glyph>
<glyph name="seven" format="1">
  <advance width="461"/>
  <unicode hex="0037"/>
  <outline>
    <contour>
      <point x="324" y="719" type="curve" smooth="yes"/>
      <point x="248" y="719"/>
      <point x="99" y="699"/>
      <point x="99" y="685" type="curve" smooth="yes"/>
      <point x="99" y="662"/>
      <point x="138" y="612"/>
      <point x="163" y="612" type="curve" smooth="yes"/>
      <point x="208" y="612"/>
      <point x="307" y="634"/>
      <point x="359" y="634" type="curve" smooth="yes"/>
      <point x="385" y="634"/>
      <point x="399" y="626"/>
      <point x="399" y="616" type="curve" smooth="yes"/>
      <point x="399" y="563"/>
      <point x="102" y="145"/>
      <point x="102" y="68" type="curve" smooth="yes"/>
      <point x="102" y="45"/>
      <point x="122" y="13"/>
      <point x="139" y="13" type="curve" smooth="yes"/>
      <point x="167" y="13"/>
      <point x="240" y="172"/>
      <point x="335" y="335" type="curve" smooth="yes"/>
      <point x="392" y="431"/>
      <point x="486" y="570"/>
      <point x="486" y="610" type="curve" smooth="yes"/>
      <point x="486" y="644"/>
      <point x="466" y="688"/>
      <point x="444" y="705" type="curve" smooth="yes"/>
      <point x="429" y="715"/>
      <point x="370" y="719"/>
    </contour>
  </outline>
</glyph>
<glyph name="eight" format="1">
  <advance width="602"/>
  <unicode hex="0038"/>
  <outline>
    <contour>
      <point x="602" y="608" type="curve" smooth="yes"/>
      <point x="602" y="684"/>
      <point x="544" y="729"/>
      <point x="454" y="729" type="curve" smooth="yes"/>
      <point x="335" y="729"/>
      <point x="212" y="683"/>
      <point x="212" y="643" type="curve" smooth="yes"/>
      <point x="212" y="624"/>
      <point x="250" y="599"/>
      <point x="271" y="599" type="curve" smooth="yes"/>
      <point x="307" y="599"/>
      <point x="377" y="648"/>
      <point x="460" y="648" type="curve" smooth="yes"/>
      <point x="502" y="648"/>
      <point x="514" y="628"/>
      <point x="514" y="610" type="curve" smooth="yes"/>
      <point x="514" y="506"/>
      <point x="91" y="291"/>
      <point x="91" y="140" type="curve" smooth="yes"/>
      <point x="91" y="77"/>
      <point x="177" y="22"/>
      <point x="233" y="22" type="curve" smooth="yes"/>
      <point x="342" y="22"/>
      <point x="498" y="114"/>
      <point x="498" y="217" type="curve" smooth="yes"/>
      <point x="498" y="332"/>
      <point x="282" y="457"/>
      <point x="157" y="573" type="curve" smooth="yes"/>
      <point x="138" y="591"/>
      <point x="124" y="610"/>
      <point x="112" y="610" type="curve" smooth="yes"/>
      <point x="99" y="610"/>
      <point x="92" y="579"/>
      <point x="92" y="556" type="curve" smooth="yes"/>
      <point x="92" y="473"/>
      <point x="408" y="307"/>
      <point x="408" y="230" type="curve" smooth="yes"/>
      <point x="408" y="157"/>
      <point x="302" y="98"/>
      <point x="236" y="98" type="curve" smooth="yes"/>
      <point x="207" y="98"/>
      <point x="180" y="123"/>
      <point x="180" y="146" type="curve" smooth="yes"/>
      <point x="180" y="244"/>
      <point x="602" y="454"/>
    </contour>
  </outline>
</glyph>
<glyph name="nine" format="1">
  <advance width="488"/>
  <unicode hex="0039"/>
  <outline>
    <contour>
      <point x="69" y="420" type="curve" smooth="yes"/>
      <point x="69" y="354"/>
      <point x="134" y="284"/>
      <point x="202" y="284" type="curve" smooth="yes"/>
      <point x="312" y="284"/>
      <point x="462" y="442"/>
      <point x="462" y="520" type="curve" smooth="yes"/>
      <point x="462" y="537"/>
      <point x="446" y="549"/>
      <point x="426" y="549" type="curve" smooth="yes"/>
      <point x="387" y="549"/>
      <point x="320" y="360"/>
      <point x="207" y="360" type="curve" smooth="yes"/>
      <point x="176" y="360"/>
      <point x="148" y="381"/>
      <point x="148" y="415" type="curve" smooth="yes"/>
      <point x="148" y="490"/>
      <point x="253" y="642"/>
      <point x="327" y="642" type="curve" smooth="yes"/>
      <point x="353" y="642"/>
      <point x="367" y="619"/>
      <point x="367" y="591" type="curve" smooth="yes"/>
      <point x="367" y="566"/>
      <point x="358" y="544"/>
      <point x="358" y="524" type="curve" smooth="yes"/>
      <point x="358" y="513"/>
      <point x="370" y="505"/>
      <point x="392" y="505" type="curve" smooth="yes"/>
      <point x="427" y="505"/>
      <point x="444" y="554"/>
      <point x="444" y="603" type="curve" smooth="yes"/>
      <point x="444" y="662"/>
      <point x="406" y="726"/>
      <point x="331" y="726" type="curve" smooth="yes"/>
      <point x="208" y="726"/>
      <point x="69" y="545"/>
    </contour>
    <contour>
      <point x="427" y="552" type="curve" smooth="yes"/>
      <point x="394" y="551"/>
      <point x="281" y="202"/>
      <point x="281" y="80" type="curve" smooth="yes"/>
      <point x="281" y="38"/>
      <point x="291" y="5"/>
      <point x="315" y="5" type="curve" smooth="yes"/>
      <point x="344" y="5"/>
      <point x="357" y="169"/>
      <point x="408" y="325" type="curve" smooth="yes"/>
      <point x="437" y="412"/>
      <point x="470" y="477"/>
      <point x="470" y="509" type="curve" smooth="yes"/>
      <point x="470" y="532"/>
      <point x="455" y="552"/>
    </contour>
  </outline>
</glyph>
<glyph name="colon" format="1">
  <advance width="246"/>
  <unicode hex="003A"/>
  <outline>
    <contour>
      <point x="125" y="-7" type="curve" smooth="yes"/>
      <point x="141" y="-7"/>
      <point x="153" y="8"/>
      <point x="153" y="22" type="curve" smooth="yes"/>
      <point x="153" y="57"/>
      <point x="118" y="168"/>
      <point x="82" y="168" type="curve" smooth="yes"/>
      <point x="62" y="168"/>
      <point x="39" y="127"/>
      <point x="39" y="99" type="curve" smooth="yes"/>
      <point x="39" y="66"/>
      <point x="94" y="-7"/>
    </contour>
    <contour>
      <point x="202" y="336" type="curve" smooth="yes"/>
      <point x="218" y="336"/>
      <point x="230" y="351"/>
      <point x="230" y="366" type="curve" smooth="yes"/>
      <point x="230" y="400"/>
      <point x="195" y="512"/>
      <point x="158" y="512" type="curve" smooth="yes"/>
      <point x="139" y="512"/>
      <point x="115" y="471"/>
      <point x="115" y="444" type="curve" smooth="yes"/>
      <point x="115" y="410"/>
      <point x="170" y="336"/>
    </contour>
  </outline>
</glyph>
<glyph name="semicolon" format="1">
  <advance width="306"/>
  <unicode hex="003B"/>
  <outline>
    <contour>
      <point x="213" y="336" type="curve" smooth="yes"/>
      <point x="230" y="336"/>
      <point x="242" y="351"/>
      <point x="242" y="366" type="curve" smooth="yes"/>
      <point x="242" y="400"/>
      <point x="206" y="512"/>
      <point x="170" y="512" type="curve" smooth="yes"/>
      <point x="151" y="512"/>
      <point x="127" y="471"/>
      <point x="127" y="444" type="curve" smooth="yes"/>
      <point x="127" y="410"/>
      <point x="181" y="336"/>
    </contour>
    <component base="comma" xOffset="-3" yOffset="-18"/>
  </outline>
</glyph>
<glyph name="less" format="1">
  <advance width="539"/>
  <unicode hex="003C"/>
  <outline>
    <contour>
      <point x="491" y="542" type="curve" smooth="yes"/>
      <point x="420" y="542"/>
      <point x="177" y="419"/>
      <point x="115" y="367" type="curve" smooth="yes"/>
      <point x="99" y="354"/>
      <point x="81" y="313"/>
      <point x="81" y="292" type="curve" smooth="yes"/>
      <point x="81" y="231"/>
      <point x="369" y="97"/>
      <point x="439" y="97" type="curve" smooth="yes"/>
      <point x="463" y="97"/>
      <point x="477" y="103"/>
      <point x="477" y="118" type="curve" smooth="yes"/>
      <point x="477" y="154"/>
      <point x="188" y="264"/>
      <point x="188" y="304" type="curve" smooth="yes"/>
      <point x="188" y="336"/>
      <point x="410" y="433"/>
      <point x="506" y="469" type="curve" smooth="yes"/>
      <point x="524" y="476"/>
      <point x="539" y="481"/>
      <point x="539" y="496" type="curve" smooth="yes"/>
      <point x="539" y="509"/>
      <point x="523" y="542"/>
    </contour>
  </outline>
</glyph>
<glyph name="equal" format="1">
  <advance width="631"/>
  <unicode hex="003D"/>
  <outline>
    <contour>
      <point x="486" y="489" type="curve" smooth="yes"/>
      <point x="408" y="489"/>
      <point x="90" y="468"/>
      <point x="89" y="436" type="curve" smooth="yes"/>
      <point x="89" y="419"/>
      <point x="109" y="383"/>
      <point x="128" y="383" type="curve" smooth="yes"/>
      <point x="163" y="383"/>
      <point x="295" y="396"/>
      <point x="408" y="409" type="curve" smooth="yes"/>
      <point x="531" y="423"/>
      <point x="597" y="434"/>
      <point x="597" y="458" type="curve" smooth="yes"/>
      <point x="597" y="482"/>
      <point x="550" y="489"/>
    </contour>
    <contour>
      <point x="496" y="301" type="curve" smooth="yes"/>
      <point x="447" y="301"/>
      <point x="57" y="266"/>
      <point x="57" y="240" type="curve" smooth="yes"/>
      <point x="57" y="224"/>
      <point x="77" y="188"/>
      <point x="95" y="187" type="curve" smooth="yes"/>
      <point x="138" y="187"/>
      <point x="257" y="198"/>
      <point x="337" y="208" type="curve" smooth="yes"/>
      <point x="471" y="226"/>
      <point x="570" y="248"/>
      <point x="570" y="276" type="curve" smooth="yes"/>
      <point x="570" y="293"/>
      <point x="541" y="301"/>
    </contour>
  </outline>
</glyph>
<glyph name="greater" format="1">
  <advance width="561"/>
  <unicode hex="003E"/>
  <outline>
    <contour>
      <point x="132" y="527" type="curve" smooth="yes"/>
      <point x="132" y="512"/>
      <point x="167" y="467"/>
      <point x="194" y="458" type="curve" smooth="yes"/>
      <point x="255" y="440"/>
      <point x="408" y="360"/>
      <point x="408" y="330" type="curve" smooth="yes"/>
      <point x="408" y="303"/>
      <point x="86" y="164"/>
      <point x="86" y="116" type="curve" smooth="yes"/>
      <point x="86" y="103"/>
      <point x="95" y="96"/>
      <point x="116" y="96" type="curve" smooth="yes"/>
      <point x="149" y="96"/>
      <point x="199" y="112"/>
      <point x="330" y="186" type="curve" smooth="yes"/>
      <point x="426" y="239"/>
      <point x="506" y="280"/>
      <point x="506" y="321" type="curve" smooth="yes"/>
      <point x="506" y="336"/>
      <point x="493" y="361"/>
      <point x="474" y="380" type="curve" smooth="yes"/>
      <point x="404" y="448"/>
      <point x="253" y="542"/>
      <point x="155" y="543" type="curve" smooth="yes"/>
      <point x="141" y="543"/>
      <point x="132" y="538"/>
    </contour>
  </outline>
</glyph>
<glyph name="question" format="1">
  <advance width="524"/>
  <unicode hex="003F"/>
  <outline>
    <contour>
      <point x="497" y="636" type="curve" smooth="yes"/>
      <point x="497" y="732"/>
      <point x="426" y="788"/>
      <point x="338" y="788" type="curve" smooth="yes"/>
      <point x="256" y="788"/>
      <point x="178" y="721"/>
      <point x="178" y="647" type="curve" smooth="yes"/>
      <point x="178" y="625"/>
      <point x="213" y="585"/>
      <point x="226" y="585" type="curve" smooth="yes"/>
      <point x="238" y="585"/>
      <point x="255" y="592"/>
      <point x="258" y="599" type="curve" smooth="yes"/>
      <point x="262" y="610"/>
      <point x="258" y="615"/>
      <point x="258" y="634" type="curve" smooth="yes"/>
      <point x="258" y="673"/>
      <point x="295" y="701"/>
      <point x="337" y="701" type="curve" smooth="yes"/>
      <point x="375" y="701"/>
      <point x="410" y="674"/>
      <point x="410" y="632" type="curve" smooth="yes"/>
      <point x="410" y="524"/>
      <point x="209" y="427"/>
      <point x="209" y="303" type="curve" smooth="yes"/>
      <point x="209" y="269"/>
      <point x="217" y="239"/>
      <point x="234" y="239" type="curve" smooth="yes"/>
      <point x="254" y="239"/>
      <point x="265" y="270"/>
      <point x="287" y="321" type="curve" smooth="yes"/>
      <point x="329" y="421"/>
      <point x="497" y="517"/>
    </contour>
    <contour>
      <point x="135" y="83" type="curve" smooth="yes"/>
      <point x="135" y="52"/>
      <point x="189" y="-3"/>
      <point x="222" y="-3" type="curve" smooth="yes"/>
      <point x="235" y="-3"/>
      <point x="251" y="13"/>
      <point x="251" y="22" type="curve" smooth="yes"/>
      <point x="251" y="51"/>
      <point x="211" y="143"/>
      <point x="186" y="143" type="curve" smooth="yes"/>
      <point x="162" y="143"/>
      <point x="135" y="107"/>
    </contour>
  </outline>
</glyph>
<glyph name="at" format="1">
  <advance width="965"/>
  <unicode hex="0040"/>
  <outline>
    <contour>
      <point x="43" y="127" type="curve" smooth="yes"/>
      <point x="43" y="-32"/>
      <point x="169" y="-165"/>
      <point x="342" y="-165" type="curve" smooth="yes"/>
      <point x="449" y="-165"/>
      <point x="613" y="-110"/>
      <point x="613" y="-53" type="curve" smooth="yes"/>
      <point x="613" y="-43"/>
      <point x="609" y="-39"/>
      <point x="600" y="-39" type="curve" smooth="yes"/>
      <point x="571" y="-39"/>
      <point x="493" y="-87"/>
      <point x="341" y="-87" type="curve" smooth="yes"/>
      <point x="209" y="-87"/>
      <point x="134" y="0"/>
      <point x="134" y="129" type="curve" smooth="yes"/>
      <point x="134" y="356"/>
      <point x="337" y="650"/>
      <point x="609" y="650" type="curve" smooth="yes"/>
      <point x="760" y="650"/>
      <point x="826" y="543"/>
      <point x="826" y="407" type="curve" smooth="yes"/>
      <point x="826" y="263"/>
      <point x="710" y="149"/>
      <point x="663" y="149" type="curve" smooth="yes"/>
      <point x="642" y="149"/>
      <point x="632" y="169"/>
      <point x="632" y="186" type="curve" smooth="yes"/>
      <point x="632" y="226"/>
      <point x="665" y="276"/>
      <point x="665" y="303" type="curve" smooth="yes"/>
      <point x="665" y="329"/>
      <point x="629" y="355"/>
      <point x="612" y="355" type="curve" smooth="yes"/>
      <point x="598" y="355"/>
      <point x="590" y="349"/>
      <point x="588" y="339" type="curve" smooth="yes"/>
      <point x="559" y="215"/>
      <point x="452" y="123"/>
      <point x="398" y="123" type="curve" smooth="yes"/>
      <point x="375" y="123"/>
      <point x="350" y="141"/>
      <point x="350" y="166" type="curve" smooth="yes"/>
      <point x="350" y="245"/>
      <point x="481" y="446"/>
      <point x="559" y="446" type="curve" smooth="yes"/>
      <point x="585" y="446"/>
      <point x="601" y="406"/>
      <point x="605" y="361" type="curve" smooth="yes"/>
      <point x="607" y="326"/>
      <point x="611" y="313"/>
      <point x="624" y="313" type="curve" smooth="yes"/>
      <point x="639" y="313"/>
      <point x="671" y="357"/>
      <point x="671" y="394" type="curve" smooth="yes"/>
      <point x="671" y="445"/>
      <point x="615" y="522"/>
      <point x="553" y="522" type="curve" smooth="yes"/>
      <point x="424" y="522"/>
      <point x="271" y="283"/>
      <point x="271" y="167" type="curve" smooth="yes"/>
      <point x="271" y="112"/>
      <point x="345" y="49"/>
      <point x="404" y="49" type="curve" smooth="yes"/>
      <point x="464" y="49"/>
      <point x="547" y="124"/>
      <point x="601" y="199" type="curve"/>
      <point x="569" y="230" type="line"/>
      <point x="558" y="212"/>
      <point x="552" y="192"/>
      <point x="552" y="168" type="curve" smooth="yes"/>
      <point x="552" y="116"/>
      <point x="586" y="70"/>
      <point x="638" y="70" type="curve" smooth="yes"/>
      <point x="755" y="70"/>
      <point x="913" y="233"/>
      <point x="913" y="413" type="curve" smooth="yes"/>
      <point x="913" y="594"/>
      <point x="797" y="730"/>
      <point x="607" y="730" type="curve" smooth="yes"/>
      <point x="267" y="730"/>
      <point x="43" y="384"/>
    </contour>
  </outline>
</glyph>
<glyph name="A" format="1">
  <advance width="608"/>
  <unicode hex="0041"/>
  <outline>
    <contour>
      <point x="354" y="704" type="move" name="top"/>
    </contour>
    <contour>
      <point x="412" y="3" type="move" name="ogonek"/>
    </contour>
    <contour>
      <point x="282" y="662" type="curve" smooth="yes"/>
      <point x="256" y="597"/>
      <point x="208" y="484"/>
      <point x="167" y="381" type="curve" smooth="yes"/>
      <point x="113" y="243"/>
      <point x="43" y="95"/>
      <point x="43" y="77" type="curve" smooth="yes"/>
      <point x="43" y="45"/>
      <point x="77" y="16"/>
      <point x="95" y="16" type="curve" smooth="yes"/>
      <point x="127" y="16"/>
      <point x="246" y="394"/>
      <point x="362" y="654" type="curve"/>
      <point x="347" y="655" type="line"/>
      <point x="376" y="523"/>
      <point x="396" y="292"/>
      <point x="409" y="110" type="curve" smooth="yes"/>
      <point x="417" y="40"/>
      <point x="429" y="16"/>
      <point x="452" y="16" type="curve" smooth="yes"/>
      <point x="474" y="16"/>
      <point x="484" y="56"/>
      <point x="484" y="142" type="curve" smooth="yes"/>
      <point x="484" y="335"/>
      <point x="441" y="730"/>
      <point x="375" y="730" type="curve" smooth="yes"/>
      <point x="341" y="730"/>
      <point x="299" y="702"/>
    </contour>
    <contour>
      <point x="519" y="389" type="curve" smooth="yes"/>
      <point x="404" y="389"/>
      <point x="42" y="307"/>
      <point x="42" y="264" type="curve" smooth="yes"/>
      <point x="42" y="238"/>
      <point x="68" y="219"/>
      <point x="93" y="219" type="curve" smooth="yes"/>
      <point x="116" y="219"/>
      <point x="170" y="238"/>
      <point x="289" y="271" type="curve" smooth="yes"/>
      <point x="417" y="305"/>
      <point x="564" y="334"/>
      <point x="564" y="363" type="curve" smooth="yes"/>
      <point x="564" y="384"/>
      <point x="547" y="389"/>
    </contour>
  </outline>
</glyph>
<glyph name="B" format="1">
  <advance width="637"/>
  <unicode hex="0042"/>
  <outline>
    <contour>
      <point x="134" y="673" type="curve" smooth="yes"/>
      <point x="134" y="657"/>
      <point x="164" y="614"/>
      <point x="190" y="614" type="curve" smooth="yes"/>
      <point x="233" y="614"/>
      <point x="297" y="632"/>
      <point x="364" y="632" type="curve" smooth="yes"/>
      <point x="427" y="632"/>
      <point x="481" y="607"/>
      <point x="481" y="562" type="curve" smooth="yes"/>
      <point x="481" y="491"/>
      <point x="381" y="455"/>
      <point x="311" y="428" type="curve" smooth="yes"/>
      <point x="267" y="409"/>
      <point x="227" y="396"/>
      <point x="227" y="375" type="curve" smooth="yes"/>
      <point x="227" y="356"/>
      <point x="256" y="329"/>
      <point x="280" y="329" type="curve" smooth="yes"/>
      <point x="361" y="329"/>
      <point x="488" y="301"/>
      <point x="488" y="258" type="curve" smooth="yes"/>
      <point x="488" y="178"/>
      <point x="284" y="96"/>
      <point x="141" y="96" type="curve" smooth="yes"/>
      <point x="71" y="96"/>
      <point x="42" y="140"/>
      <point x="23" y="140" type="curve" smooth="yes"/>
      <point x="14" y="140"/>
      <point x="6" y="131"/>
      <point x="6" y="114" type="curve" smooth="yes"/>
      <point x="6" y="76"/>
      <point x="74" y="17"/>
      <point x="158" y="17" type="curve" smooth="yes"/>
      <point x="363" y="17"/>
      <point x="575" y="132"/>
      <point x="575" y="254" type="curve" smooth="yes"/>
      <point x="575" y="315"/>
      <point x="496" y="371"/>
      <point x="382" y="378" type="curve" smooth="yes"/>
      <point x="368" y="380"/>
      <point x="352" y="381"/>
      <point x="337" y="381" type="curve"/>
      <point x="348" y="372" type="line"/>
      <point x="495" y="412"/>
      <point x="571" y="483"/>
      <point x="571" y="567" type="curve" smooth="yes"/>
      <point x="571" y="663"/>
      <point x="464" y="715"/>
      <point x="279" y="715" type="curve" smooth="yes"/>
      <point x="198" y="715"/>
      <point x="134" y="696"/>
    </contour>
    <contour>
      <point x="216" y="644" type="curve" smooth="yes"/>
      <point x="202" y="644"/>
      <point x="198" y="635"/>
      <point x="198" y="618" type="curve" smooth="yes"/>
      <point x="197" y="443"/>
      <point x="98" y="205"/>
      <point x="98" y="160" type="curve" smooth="yes"/>
      <point x="98" y="127"/>
      <point x="131" y="93"/>
      <point x="147" y="93" type="curve" smooth="yes"/>
      <point x="158" y="93"/>
      <point x="173" y="132"/>
      <point x="200" y="232" type="curve" smooth="yes"/>
      <point x="243" y="390"/>
      <point x="279" y="530"/>
      <point x="279" y="567" type="curve" smooth="yes"/>
      <point x="279" y="593"/>
      <point x="236" y="644"/>
    </contour>
  </outline>
</glyph>
<glyph name="C" format="1">
  <advance width="599"/>
  <unicode hex="0043"/>
  <outline>
    <contour>
      <point x="480" y="704" type="move" name="top"/>
    </contour>
    <contour>
      <point x="252" y="3" type="move" name="cedilla"/>
    </contour>
    <contour>
      <point x="470" y="718" type="curve" smooth="yes"/>
      <point x="284" y="718"/>
      <point x="65" y="405"/>
      <point x="65" y="215" type="curve" smooth="yes"/>
      <point x="65" y="117"/>
      <point x="167" y="21"/>
      <point x="259" y="21" type="curve" smooth="yes"/>
      <point x="373" y="21"/>
      <point x="541" y="133"/>
      <point x="541" y="179" type="curve" smooth="yes"/>
      <point x="541" y="191"/>
      <point x="533" y="201"/>
      <point x="527" y="201" type="curve" smooth="yes"/>
      <point x="497" y="201"/>
      <point x="403" y="114"/>
      <point x="257" y="114" type="curve" smooth="yes"/>
      <point x="204" y="114"/>
      <point x="158" y="147"/>
      <point x="158" y="211" type="curve" smooth="yes"/>
      <point x="158" y="389"/>
      <point x="371" y="624"/>
      <point x="477" y="624" type="curve" smooth="yes"/>
      <point x="508" y="624"/>
      <point x="526" y="609"/>
      <point x="543" y="609" type="curve" smooth="yes"/>
      <point x="547" y="609"/>
      <point x="551" y="612"/>
      <point x="551" y="625" type="curve" smooth="yes"/>
      <point x="551" y="660"/>
      <point x="505" y="718"/>
    </contour>
  </outline>
</glyph>
<glyph name="D" format="1">
  <advance width="645"/>
  <unicode hex="0044"/>
  <outline>
    <contour>
      <point x="439" y="651" type="move" name="top"/>
    </contour>
    <contour>
      <point x="198" y="249" type="curve" smooth="yes"/>
      <point x="250" y="426"/>
      <point x="279" y="525"/>
      <point x="279" y="573" type="curve" smooth="yes"/>
      <point x="279" y="627"/>
      <point x="237" y="672"/>
      <point x="218" y="672" type="curve" smooth="yes"/>
      <point x="203" y="672"/>
      <point x="201" y="662"/>
      <point x="201" y="638" type="curve" smooth="yes"/>
      <point x="198" y="517"/>
      <point x="80" y="191"/>
      <point x="80" y="106" type="curve" smooth="yes"/>
      <point x="80" y="69"/>
      <point x="123" y="14"/>
      <point x="148" y="14" type="curve" smooth="yes"/>
      <point x="298" y="14"/>
      <point x="612" y="230"/>
      <point x="612" y="357" type="curve" smooth="yes"/>
      <point x="612" y="552"/>
      <point x="337" y="721"/>
      <point x="151" y="721" type="curve" smooth="yes"/>
      <point x="139" y="721"/>
      <point x="131" y="715"/>
      <point x="131" y="701" type="curve" smooth="yes"/>
      <point x="131" y="673"/>
      <point x="170" y="632"/>
      <point x="231" y="618" type="curve" smooth="yes"/>
      <point x="380" y="588"/>
      <point x="520" y="459"/>
      <point x="520" y="368" type="curve" smooth="yes"/>
      <point x="520" y="300"/>
      <point x="314" y="124"/>
      <point x="167" y="104" type="curve"/>
      <point x="173" y="145"/>
      <point x="185" y="205"/>
    </contour>
  </outline>
</glyph>
<glyph name="F" format="1">
  <advance width="523"/>
  <unicode hex="0046"/>
  <outline>
    <contour>
      <point x="111" y="16" type="curve" smooth="yes"/>
      <point x="124" y="16"/>
      <point x="140" y="91"/>
      <point x="162" y="177" type="curve" smooth="yes"/>
      <point x="191" y="296"/>
      <point x="253" y="538"/>
      <point x="253" y="609" type="curve" smooth="yes"/>
      <point x="253" y="638"/>
      <point x="220" y="686"/>
      <point x="201" y="686" type="curve" smooth="yes"/>
      <point x="187" y="686"/>
      <point x="174" y="675"/>
      <point x="173" y="650" type="curve" smooth="yes"/>
      <point x="170" y="514"/>
      <point x="56" y="145"/>
      <point x="56" y="90" type="curve" smooth="yes"/>
      <point x="56" y="67"/>
      <point x="93" y="16"/>
    </contour>
    <contour>
      <point x="197" y="313" type="curve" smooth="yes"/>
      <point x="326" y="313"/>
      <point x="473" y="343"/>
      <point x="473" y="386" type="curve" smooth="yes"/>
      <point x="473" y="395"/>
      <point x="458" y="402"/>
      <point x="435" y="402" type="curve" smooth="yes"/>
      <point x="396" y="402"/>
      <point x="351" y="393"/>
      <point x="270" y="392" type="curve" smooth="yes"/>
      <point x="238" y="391"/>
      <point x="211" y="394"/>
      <point x="177" y="394" type="curve" smooth="yes"/>
      <point x="149" y="394"/>
      <point x="129" y="388"/>
      <point x="129" y="373" type="curve" smooth="yes"/>
      <point x="129" y="355"/>
      <point x="158" y="313"/>
    </contour>
    <contour>
      <point x="223" y="616" type="curve" smooth="yes"/>
      <point x="253" y="616"/>
      <point x="305" y="625"/>
      <point x="373" y="632" type="curve" smooth="yes"/>
      <point x="493" y="645"/>
      <point x="589" y="647"/>
      <point x="589" y="675" type="curve" smooth="yes"/>
      <point x="589" y="700"/>
      <point x="502" y="713"/>
      <point x="399" y="713" type="curve" smooth="yes"/>
      <point x="230" y="713"/>
      <point x="177" y="698"/>
      <point x="177" y="661" type="curve" smooth="yes"/>
      <point x="177" y="637"/>
      <point x="198" y="616"/>
    </contour>
  </outline>
</glyph>
<glyph name="G" format="1">
  <advance width="611"/>
  <unicode hex="0047"/>
  <outline>
    <contour>
      <point x="478" y="697" type="move" name="top"/>
    </contour>
    <contour>
      <point x="46" y="191" type="curve" smooth="yes"/>
      <point x="46" y="104"/>
      <point x="139" y="17"/>
      <point x="224" y="17" type="curve" smooth="yes"/>
      <point x="301" y="17"/>
      <point x="405" y="102"/>
      <point x="472" y="237" type="curve"/>
      <point x="465" y="247" type="line"/>
      <point x="424" y="104"/>
      <point x="379" y="-12"/>
      <point x="379" y="-60" type="curve" smooth="yes"/>
      <point x="379" y="-79"/>
      <point x="390" y="-89"/>
      <point x="405" y="-89" type="curve"/>
      <point x="442" y="-89"/>
      <point x="530" y="205"/>
      <point x="530" y="259" type="curve" smooth="yes"/>
      <point x="530" y="299"/>
      <point x="500" y="353"/>
      <point x="449" y="353" type="curve" smooth="yes"/>
      <point x="365" y="353"/>
      <point x="298" y="340"/>
      <point x="298" y="318" type="curve" smooth="yes"/>
      <point x="298" y="301"/>
      <point x="328" y="276"/>
      <point x="357" y="276" type="curve" smooth="yes"/>
      <point x="376" y="276"/>
      <point x="405" y="280"/>
      <point x="446" y="291" type="curve"/>
      <point x="373" y="182"/>
      <point x="278" y="103"/>
      <point x="214" y="103" type="curve" smooth="yes"/>
      <point x="173" y="103"/>
      <point x="137" y="141"/>
      <point x="137" y="190" type="curve" smooth="yes"/>
      <point x="137" y="376"/>
      <point x="333" y="624"/>
      <point x="461" y="624" type="curve"/>
      <point x="499" y="624"/>
      <point x="511" y="609"/>
      <point x="524" y="609" type="curve"/>
      <point x="532" y="609"/>
      <point x="535" y="613"/>
      <point x="535" y="625" type="curve"/>
      <point x="535" y="655"/>
      <point x="493" y="717"/>
      <point x="453" y="717" type="curve" smooth="yes"/>
      <point x="275" y="717"/>
      <point x="46" y="396"/>
    </contour>
  </outline>
</glyph>
<glyph name="H" format="1">
  <advance width="670"/>
  <unicode hex="0048"/>
  <outline>
    <contour>
      <point x="120" y="17" type="curve"/>
      <point x="137" y="17"/>
      <point x="162" y="142"/>
      <point x="196" y="267" type="curve" smooth="yes"/>
      <point x="244" y="438"/>
      <point x="278" y="590"/>
      <point x="278" y="627" type="curve" smooth="yes"/>
      <point x="278" y="671"/>
      <point x="237" y="720"/>
      <point x="217" y="720" type="curve" smooth="yes"/>
      <point x="202" y="720"/>
      <point x="197" y="713"/>
      <point x="197" y="690" type="curve" smooth="yes"/>
      <point x="197" y="573"/>
      <point x="66" y="160"/>
      <point x="66" y="88" type="curve" smooth="yes"/>
      <point x="66" y="63"/>
      <point x="104" y="17"/>
    </contour>
    <contour>
      <point x="459" y="17" type="curve" smooth="yes"/>
      <point x="477" y="17"/>
      <point x="502" y="142"/>
      <point x="536" y="267" type="curve" smooth="yes"/>
      <point x="583" y="438"/>
      <point x="622" y="590"/>
      <point x="622" y="627" type="curve" smooth="yes"/>
      <point x="622" y="671"/>
      <point x="579" y="720"/>
      <point x="559" y="720" type="curve" smooth="yes"/>
      <point x="544" y="720"/>
      <point x="539" y="712"/>
      <point x="539" y="690" type="curve" smooth="yes"/>
      <point x="539" y="571"/>
      <point x="408" y="150"/>
      <point x="408" y="87" type="curve"/>
      <point x="408" y="54"/>
      <point x="442" y="17"/>
    </contour>
    <contour>
      <point x="518" y="424" type="curve" smooth="yes"/>
      <point x="411" y="424"/>
      <point x="78" y="373"/>
      <point x="78" y="336" type="curve" smooth="yes"/>
      <point x="78" y="309"/>
      <point x="102" y="287"/>
      <point x="123" y="287" type="curve" smooth="yes"/>
      <point x="165" y="287"/>
      <point x="225" y="307"/>
      <point x="314" y="323" type="curve" smooth="yes"/>
      <point x="492" y="354"/>
      <point x="623" y="355"/>
      <point x="623" y="393" type="curve" smooth="yes"/>
      <point x="623" y="418"/>
      <point x="576" y="424"/>
    </contour>
  </outline>
</glyph>
<glyph name="I" format="1">
  <advance width="310"/>
  <unicode hex="0049"/>
  <outline>
    <contour>
      <point x="242" y="704" type="move" name="top"/>
    </contour>
    <contour>
      <point x="75" y="22" type="move" name="ogonek"/>
    </contour>
    <contour>
      <point x="68" y="84" type="curve" smooth="yes"/>
      <point x="68" y="61"/>
      <point x="103" y="19"/>
      <point x="120" y="19" type="curve" smooth="yes"/>
      <point x="139" y="19"/>
      <point x="168" y="160"/>
      <point x="201" y="292" type="curve" smooth="yes"/>
      <point x="243" y="463"/>
      <point x="273" y="589"/>
      <point x="273" y="625" type="curve"/>
      <point x="273" y="669"/>
      <point x="230" y="718"/>
      <point x="209" y="718" type="curve" smooth="yes"/>
      <point x="193" y="718"/>
      <point x="188" y="710"/>
      <point x="188" y="688" type="curve" smooth="yes"/>
      <point x="187" y="576"/>
      <point x="68" y="143"/>
    </contour>
  </outline>
</glyph>
<glyph name="J" format="1">
  <advance width="468"/>
  <unicode hex="004A"/>
  <outline>
    <contour>
      <point x="8" y="165" type="curve" smooth="yes"/>
      <point x="8" y="117"/>
      <point x="107" y="13"/>
      <point x="197" y="13" type="curve" smooth="yes"/>
      <point x="299" y="13"/>
      <point x="324" y="104"/>
      <point x="402" y="390" type="curve" smooth="yes"/>
      <point x="445" y="540"/>
      <point x="497" y="658"/>
      <point x="497" y="691" type="curve" smooth="yes"/>
      <point x="497" y="715"/>
      <point x="472" y="724"/>
      <point x="452" y="724" type="curve" smooth="yes"/>
      <point x="396" y="724"/>
      <point x="145" y="672"/>
      <point x="145" y="620" type="curve"/>
      <point x="145" y="606"/>
      <point x="158" y="595"/>
      <point x="182" y="595" type="curve" smooth="yes"/>
      <point x="215" y="595"/>
      <point x="314" y="627"/>
      <point x="401" y="640" type="curve"/>
      <point x="376" y="599"/>
      <point x="349" y="512"/>
      <point x="327" y="433" type="curve" smooth="yes"/>
      <point x="261" y="189"/>
      <point x="232" y="95"/>
      <point x="185" y="95" type="curve" smooth="yes"/>
      <point x="109" y="95"/>
      <point x="52" y="194"/>
      <point x="26" y="194" type="curve" smooth="yes"/>
      <point x="14" y="194"/>
      <point x="8" y="185"/>
    </contour>
  </outline>
</glyph>
<glyph name="K" format="1">
  <advance width="591"/>
  <unicode hex="004B"/>
  <outline>
    <contour>
      <point x="54" y="88" type="curve" smooth="yes"/>
      <point x="54" y="59"/>
      <point x="87" y="20"/>
      <point x="105" y="20" type="curve"/>
      <point x="121" y="20"/>
      <point x="145" y="143"/>
      <point x="179" y="267" type="curve" smooth="yes"/>
      <point x="227" y="437"/>
      <point x="261" y="589"/>
      <point x="261" y="625" type="curve" smooth="yes"/>
      <point x="261" y="667"/>
      <point x="226" y="718"/>
      <point x="203" y="718" type="curve" smooth="yes"/>
      <point x="188" y="718"/>
      <point x="184" y="710"/>
      <point x="184" y="686" type="curve" smooth="yes"/>
      <point x="184" y="569"/>
      <point x="54" y="159"/>
    </contour>
    <contour>
      <point x="584" y="675" type="curve" smooth="yes"/>
      <point x="584" y="689"/>
      <point x="558" y="712"/>
      <point x="529" y="712" type="curve" smooth="yes"/>
      <point x="470" y="712"/>
      <point x="65" y="257"/>
      <point x="65" y="93" type="curve" smooth="yes"/>
      <point x="65" y="63"/>
      <point x="95" y="20"/>
      <point x="106" y="20" type="curve" smooth="yes"/>
      <point x="123" y="20"/>
      <point x="165" y="257"/>
      <point x="245" y="324" type="curve"/>
      <point x="197" y="313" type="line"/>
      <point x="214" y="120"/>
      <point x="400" y="20"/>
      <point x="494" y="20" type="curve" smooth="yes"/>
      <point x="521" y="20"/>
      <point x="538" y="27"/>
      <point x="538" y="46" type="curve" smooth="yes"/>
      <point x="538" y="85"/>
      <point x="436" y="105"/>
      <point x="362" y="165" type="curve" smooth="yes"/>
      <point x="294" y="220"/>
      <point x="272" y="293"/>
      <point x="272" y="340" type="curve"/>
      <point x="407" y="523"/>
      <point x="584" y="640"/>
    </contour>
  </outline>
</glyph>
<glyph name="L" format="1">
  <advance width="546"/>
  <unicode hex="004C"/>
  <outline>
    <contour>
      <point x="302" y="704" type="move" name="top"/>
    </contour>
    <contour>
      <point x="220" y="725" type="curve" smooth="yes"/>
      <point x="203" y="725"/>
      <point x="199" y="716"/>
      <point x="199" y="695" type="curve" smooth="yes"/>
      <point x="199" y="566"/>
      <point x="62" y="201"/>
      <point x="62" y="109" type="curve" smooth="yes"/>
      <point x="62" y="61"/>
      <point x="117" y="17"/>
      <point x="181" y="17" type="curve" smooth="yes"/>
      <point x="319" y="17"/>
      <point x="492" y="76"/>
      <point x="492" y="133" type="curve" smooth="yes"/>
      <point x="492" y="145"/>
      <point x="490" y="150"/>
      <point x="476" y="150" type="curve" smooth="yes"/>
      <point x="450" y="150"/>
      <point x="332" y="101"/>
      <point x="178" y="101" type="curve" smooth="yes"/>
      <point x="163" y="101"/>
      <point x="152" y="109"/>
      <point x="152" y="125" type="curve" smooth="yes"/>
      <point x="152" y="146"/>
      <point x="163" y="190"/>
      <point x="195" y="293" type="curve" smooth="yes"/>
      <point x="238" y="435"/>
      <point x="281" y="583"/>
      <point x="281" y="647" type="curve" smooth="yes"/>
      <point x="281" y="687"/>
      <point x="240" y="725"/>
    </contour>
  </outline>
</glyph>
<glyph name="M" format="1">
  <advance width="789"/>
  <unicode hex="004D"/>
  <outline>
    <contour>
      <point x="283" y="643" type="curve" smooth="yes"/>
      <point x="280" y="674"/>
      <point x="221" y="718"/>
      <point x="206" y="718" type="curve" smooth="yes"/>
      <point x="189" y="718"/>
      <point x="185" y="710"/>
      <point x="185" y="688" type="curve" smooth="yes"/>
      <point x="185" y="571"/>
      <point x="56" y="162"/>
      <point x="56" y="90" type="curve" smooth="yes"/>
      <point x="56" y="66"/>
      <point x="88" y="20"/>
      <point x="104" y="20" type="curve" smooth="yes"/>
      <point x="118" y="20"/>
      <point x="150" y="143"/>
      <point x="185" y="267" type="curve" smooth="yes"/>
      <point x="202" y="329"/>
      <point x="226" y="429"/>
      <point x="238" y="505" type="curve"/>
      <point x="274" y="391"/>
      <point x="313" y="291"/>
      <point x="335" y="259" type="curve" smooth="yes"/>
      <point x="351" y="238"/>
      <point x="372" y="228"/>
      <point x="390" y="228" type="curve" smooth="yes"/>
      <point x="431" y="228"/>
      <point x="500" y="319"/>
      <point x="683" y="548" type="curve"/>
      <point x="627" y="396"/>
      <point x="574" y="162"/>
      <point x="574" y="98" type="curve" smooth="yes"/>
      <point x="574" y="56"/>
      <point x="596" y="20"/>
      <point x="614" y="20" type="curve" smooth="yes"/>
      <point x="636" y="20"/>
      <point x="658" y="154"/>
      <point x="699" y="309" type="curve" smooth="yes"/>
      <point x="743" y="466"/>
      <point x="783" y="593"/>
      <point x="783" y="647" type="curve" smooth="yes"/>
      <point x="783" y="675"/>
      <point x="748" y="707"/>
      <point x="726" y="707" type="curve" smooth="yes"/>
      <point x="684" y="707"/>
      <point x="563" y="525"/>
      <point x="399" y="330" type="curve"/>
      <point x="342" y="452"/>
      <point x="288" y="594"/>
    </contour>
  </outline>
</glyph>
<glyph name="N" format="1">
  <advance width="677"/>
  <unicode hex="004E"/>
  <outline>
    <contour>
      <point x="400" y="704" type="move" name="top"/>
    </contour>
    <contour>
      <point x="583" y="723" type="curve" smooth="yes"/>
      <point x="569" y="723"/>
      <point x="563" y="703"/>
      <point x="562" y="680" type="curve" smooth="yes"/>
      <point x="556" y="618"/>
      <point x="545" y="362"/>
      <point x="465" y="150" type="curve"/>
      <point x="394" y="306"/>
      <point x="284" y="608"/>
      <point x="261" y="662" type="curve" smooth="yes"/>
      <point x="249" y="693"/>
      <point x="216" y="721"/>
      <point x="202" y="721" type="curve" smooth="yes"/>
      <point x="189" y="721"/>
      <point x="185" y="713"/>
      <point x="185" y="689" type="curve" smooth="yes"/>
      <point x="181" y="570"/>
      <point x="53" y="149"/>
      <point x="53" y="79" type="curve" smooth="yes"/>
      <point x="53" y="55"/>
      <point x="87" y="17"/>
      <point x="103" y="17" type="curve" smooth="yes"/>
      <point x="122" y="17"/>
      <point x="141" y="127"/>
      <point x="239" y="506" type="curve"/>
      <point x="279" y="404"/>
      <point x="390" y="122"/>
      <point x="416" y="62" type="curve" smooth="yes"/>
      <point x="428" y="35"/>
      <point x="455" y="17"/>
      <point x="471" y="17" type="curve" smooth="yes"/>
      <point x="553" y="17"/>
      <point x="645" y="503"/>
      <point x="645" y="659" type="curve" smooth="yes"/>
      <point x="645" y="682"/>
      <point x="608" y="723"/>
    </contour>
  </outline>
</glyph>
<glyph name="O" format="1">
  <advance width="613"/>
  <unicode hex="004F"/>
  <outline>
    <contour>
      <point x="455" y="704" type="move" name="top"/>
    </contour>
    <contour>
      <point x="54" y="214" type="curve" smooth="yes"/>
      <point x="54" y="132"/>
      <point x="126" y="17"/>
      <point x="219" y="17" type="curve" smooth="yes"/>
      <point x="408" y="17"/>
      <point x="592" y="283"/>
      <point x="592" y="470" type="curve" smooth="yes"/>
      <point x="592" y="597"/>
      <point x="512" y="722"/>
      <point x="396" y="722" type="curve" smooth="yes"/>
      <point x="254" y="722"/>
      <point x="54" y="466"/>
    </contour>
    <contour>
      <point x="402" y="637" type="curve" smooth="yes"/>
      <point x="449" y="637"/>
      <point x="500" y="576"/>
      <point x="500" y="458" type="curve" smooth="yes"/>
      <point x="500" y="311"/>
      <point x="327" y="96"/>
      <point x="225" y="96" type="curve" smooth="yes"/>
      <point x="185" y="96"/>
      <point x="145" y="143"/>
      <point x="145" y="220" type="curve" smooth="yes"/>
      <point x="145" y="416"/>
      <point x="322" y="637"/>
    </contour>
  </outline>
</glyph>
<glyph name="P" format="1">
  <advance width="543"/>
  <unicode hex="0050"/>
  <outline>
    <contour>
      <point x="43" y="79" type="curve" smooth="yes"/>
      <point x="43" y="54"/>
      <point x="76" y="15"/>
      <point x="95" y="15" type="curve" smooth="yes"/>
      <point x="110" y="15"/>
      <point x="147" y="143"/>
      <point x="183" y="267" type="curve" smooth="yes"/>
      <point x="234" y="444"/>
      <point x="253" y="530"/>
      <point x="253" y="577" type="curve" smooth="yes"/>
      <point x="253" y="622"/>
      <point x="211" y="670"/>
      <point x="189" y="670" type="curve" smooth="yes"/>
      <point x="171" y="670"/>
      <point x="167" y="661"/>
      <point x="167" y="640" type="curve" smooth="yes"/>
      <point x="167" y="461"/>
      <point x="43" y="150"/>
    </contour>
    <contour>
      <point x="153" y="257" type="line"/>
      <point x="385" y="295"/>
      <point x="559" y="398"/>
      <point x="559" y="553" type="curve" smooth="yes"/>
      <point x="559" y="659"/>
      <point x="467" y="730"/>
      <point x="340" y="730" type="curve" smooth="yes"/>
      <point x="262" y="730"/>
      <point x="142" y="694"/>
      <point x="142" y="659" type="curve" smooth="yes"/>
      <point x="142" y="640"/>
      <point x="173" y="604"/>
      <point x="198" y="604" type="curve" smooth="yes"/>
      <point x="228" y="604"/>
      <point x="283" y="648"/>
      <point x="355" y="648" type="curve" smooth="yes"/>
      <point x="420" y="648"/>
      <point x="471" y="606"/>
      <point x="471" y="547" type="curve" smooth="yes"/>
      <point x="471" y="452"/>
      <point x="332" y="361"/>
      <point x="139" y="326" type="curve"/>
    </contour>
  </outline>
</glyph>
<glyph name="Q" format="1">
  <advance width="641"/>
  <unicode hex="0051"/>
  <outline>
    <contour>
      <point x="57" y="214" type="curve" smooth="yes"/>
      <point x="57" y="115"/>
      <point x="150" y="20"/>
      <point x="243" y="20" type="curve" smooth="yes"/>
      <point x="439" y="20"/>
      <point x="607" y="281"/>
      <point x="607" y="470" type="curve" smooth="yes"/>
      <point x="607" y="597"/>
      <point x="510" y="719"/>
      <point x="396" y="719" type="curve" smooth="yes"/>
      <point x="252" y="719"/>
      <point x="57" y="471"/>
    </contour>
    <contour>
      <point x="145" y="221" type="curve" smooth="yes"/>
      <point x="145" y="414"/>
      <point x="306" y="636"/>
      <point x="403" y="636" type="curve" smooth="yes"/>
      <point x="452" y="636"/>
      <point x="516" y="575"/>
      <point x="516" y="461" type="curve" smooth="yes"/>
      <point x="516" y="308"/>
      <point x="354" y="96"/>
      <point x="247" y="96" type="curve" smooth="yes"/>
      <point x="203" y="96"/>
      <point x="145" y="143"/>
    </contour>
    <contour>
      <point x="505" y="-116" type="curve" smooth="yes"/>
      <point x="505" y="-48"/>
      <point x="345" y="199"/>
      <point x="345" y="531" type="curve" smooth="yes"/>
      <point x="345" y="597"/>
      <point x="364" y="640"/>
      <point x="399" y="652" type="curve"/>
      <point x="388" y="680" type="line"/>
      <point x="301" y="645"/>
      <point x="263" y="580"/>
      <point x="263" y="477" type="curve" smooth="yes"/>
      <point x="263" y="297"/>
      <point x="406" y="-139"/>
      <point x="480" y="-139" type="curve" smooth="yes"/>
      <point x="495" y="-139"/>
      <point x="505" y="-133"/>
    </contour>
  </outline>
</glyph>
<glyph name="R" format="1">
  <advance width="584"/>
  <unicode hex="0052"/>
  <outline>
    <contour>
      <point x="375" y="704" type="move" name="top"/>
    </contour>
    <contour>
      <point x="338" y="721" type="curve" smooth="yes"/>
      <point x="243" y="721"/>
      <point x="132" y="679"/>
      <point x="132" y="649" type="curve" smooth="yes"/>
      <point x="132" y="626"/>
      <point x="160" y="588"/>
      <point x="180" y="588" type="curve" smooth="yes"/>
      <point x="213" y="588"/>
      <point x="273" y="632"/>
      <point x="355" y="632" type="curve" smooth="yes"/>
      <point x="420" y="632"/>
      <point x="463" y="612"/>
      <point x="463" y="570" type="curve" smooth="yes"/>
      <point x="463" y="435"/>
      <point x="188" y="381"/>
      <point x="189" y="323" type="curve" smooth="yes"/>
      <point x="189" y="240"/>
      <point x="411" y="17"/>
      <point x="501" y="17" type="curve" smooth="yes"/>
      <point x="526" y="17"/>
      <point x="534" y="26"/>
      <point x="534" y="41" type="curve" smooth="yes"/>
      <point x="534" y="64"/>
      <point x="474" y="107"/>
      <point x="417" y="158" type="curve" smooth="yes"/>
      <point x="358" y="213"/>
      <point x="287" y="278"/>
      <point x="287" y="307" type="curve" smooth="yes"/>
      <point x="287" y="333"/>
      <point x="554" y="395"/>
      <point x="554" y="570" type="curve" smooth="yes"/>
      <point x="554" y="670"/>
      <point x="459" y="721"/>
    </contour>
    <contour>
      <point x="100" y="16" type="curve" smooth="yes"/>
      <point x="114" y="16"/>
      <point x="145" y="139"/>
      <point x="181" y="257" type="curve" smooth="yes"/>
      <point x="235" y="433"/>
      <point x="251" y="519"/>
      <point x="251" y="567" type="curve" smooth="yes"/>
      <point x="251" y="611"/>
      <point x="209" y="660"/>
      <point x="187" y="660" type="curve" smooth="yes"/>
      <point x="170" y="660"/>
      <point x="166" y="651"/>
      <point x="166" y="629" type="curve" smooth="yes"/>
      <point x="166" y="451"/>
      <point x="47" y="150"/>
      <point x="47" y="79" type="curve" smooth="yes"/>
      <point x="47" y="54"/>
      <point x="80" y="16"/>
    </contour>
  </outline>
</glyph>
<glyph name="T" format="1">
  <advance width="535"/>
  <unicode hex="0054"/>
  <outline>
    <contour>
      <point x="362" y="834" type="move" name="top"/>
    </contour>
    <contour>
      <point x="213" y="0" type="move" name="cedilla"/>
    </contour>
    <contour>
      <point x="286" y="674" type="curve" smooth="yes"/>
      <point x="286" y="516"/>
      <point x="167" y="154"/>
      <point x="167" y="83" type="curve" smooth="yes"/>
      <point x="167" y="57"/>
      <point x="200" y="19"/>
      <point x="219" y="19" type="curve" smooth="yes"/>
      <point x="238" y="19"/>
      <point x="261" y="142"/>
      <point x="292" y="267" type="curve" smooth="yes"/>
      <point x="336" y="440"/>
      <point x="370" y="572"/>
      <point x="370" y="611" type="curve" smooth="yes"/>
      <point x="370" y="655"/>
      <point x="326" y="705"/>
      <point x="305" y="705" type="curve" smooth="yes"/>
      <point x="290" y="705"/>
      <point x="286" y="697"/>
    </contour>
    <contour>
      <point x="373" y="714" type="curve" smooth="yes"/>
      <point x="120" y="714"/>
      <point x="63" y="711"/>
      <point x="63" y="686" type="curve" smooth="yes"/>
      <point x="63" y="660"/>
      <point x="92" y="624"/>
      <point x="113" y="624" type="curve" smooth="yes"/>
      <point x="161" y="624"/>
      <point x="258" y="633"/>
      <point x="331" y="633" type="curve" smooth="yes"/>
      <point x="462" y="633"/>
      <point x="500" y="624"/>
      <point x="567" y="624" type="curve" smooth="yes"/>
      <point x="592" y="624"/>
      <point x="605" y="632"/>
      <point x="605" y="643" type="curve" smooth="yes"/>
      <point x="605" y="676"/>
      <point x="515" y="714"/>
    </contour>
  </outline>
</glyph>
<glyph name="U" format="1">
  <advance width="598"/>
  <unicode hex="0055"/>
  <outline>
    <contour>
      <point x="345" y="704" type="move" name="top"/>
    </contour>
    <contour>
      <point x="275" y="34" type="move" name="ogonek"/>
    </contour>
    <contour>
      <point x="189" y="719" type="curve" smooth="yes"/>
      <point x="173" y="719"/>
      <point x="169" y="711"/>
      <point x="169" y="689" type="curve" smooth="yes"/>
      <point x="169" y="563"/>
      <point x="85" y="367"/>
      <point x="85" y="206" type="curve" smooth="yes"/>
      <point x="85" y="112"/>
      <point x="154" y="11"/>
      <point x="241" y="11" type="curve" smooth="yes"/>
      <point x="416" y="11"/>
      <point x="569" y="283"/>
      <point x="569" y="596" type="curve" smooth="yes"/>
      <point x="569" y="677"/>
      <point x="509" y="719"/>
      <point x="486" y="719" type="curve" smooth="yes"/>
      <point x="472" y="719"/>
      <point x="468" y="713"/>
      <point x="468" y="698" type="curve" smooth="yes"/>
      <point x="468" y="667"/>
      <point x="477" y="636"/>
      <point x="477" y="562" type="curve" smooth="yes"/>
      <point x="477" y="310"/>
      <point x="335" y="96"/>
      <point x="249" y="96" type="curve" smooth="yes"/>
      <point x="203" y="96"/>
      <point x="173" y="147"/>
      <point x="173" y="222" type="curve" smooth="yes"/>
      <point x="173" y="331"/>
      <point x="254" y="549"/>
      <point x="254" y="636" type="curve" smooth="yes"/>
      <point x="254" y="679"/>
      <point x="208" y="719"/>
    </contour>
  </outline>
</glyph>
<glyph name="V" format="1">
  <advance width="532"/>
  <unicode hex="0056"/>
  <outline>
    <contour>
      <point x="164" y="642" type="curve" smooth="yes"/>
      <point x="147" y="687"/>
      <point x="113" y="718"/>
      <point x="86" y="718" type="curve" smooth="yes"/>
      <point x="75" y="718"/>
      <point x="69" y="709"/>
      <point x="69" y="687" type="curve" smooth="yes"/>
      <point x="69" y="618"/>
      <point x="149" y="172"/>
      <point x="187" y="77" type="curve" smooth="yes"/>
      <point x="200" y="45"/>
      <point x="226" y="13"/>
      <point x="243" y="13" type="curve" smooth="yes"/>
      <point x="282" y="13"/>
      <point x="323" y="146"/>
      <point x="429" y="357" type="curve" smooth="yes"/>
      <point x="524" y="548"/>
      <point x="593" y="637"/>
      <point x="593" y="682" type="curve" smooth="yes"/>
      <point x="593" y="700"/>
      <point x="566" y="718"/>
      <point x="545" y="718" type="curve" smooth="yes"/>
      <point x="501" y="718"/>
      <point x="319" y="361"/>
      <point x="239" y="123" type="curve"/>
      <point x="255" y="120" type="line"/>
      <point x="196" y="323"/>
      <point x="183" y="581"/>
    </contour>
  </outline>
</glyph>
<glyph name="W" format="1">
  <advance width="782"/>
  <unicode hex="0057"/>
  <outline>
    <contour>
      <point x="735" y="392" type="curve" smooth="yes"/>
      <point x="735" y="567"/>
      <point x="663" y="719"/>
      <point x="498" y="719" type="curve" smooth="yes"/>
      <point x="466" y="719"/>
      <point x="450" y="712"/>
      <point x="450" y="690" type="curve" smooth="yes"/>
      <point x="450" y="670"/>
      <point x="485" y="627"/>
      <point x="524" y="627" type="curve" smooth="yes"/>
      <point x="608" y="627"/>
      <point x="646" y="507"/>
      <point x="646" y="404" type="curve" smooth="yes"/>
      <point x="646" y="262"/>
      <point x="584" y="113"/>
      <point x="507" y="113" type="curve" smooth="yes"/>
      <point x="434" y="113"/>
      <point x="458" y="413"/>
      <point x="401" y="413" type="curve" smooth="yes"/>
      <point x="354" y="413"/>
      <point x="219" y="252"/>
      <point x="142" y="113" type="curve"/>
      <point x="153" y="113" type="line"/>
      <point x="164" y="304"/>
      <point x="229" y="590"/>
      <point x="229" y="641" type="curve" smooth="yes"/>
      <point x="229" y="677"/>
      <point x="175" y="718"/>
      <point x="148" y="718" type="curve" smooth="yes"/>
      <point x="135" y="718"/>
      <point x="126" y="709"/>
      <point x="126" y="681" type="curve" smooth="yes"/>
      <point x="126" y="472"/>
      <point x="72" y="220"/>
      <point x="72" y="102" type="curve" smooth="yes"/>
      <point x="72" y="57"/>
      <point x="112" y="19"/>
      <point x="130" y="19" type="curve" smooth="yes"/>
      <point x="157" y="19"/>
      <point x="198" y="55"/>
      <point x="283" y="173" type="curve" smooth="yes"/>
      <point x="324" y="230"/>
      <point x="359" y="280"/>
      <point x="402" y="338" type="curve"/>
      <point x="370" y="330" type="line"/>
      <point x="379" y="152"/>
      <point x="408" y="20"/>
      <point x="505" y="20" type="curve" smooth="yes"/>
      <point x="629" y="20"/>
      <point x="735" y="208"/>
    </contour>
  </outline>
</glyph>
<glyph name="X" format="1">
  <advance width="624"/>
  <unicode hex="0058"/>
  <outline>
    <contour>
      <point x="136" y="719" type="curve" smooth="yes"/>
      <point x="125" y="719"/>
      <point x="122" y="707"/>
      <point x="122" y="692" type="curve" smooth="yes"/>
      <point x="122" y="527"/>
      <point x="433" y="19"/>
      <point x="506" y="19" type="curve" smooth="yes"/>
      <point x="518" y="19"/>
      <point x="532" y="29"/>
      <point x="532" y="52" type="curve" smooth="yes"/>
      <point x="532" y="117"/>
      <point x="222" y="474"/>
      <point x="222" y="671" type="curve" smooth="yes"/>
      <point x="222" y="698"/>
      <point x="172" y="719"/>
    </contour>
    <contour>
      <point x="626" y="659" type="curve" smooth="yes"/>
      <point x="626" y="678"/>
      <point x="589" y="715"/>
      <point x="574" y="715" type="curve" smooth="yes"/>
      <point x="538" y="715"/>
      <point x="492" y="672"/>
      <point x="338" y="456" type="curve" smooth="yes"/>
      <point x="217" y="288"/>
      <point x="92" y="138"/>
      <point x="49" y="92" type="curve" smooth="yes"/>
      <point x="33" y="75"/>
      <point x="25" y="70"/>
      <point x="25" y="58" type="curve" smooth="yes"/>
      <point x="25" y="42"/>
      <point x="54" y="20"/>
      <point x="74" y="20" type="curve" smooth="yes"/>
      <point x="126" y="20"/>
      <point x="205" y="148"/>
      <point x="356" y="340" type="curve" smooth="yes"/>
      <point x="471" y="488"/>
      <point x="539" y="575"/>
      <point x="575" y="610" type="curve" smooth="yes"/>
      <point x="602" y="636"/>
      <point x="626" y="643"/>
    </contour>
  </outline>
</glyph>
<glyph name="Y" format="1">
  <advance width="575"/>
  <unicode hex="0059"/>
  <outline>
    <contour>
      <point x="341" y="704" type="move" name="top"/>
    </contour>
    <contour>
      <point x="214" y="499" type="curve" smooth="yes"/>
      <point x="167" y="598"/>
      <point x="168" y="716"/>
      <point x="132" y="716" type="curve" smooth="yes"/>
      <point x="102" y="716"/>
      <point x="92" y="687"/>
      <point x="92" y="643" type="curve" smooth="yes"/>
      <point x="92" y="512"/>
      <point x="179" y="327"/>
      <point x="302" y="295" type="curve"/>
      <point x="246" y="187"/>
      <point x="190" y="84"/>
      <point x="190" y="45" type="curve" smooth="yes"/>
      <point x="190" y="21"/>
      <point x="198" y="9"/>
      <point x="212" y="9" type="curve" smooth="yes"/>
      <point x="245" y="9"/>
      <point x="291" y="99"/>
      <point x="362" y="232" type="curve" smooth="yes"/>
      <point x="463" y="427"/>
      <point x="607" y="618"/>
      <point x="607" y="663" type="curve" smooth="yes"/>
      <point x="607" y="693"/>
      <point x="589" y="716"/>
      <point x="560" y="716" type="curve" smooth="yes"/>
      <point x="510" y="716"/>
      <point x="370" y="373"/>
      <point x="327" y="373" type="curve" smooth="yes"/>
      <point x="300" y="373"/>
      <point x="252" y="417"/>
    </contour>
  </outline>
</glyph>
<glyph name="Z" format="1">
  <advance width="620"/>
  <unicode hex="005A"/>
  <outline>
    <contour>
      <point x="375" y="704" type="move" name="top"/>
    </contour>
    <contour>
      <point x="467" y="680" type="curve" smooth="yes"/>
      <point x="413" y="698"/>
      <point x="358" y="710"/>
      <point x="271" y="710" type="curve" smooth="yes"/>
      <point x="172" y="710"/>
      <point x="123" y="688"/>
      <point x="124" y="673" type="curve" smooth="yes"/>
      <point x="124" y="650"/>
      <point x="157" y="608"/>
      <point x="188" y="608" type="curve" smooth="yes"/>
      <point x="220" y="608"/>
      <point x="252" y="623"/>
      <point x="329" y="623" type="curve" smooth="yes"/>
      <point x="404" y="623"/>
      <point x="479" y="605"/>
      <point x="479" y="579" type="curve" smooth="yes"/>
      <point x="478" y="489"/>
      <point x="60" y="242"/>
      <point x="59" y="124" type="curve" smooth="yes"/>
      <point x="59" y="82"/>
      <point x="106" y="21"/>
      <point x="160" y="21" type="curve" smooth="yes"/>
      <point x="330" y="21"/>
      <point x="537" y="74"/>
      <point x="537" y="116" type="curve" smooth="yes"/>
      <point x="537" y="133"/>
      <point x="528" y="140"/>
      <point x="502" y="140" type="curve" smooth="yes"/>
      <point x="429" y="140"/>
      <point x="283" y="107"/>
      <point x="183" y="107" type="curve" smooth="yes"/>
      <point x="165" y="107"/>
      <point x="157" y="120"/>
      <point x="157" y="130" type="curve" smooth="yes"/>
      <point x="157" y="186"/>
      <point x="562" y="442"/>
      <point x="562" y="571" type="curve" smooth="yes"/>
      <point x="562" y="606"/>
      <point x="522" y="662"/>
    </contour>
  </outline>
</glyph>
<glyph name="bracketleft" format="1">
  <advance width="453"/>
  <unicode hex="005B"/>
  <outline>
    <contour>
      <point x="550" y="768" type="curve" smooth="yes"/>
      <point x="550" y="798"/>
      <point x="480" y="802"/>
      <point x="426" y="802" type="curve" smooth="yes"/>
      <point x="332" y="802"/>
      <point x="271" y="795"/>
      <point x="269" y="760" type="curve" smooth="yes"/>
      <point x="269" y="738"/>
      <point x="291" y="708"/>
      <point x="308" y="708" type="curve" smooth="yes"/>
      <point x="329" y="708"/>
      <point x="358" y="718"/>
      <point x="397" y="725" type="curve" smooth="yes"/>
      <point x="498" y="739"/>
      <point x="550" y="737"/>
    </contour>
    <contour>
      <point x="355" y="708" type="curve" smooth="yes"/>
      <point x="355" y="745"/>
      <point x="314" y="781"/>
      <point x="293" y="781" type="curve" smooth="yes"/>
      <point x="282" y="781"/>
      <point x="268" y="769"/>
      <point x="268" y="751" type="curve" smooth="yes"/>
      <point x="268" y="615"/>
      <point x="75" y="103"/>
      <point x="75" y="19" type="curve" smooth="yes"/>
      <point x="75" y="-29"/>
      <point x="130" y="-65"/>
      <point x="189" y="-65" type="curve" smooth="yes"/>
      <point x="244" y="-65"/>
      <point x="362" y="-24"/>
      <point x="362" y="13" type="curve" smooth="yes"/>
      <point x="362" y="24"/>
      <point x="358" y="31"/>
      <point x="343" y="31" type="curve" smooth="yes"/>
      <point x="318" y="31"/>
      <point x="243" y="18"/>
      <point x="192" y="18" type="curve" smooth="yes"/>
      <point x="178" y="18"/>
      <point x="171" y="24"/>
      <point x="171" y="37" type="curve" smooth="yes"/>
      <point x="171" y="58"/>
      <point x="187" y="113"/>
      <point x="235" y="263" type="curve" smooth="yes"/>
      <point x="285" y="416"/>
      <point x="355" y="643"/>
    </contour>
  </outline>
</glyph>
<glyph name="backslash" format="1">
  <advance width="600"/>
  <unicode hex="005C"/>
  <outline>
    <contour>
      <point x="521" y="-20" type="curve" smooth="yes"/>
      <point x="521" y="29"/>
      <point x="388" y="343"/>
      <point x="205" y="767" type="curve" smooth="yes"/>
      <point x="196" y="787"/>
      <point x="195" y="796"/>
      <point x="181" y="796" type="curve" smooth="yes"/>
      <point x="166" y="796"/>
      <point x="124" y="744"/>
      <point x="124" y="715" type="curve" smooth="yes"/>
      <point x="124" y="661"/>
      <point x="223" y="487"/>
      <point x="305" y="290" type="curve" smooth="yes"/>
      <point x="419" y="14"/>
      <point x="458" y="-77"/>
      <point x="474" y="-77" type="curve" smooth="yes"/>
      <point x="490" y="-77"/>
      <point x="521" y="-38"/>
    </contour>
  </outline>
</glyph>
<glyph name="bracketright" format="1">
  <advance width="450"/>
  <unicode hex="005D"/>
  <outline>
    <contour>
      <point x="172" y="675" type="curve" smooth="yes"/>
      <point x="199" y="673"/>
      <point x="230" y="674"/>
      <point x="261" y="674" type="curve" smooth="yes"/>
      <point x="328" y="674"/>
      <point x="343" y="669"/>
      <point x="375" y="669" type="curve" smooth="yes"/>
      <point x="396" y="669"/>
      <point x="410" y="688"/>
      <point x="410" y="711" type="curve" smooth="yes"/>
      <point x="410" y="744"/>
      <point x="366" y="754"/>
      <point x="295" y="754" type="curve" smooth="yes"/>
      <point x="217" y="754"/>
      <point x="128" y="734"/>
      <point x="128" y="697" type="curve" smooth="yes"/>
      <point x="128" y="682"/>
      <point x="148" y="677"/>
    </contour>
    <contour>
      <point x="164" y="-75" type="curve" smooth="yes"/>
      <point x="235" y="-75"/>
      <point x="265" y="-52"/>
      <point x="279" y="3" type="curve" smooth="yes"/>
      <point x="311" y="137"/>
      <point x="410" y="568"/>
      <point x="410" y="706" type="curve" smooth="yes"/>
      <point x="410" y="724"/>
      <point x="396" y="736"/>
      <point x="385" y="736" type="curve" smooth="yes"/>
      <point x="364" y="736"/>
      <point x="312" y="699"/>
      <point x="312" y="662" type="curve" smooth="yes"/>
      <point x="312" y="546"/>
      <point x="194" y="72"/>
      <point x="184" y="31" type="curve" smooth="yes"/>
      <point x="181" y="15"/>
      <point x="172" y="9"/>
      <point x="154" y="9" type="curve" smooth="yes"/>
      <point x="104" y="9"/>
      <point x="55" y="21"/>
      <point x="19" y="21" type="curve" smooth="yes"/>
      <point x="5" y="21"/>
      <point x="-5" y="17"/>
      <point x="-5" y="3" type="curve" smooth="yes"/>
      <point x="-5" y="-37"/>
      <point x="98" y="-75"/>
    </contour>
  </outline>
</glyph>
<glyph name="asciicircum" format="1">
  <advance width="422"/>
  <unicode hex="005E"/>
  <outline>
    <contour>
      <point x="55" y="588" type="curve" smooth="yes"/>
      <point x="55" y="574"/>
      <point x="74" y="557"/>
      <point x="93" y="557" type="curve" smooth="yes"/>
      <point x="118" y="557"/>
      <point x="131" y="601"/>
      <point x="161" y="656" type="curve" smooth="yes"/>
      <point x="187" y="703"/>
      <point x="213" y="737"/>
      <point x="253" y="772" type="curve"/>
      <point x="221" y="764" type="line"/>
      <point x="252" y="699"/>
      <point x="323" y="553"/>
      <point x="360" y="553" type="curve" smooth="yes"/>
      <point x="371" y="553"/>
      <point x="376" y="557"/>
      <point x="376" y="571" type="curve" smooth="yes"/>
      <point x="376" y="584"/>
      <point x="358" y="624"/>
      <point x="334" y="683" type="curve" smooth="yes"/>
      <point x="297" y="771"/>
      <point x="295" y="803"/>
      <point x="277" y="822" type="curve" smooth="yes"/>
      <point x="266" y="834"/>
      <point x="232" y="845"/>
      <point x="213" y="845" type="curve" smooth="yes"/>
      <point x="168" y="845"/>
      <point x="55" y="655"/>
    </contour>
  </outline>
</glyph>
<glyph name="underscore" format="1">
  <advance width="608"/>
  <unicode hex="005F"/>
  <outline>
    <contour>
      <point x="509" y="55" type="curve" smooth="yes"/>
      <point x="455" y="65"/>
      <point x="377" y="67"/>
      <point x="308" y="67" type="curve" smooth="yes"/>
      <point x="180" y="67"/>
      <point x="44" y="56"/>
      <point x="44" y="32" type="curve" smooth="yes"/>
      <point x="44" y="8"/>
      <point x="65" y="-21"/>
      <point x="84" y="-21" type="curve" smooth="yes"/>
      <point x="131" y="-21"/>
      <point x="206" y="-11"/>
      <point x="301" y="-9" type="curve" smooth="yes"/>
      <point x="434" y="-4"/>
      <point x="553" y="-2"/>
      <point x="553" y="26" type="curve" smooth="yes"/>
      <point x="553" y="39"/>
      <point x="537" y="50"/>
    </contour>
  </outline>
</glyph>
<glyph name="grave" format="1">
  <advance width="213"/>
  <unicode hex="0060"/>
  <outline>
    <contour>
      <point x="95" y="711" type="curve" smooth="yes"/>
      <point x="135" y="684"/>
      <point x="158" y="658"/>
      <point x="176" y="658" type="curve" smooth="yes"/>
      <point x="190" y="658"/>
      <point x="203" y="672"/>
      <point x="203" y="687" type="curve" smooth="yes"/>
      <point x="203" y="706"/>
      <point x="190" y="718"/>
      <point x="134" y="777" type="curve" smooth="yes"/>
      <point x="95" y="816"/>
      <point x="76" y="844"/>
      <point x="58" y="844" type="curve" smooth="yes"/>
      <point x="33" y="844"/>
      <point x="10" y="813"/>
      <point x="10" y="788" type="curve" smooth="yes"/>
      <point x="10" y="766"/>
      <point x="42" y="748"/>
    </contour>
  </outline>
</glyph>
<glyph name="a" format="1">
  <advance width="469"/>
  <unicode hex="0061"/>
  <outline>
    <contour>
      <point x="325" y="483" type="move" name="top"/>
    </contour>
    <contour>
      <point x="314" y="-18" type="move" name="ogonek"/>
    </contour>
    <contour>
      <point x="297" y="511" type="curve" smooth="yes"/>
      <point x="165" y="511"/>
      <point x="7" y="255"/>
      <point x="7" y="136" type="curve" smooth="yes"/>
      <point x="7" y="79"/>
      <point x="82" y="15"/>
      <point x="142" y="15" type="curve" smooth="yes"/>
      <point x="225" y="15"/>
      <point x="328" y="136"/>
      <point x="366" y="225" type="curve"/>
      <point x="325" y="245" type="line"/>
      <point x="311" y="218"/>
      <point x="306" y="187"/>
      <point x="306" y="158" type="curve" smooth="yes"/>
      <point x="306" y="79"/>
      <point x="322" y="15"/>
      <point x="350" y="15" type="curve" smooth="yes"/>
      <point x="373" y="15"/>
      <point x="372" y="72"/>
      <point x="383" y="134" type="curve" smooth="yes"/>
      <point x="397" y="211"/>
      <point x="405" y="253"/>
      <point x="405" y="283" type="curve" smooth="yes"/>
      <point x="405" y="305"/>
      <point x="368" y="335"/>
      <point x="352" y="335" type="curve" smooth="yes"/>
      <point x="337" y="335"/>
      <point x="329" y="328"/>
      <point x="326" y="316" type="curve" smooth="yes"/>
      <point x="293" y="187"/>
      <point x="196" y="98"/>
      <point x="138" y="98" type="curve" smooth="yes"/>
      <point x="114" y="98"/>
      <point x="91" y="112"/>
      <point x="91" y="136" type="curve" smooth="yes"/>
      <point x="91" y="219"/>
      <point x="224" y="428"/>
      <point x="306" y="428" type="curve" smooth="yes"/>
      <point x="333" y="428"/>
      <point x="343" y="385"/>
      <point x="343" y="335" type="curve" smooth="yes"/>
      <point x="343" y="298"/>
      <point x="349" y="281"/>
      <point x="365" y="281" type="curve" smooth="yes"/>
      <point x="380" y="281"/>
      <point x="418" y="340"/>
      <point x="418" y="380" type="curve" smooth="yes"/>
      <point x="418" y="428"/>
      <point x="361" y="511"/>
    </contour>
  </outline>
</glyph>
<glyph name="b" format="1">
  <advance width="525"/>
  <unicode hex="0062"/>
  <outline>
    <contour>
      <point x="22" y="75" type="curve" smooth="yes"/>
      <point x="22" y="52"/>
      <point x="55" y="15"/>
      <point x="74" y="15" type="curve" smooth="yes"/>
      <point x="94" y="15"/>
      <point x="134" y="185"/>
      <point x="165" y="300" type="curve" smooth="yes"/>
      <point x="214" y="488"/>
      <point x="232" y="650"/>
      <point x="232" y="704" type="curve" smooth="yes"/>
      <point x="232" y="744"/>
      <point x="190" y="791"/>
      <point x="170" y="791" type="curve" smooth="yes"/>
      <point x="152" y="791"/>
      <point x="148" y="781"/>
      <point x="148" y="761" type="curve" smooth="yes"/>
      <point x="148" y="464"/>
      <point x="22" y="140"/>
    </contour>
    <contour>
      <point x="62" y="157" type="curve"/>
      <point x="106" y="81" type="line"/>
      <point x="162" y="245"/>
      <point x="292" y="426"/>
      <point x="387" y="426" type="curve" smooth="yes"/>
      <point x="414" y="426"/>
      <point x="423" y="403"/>
      <point x="423" y="367" type="curve" smooth="yes"/>
      <point x="423" y="234"/>
      <point x="318" y="92"/>
      <point x="233" y="92" type="curve" smooth="yes"/>
      <point x="191" y="92"/>
      <point x="133" y="130"/>
      <point x="98" y="218" type="curve"/>
      <point x="56" y="148" type="line"/>
      <point x="108" y="68"/>
      <point x="172" y="14"/>
      <point x="245" y="14" type="curve" smooth="yes"/>
      <point x="380" y="14"/>
      <point x="506" y="225"/>
      <point x="506" y="365" type="curve" smooth="yes"/>
      <point x="506" y="437"/>
      <point x="459" y="514"/>
      <point x="394" y="514" type="curve" smooth="yes"/>
      <point x="282" y="514"/>
      <point x="144" y="332"/>
    </contour>
  </outline>
</glyph>
<glyph name="c" format="1">
  <advance width="445"/>
  <unicode hex="0063"/>
  <outline>
    <contour>
      <point x="273" y="483" type="move" name="top"/>
    </contour>
    <contour>
      <point x="171" y="2" type="move" name="cedilla"/>
    </contour>
    <contour>
      <point x="312" y="511" type="curve" smooth="yes"/>
      <point x="181" y="511"/>
      <point x="32" y="301"/>
      <point x="32" y="163" type="curve" smooth="yes"/>
      <point x="32" y="85"/>
      <point x="117" y="15"/>
      <point x="193" y="15" type="curve" smooth="yes"/>
      <point x="272" y="15"/>
      <point x="390" y="83"/>
      <point x="390" y="121" type="curve" smooth="yes"/>
      <point x="390" y="134"/>
      <point x="384" y="140"/>
      <point x="371" y="140" type="curve" smooth="yes"/>
      <point x="338" y="140"/>
      <point x="313" y="98"/>
      <point x="195" y="98" type="curve" smooth="yes"/>
      <point x="147" y="98"/>
      <point x="121" y="125"/>
      <point x="121" y="165" type="curve" smooth="yes"/>
      <point x="121" y="259"/>
      <point x="246" y="426"/>
      <point x="319" y="426" type="curve" smooth="yes"/>
      <point x="355" y="426"/>
      <point x="372" y="390"/>
      <point x="398" y="390" type="curve" smooth="yes"/>
      <point x="407" y="390"/>
      <point x="415" y="398"/>
      <point x="415" y="409" type="curve" smooth="yes"/>
      <point x="415" y="440"/>
      <point x="373" y="511"/>
    </contour>
  </outline>
</glyph>
<glyph name="d" format="1">
  <advance width="499"/>
  <unicode hex="0064"/>
  <outline>
    <contour>
      <point x="437" y="761" type="curve" smooth="yes"/>
      <point x="428" y="531"/>
      <point x="297" y="133"/>
      <point x="297" y="68" type="curve" smooth="yes"/>
      <point x="297" y="42"/>
      <point x="327" y="15"/>
      <point x="344" y="15" type="curve" smooth="yes"/>
      <point x="365" y="15"/>
      <point x="409" y="186"/>
      <point x="439" y="307" type="curve" smooth="yes"/>
      <point x="486" y="491"/>
      <point x="522" y="675"/>
      <point x="522" y="704" type="curve" smooth="yes"/>
      <point x="522" y="744"/>
      <point x="479" y="791"/>
      <point x="459" y="791" type="curve" smooth="yes"/>
      <point x="441" y="791"/>
      <point x="437" y="781"/>
    </contour>
    <contour>
      <point x="133" y="15" type="curve" smooth="yes"/>
      <point x="244" y="15"/>
      <point x="417" y="223"/>
      <point x="417" y="293" type="curve" smooth="yes"/>
      <point x="417" y="316"/>
      <point x="393" y="334"/>
      <point x="381" y="334" type="curve" smooth="yes"/>
      <point x="368" y="334"/>
      <point x="360" y="330"/>
      <point x="357" y="318" type="curve" smooth="yes"/>
      <point x="327" y="189"/>
      <point x="192" y="95"/>
      <point x="144" y="95" type="curve" smooth="yes"/>
      <point x="121" y="95"/>
      <point x="100" y="110"/>
      <point x="100" y="135" type="curve" smooth="yes"/>
      <point x="100" y="234"/>
      <point x="194" y="428"/>
      <point x="286" y="428" type="curve" smooth="yes"/>
      <point x="321" y="428"/>
      <point x="349" y="372"/>
      <point x="349" y="300" type="curve" smooth="yes"/>
      <point x="349" y="275"/>
      <point x="357" y="260"/>
      <point x="371" y="260" type="curve" smooth="yes"/>
      <point x="388" y="260"/>
      <point x="396" y="297"/>
      <point x="396" y="331" type="curve" smooth="yes"/>
      <point x="396" y="429"/>
      <point x="357" y="511"/>
      <point x="279" y="511" type="curve" smooth="yes"/>
      <point x="132" y="511"/>
      <point x="18" y="254"/>
      <point x="18" y="138" type="curve" smooth="yes"/>
      <point x="18" y="83"/>
      <point x="72" y="15"/>
    </contour>
  </outline>
</glyph>
<glyph name="e" format="1">
  <advance width="450"/>
  <unicode hex="0065"/>
  <outline>
    <contour>
      <point x="264" y="483" type="move" name="top"/>
    </contour>
    <contour>
      <point x="260" y="10" type="move" name="ogonek"/>
    </contour>
    <contour>
      <point x="273" y="511" type="curve" smooth="yes"/>
      <point x="153" y="511"/>
      <point x="19" y="322"/>
      <point x="19" y="180" type="curve" smooth="yes"/>
      <point x="19" y="85"/>
      <point x="90" y="15"/>
      <point x="195" y="15" type="curve" smooth="yes"/>
      <point x="275" y="15"/>
      <point x="375" y="70"/>
      <point x="375" y="105" type="curve" smooth="yes"/>
      <point x="375" y="117"/>
      <point x="368" y="125"/>
      <point x="349" y="125" type="curve" smooth="yes"/>
      <point x="321" y="125"/>
      <point x="279" y="90"/>
      <point x="181" y="90" type="curve" smooth="yes"/>
      <point x="126" y="90"/>
      <point x="97" y="117"/>
      <point x="97" y="162" type="curve" smooth="yes"/>
      <point x="97" y="270"/>
      <point x="194" y="432"/>
      <point x="279" y="432" type="curve" smooth="yes"/>
      <point x="312" y="432"/>
      <point x="352" y="383"/>
      <point x="352" y="351" type="curve" smooth="yes"/>
      <point x="352" y="312"/>
      <point x="296" y="289"/>
      <point x="214" y="289" type="curve" smooth="yes"/>
      <point x="180" y="289"/>
      <point x="131" y="296"/>
      <point x="95" y="307" type="curve"/>
      <point x="84" y="248" type="line"/>
      <point x="128" y="235"/>
      <point x="179" y="225"/>
      <point x="237" y="225" type="curve" smooth="yes"/>
      <point x="338" y="225"/>
      <point x="430" y="274"/>
      <point x="430" y="341" type="curve" smooth="yes"/>
      <point x="430" y="414"/>
      <point x="357" y="511"/>
    </contour>
  </outline>
</glyph>
<glyph name="f" format="1">
  <advance width="376"/>
  <unicode hex="0066"/>
  <outline>
    <contour>
      <point x="461" y="656" type="curve" smooth="yes"/>
      <point x="461" y="717"/>
      <point x="417" y="784"/>
      <point x="347" y="784" type="curve" smooth="yes"/>
      <point x="252" y="784"/>
      <point x="203" y="705"/>
      <point x="171" y="524" type="curve" smooth="yes"/>
      <point x="119" y="251"/>
      <point x="60" y="94"/>
      <point x="60" y="66" type="curve" smooth="yes"/>
      <point x="60" y="46"/>
      <point x="86" y="13"/>
      <point x="103" y="13" type="curve" smooth="yes"/>
      <point x="141" y="13"/>
      <point x="205" y="307"/>
      <point x="252" y="498" type="curve" smooth="yes"/>
      <point x="276" y="599"/>
      <point x="298" y="706"/>
      <point x="348" y="706" type="curve" smooth="yes"/>
      <point x="400" y="706"/>
      <point x="392" y="598"/>
      <point x="433" y="598" type="curve" smooth="yes"/>
      <point x="448" y="598"/>
      <point x="461" y="614"/>
    </contour>
    <contour>
      <point x="76" y="432" type="curve" smooth="yes"/>
      <point x="48" y="424"/>
      <point x="31" y="414"/>
      <point x="31" y="402" type="curve" smooth="yes"/>
      <point x="31" y="379"/>
      <point x="58" y="357"/>
      <point x="81" y="357" type="curve" smooth="yes"/>
      <point x="107" y="357"/>
      <point x="147" y="371"/>
      <point x="231" y="386" type="curve" smooth="yes"/>
      <point x="333" y="403"/>
      <point x="387" y="412"/>
      <point x="387" y="440" type="curve" smooth="yes"/>
      <point x="387" y="455"/>
      <point x="365" y="468"/>
      <point x="326" y="468" type="curve" smooth="yes"/>
      <point x="260" y="468"/>
      <point x="173" y="458"/>
    </contour>
  </outline>
</glyph>
<glyph name="g" format="1">
  <advance width="475"/>
  <unicode hex="0067"/>
  <outline>
    <contour>
      <point x="330" y="483" type="move" name="top"/>
    </contour>
    <contour>
      <point x="416" y="335" type="curve" smooth="yes"/>
      <point x="416" y="405"/>
      <point x="389" y="511"/>
      <point x="301" y="511" type="curve" smooth="yes"/>
      <point x="164" y="511"/>
      <point x="24" y="257"/>
      <point x="24" y="138" type="curve" smooth="yes"/>
      <point x="24" y="81"/>
      <point x="80" y="15"/>
      <point x="141" y="15" type="curve" smooth="yes"/>
      <point x="236" y="15"/>
      <point x="427" y="183"/>
      <point x="427" y="285" type="curve" smooth="yes"/>
      <point x="427" y="310"/>
      <point x="404" y="335"/>
      <point x="387" y="335" type="curve" smooth="yes"/>
      <point x="377" y="335"/>
      <point x="367" y="328"/>
      <point x="364" y="316" type="curve" smooth="yes"/>
      <point x="332" y="197"/>
      <point x="210" y="98"/>
      <point x="144" y="98" type="curve" smooth="yes"/>
      <point x="121" y="98"/>
      <point x="105" y="113"/>
      <point x="105" y="136" type="curve" smooth="yes"/>
      <point x="105" y="219"/>
      <point x="222" y="428"/>
      <point x="306" y="428" type="curve" smooth="yes"/>
      <point x="340" y="428"/>
      <point x="346" y="379"/>
      <point x="352" y="330" type="curve" smooth="yes"/>
      <point x="356" y="295"/>
      <point x="362" y="272"/>
      <point x="380" y="272" type="curve" smooth="yes"/>
      <point x="397" y="272"/>
      <point x="416" y="293"/>
    </contour>
    <contour>
      <point x="414" y="239" type="curve"/>
      <point x="350" y="269" type="line"/>
      <point x="242" y="88"/>
      <point x="249" y="-179"/>
      <point x="151" y="-179" type="curve" smooth="yes"/>
      <point x="63" y="-179"/>
      <point x="49" y="-84"/>
      <point x="14" y="-84" type="curve" smooth="yes"/>
      <point x="0" y="-84"/>
      <point x="-15" y="-112"/>
      <point x="-15" y="-132" type="curve" smooth="yes"/>
      <point x="-15" y="-177"/>
      <point x="51" y="-247"/>
      <point x="153" y="-247" type="curve" smooth="yes"/>
      <point x="325" y="-247"/>
      <point x="307" y="46"/>
    </contour>
  </outline>
</glyph>
<glyph name="h" format="1">
  <advance width="536"/>
  <unicode hex="0068"/>
  <outline>
    <contour>
      <point x="173" y="791" type="curve" smooth="yes"/>
      <point x="155" y="791"/>
      <point x="149" y="780"/>
      <point x="149" y="752" type="curve" smooth="yes"/>
      <point x="149" y="715"/>
      <point x="133" y="577"/>
      <point x="97" y="397" type="curve" smooth="yes"/>
      <point x="65" y="231"/>
      <point x="23" y="110"/>
      <point x="23" y="77" type="curve" smooth="yes"/>
      <point x="23" y="54"/>
      <point x="58" y="15"/>
      <point x="77" y="15" type="curve" smooth="yes"/>
      <point x="96" y="15"/>
      <point x="137" y="89"/>
      <point x="189" y="171" type="curve" smooth="yes"/>
      <point x="270" y="296"/>
      <point x="333" y="397"/>
      <point x="381" y="397" type="curve" smooth="yes"/>
      <point x="393" y="397"/>
      <point x="409" y="380"/>
      <point x="409" y="355" type="curve" smooth="yes"/>
      <point x="409" y="328"/>
      <point x="400" y="288"/>
      <point x="388" y="246" type="curve" smooth="yes"/>
      <point x="366" y="164"/>
      <point x="332" y="88"/>
      <point x="332" y="45" type="curve" smooth="yes"/>
      <point x="332" y="24"/>
      <point x="340" y="15"/>
      <point x="354" y="15" type="curve" smooth="yes"/>
      <point x="396" y="15"/>
      <point x="439" y="124"/>
      <point x="471" y="241" type="curve" smooth="yes"/>
      <point x="486" y="295"/>
      <point x="496" y="344"/>
      <point x="496" y="383" type="curve" smooth="yes"/>
      <point x="496" y="436"/>
      <point x="434" y="511"/>
      <point x="401" y="511" type="curve" smooth="yes"/>
      <point x="339" y="511"/>
      <point x="254" y="416"/>
      <point x="118" y="169" type="curve"/>
      <point x="193" y="393"/>
      <point x="235" y="626"/>
      <point x="235" y="703" type="curve" smooth="yes"/>
      <point x="235" y="740"/>
      <point x="198" y="791"/>
    </contour>
  </outline>
</glyph>
<glyph name="i" format="1">
  <advance width="238"/>
  <unicode hex="0069"/>
  <outline>
    <contour>
      <point x="48" y="-17" type="move" name="ogonek"/>
    </contour>
    <contour>
      <point x="154" y="511" type="curve" smooth="yes"/>
      <point x="126" y="511"/>
      <point x="112" y="396"/>
      <point x="81" y="272" type="curve" smooth="yes"/>
      <point x="58" y="176"/>
      <point x="28" y="85"/>
      <point x="28" y="55" type="curve" smooth="yes"/>
      <point x="28" y="33"/>
      <point x="43" y="16"/>
      <point x="62" y="16" type="curve" smooth="yes"/>
      <point x="76" y="16"/>
      <point x="92" y="27"/>
      <point x="105" y="66" type="curve" smooth="yes"/>
      <point x="166" y="256"/>
      <point x="207" y="415"/>
      <point x="207" y="444" type="curve" smooth="yes"/>
      <point x="207" y="471"/>
      <point x="181" y="511"/>
    </contour>
    <contour>
      <point x="270" y="601" type="curve" smooth="yes"/>
      <point x="270" y="635"/>
      <point x="231" y="709"/>
      <point x="207" y="709" type="curve" smooth="yes"/>
      <point x="185" y="709"/>
      <point x="159" y="679"/>
      <point x="159" y="655" type="curve" smooth="yes"/>
      <point x="159" y="626"/>
      <point x="210" y="575"/>
      <point x="242" y="575" type="curve" smooth="yes"/>
      <point x="255" y="575"/>
      <point x="270" y="587"/>
    </contour>
  </outline>
</glyph>
<glyph name="j" format="1">
  <advance width="254"/>
  <unicode hex="006A"/>
  <outline>
    <contour>
      <point x="220" y="709" type="curve" smooth="yes"/>
      <point x="198" y="709"/>
      <point x="172" y="679"/>
      <point x="172" y="655" type="curve" smooth="yes"/>
      <point x="172" y="626"/>
      <point x="224" y="575"/>
      <point x="256" y="575" type="curve" smooth="yes"/>
      <point x="267" y="575"/>
      <point x="283" y="587"/>
      <point x="283" y="601" type="curve" smooth="yes"/>
      <point x="283" y="635"/>
      <point x="245" y="709"/>
    </contour>
    <contour>
      <point x="-72" y="-176" type="curve" smooth="yes"/>
      <point x="-97" y="-176"/>
      <point x="-117" y="-160"/>
      <point x="-137" y="-135" type="curve" smooth="yes"/>
      <point x="-158" y="-111"/>
      <point x="-176" y="-83"/>
      <point x="-191" y="-83" type="curve" smooth="yes"/>
      <point x="-204" y="-83"/>
      <point x="-221" y="-114"/>
      <point x="-221" y="-131" type="curve" smooth="yes"/>
      <point x="-221" y="-167"/>
      <point x="-147" y="-245"/>
      <point x="-76" y="-245" type="curve" smooth="yes"/>
      <point x="0" y="-245"/>
      <point x="51" y="-194"/>
      <point x="80" y="-88" type="curve" smooth="yes"/>
      <point x="167" y="254"/>
      <point x="213" y="412"/>
      <point x="213" y="443" type="curve" smooth="yes"/>
      <point x="213" y="477"/>
      <point x="182" y="511"/>
      <point x="160" y="511" type="curve" smooth="yes"/>
      <point x="150" y="511"/>
      <point x="142" y="499"/>
      <point x="131" y="462" type="curve" smooth="yes"/>
      <point x="36" y="106"/>
      <point x="5" y="-176"/>
    </contour>
  </outline>
</glyph>
<glyph name="k" format="1">
  <advance width="469"/>
  <unicode hex="006B"/>
  <outline>
    <contour>
      <point x="159" y="763" type="curve" smooth="yes"/>
      <point x="159" y="479"/>
      <point x="29" y="128"/>
      <point x="29" y="80" type="curve" smooth="yes"/>
      <point x="29" y="57"/>
      <point x="60" y="15"/>
      <point x="80" y="15" type="curve" smooth="yes"/>
      <point x="104" y="15"/>
      <point x="150" y="77"/>
      <point x="259" y="225" type="curve"/>
      <point x="217" y="210" type="line"/>
      <point x="216" y="196"/>
      <point x="224" y="177"/>
      <point x="232" y="159" type="curve" smooth="yes"/>
      <point x="250" y="82"/>
      <point x="343" y="15"/>
      <point x="397" y="15" type="curve" smooth="yes"/>
      <point x="418" y="15"/>
      <point x="433" y="24"/>
      <point x="433" y="40" type="curve" smooth="yes"/>
      <point x="433" y="72"/>
      <point x="296" y="101"/>
      <point x="296" y="209" type="curve" smooth="yes"/>
      <point x="296" y="312"/>
      <point x="473" y="433"/>
      <point x="473" y="457" type="curve" smooth="yes"/>
      <point x="473" y="477"/>
      <point x="444" y="511"/>
      <point x="420" y="511" type="curve" smooth="yes"/>
      <point x="391" y="511"/>
      <point x="269" y="363"/>
      <point x="120" y="151" type="curve"/>
      <point x="183" y="334"/>
      <point x="242" y="581"/>
      <point x="242" y="704" type="curve" smooth="yes"/>
      <point x="242" y="744"/>
      <point x="202" y="791"/>
      <point x="182" y="791" type="curve" smooth="yes"/>
      <point x="163" y="791"/>
      <point x="159" y="783"/>
    </contour>
  </outline>
</glyph>
<glyph name="l" format="1">
  <advance width="245"/>
  <unicode hex="006C"/>
  <outline>
    <contour>
      <point x="214" y="723" type="move" name="top"/>
    </contour>
    <contour>
      <point x="228" y="707" type="curve" smooth="yes"/>
      <point x="228" y="746"/>
      <point x="181" y="791"/>
      <point x="164" y="791" type="curve" smooth="yes"/>
      <point x="148" y="791"/>
      <point x="145" y="783"/>
      <point x="145" y="765" type="curve" smooth="yes"/>
      <point x="145" y="467"/>
      <point x="29" y="111"/>
      <point x="29" y="75" type="curve" smooth="yes"/>
      <point x="29" y="54"/>
      <point x="61" y="15"/>
      <point x="80" y="15" type="curve" smooth="yes"/>
      <point x="98" y="15"/>
      <point x="126" y="122"/>
      <point x="150" y="219" type="curve" smooth="yes"/>
      <point x="196" y="396"/>
      <point x="228" y="590"/>
    </contour>
  </outline>
</glyph>
<glyph name="m" format="1">
  <advance width="796"/>
  <unicode hex="006D"/>
  <outline>
    <contour>
      <point x="181" y="446" type="curve" smooth="yes"/>
      <point x="181" y="476"/>
      <point x="146" y="515"/>
      <point x="116" y="515" type="curve" smooth="yes"/>
      <point x="82" y="515"/>
      <point x="110" y="390"/>
      <point x="64" y="232" type="curve" smooth="yes"/>
      <point x="42" y="156"/>
      <point x="22" y="100"/>
      <point x="22" y="74" type="curve" smooth="yes"/>
      <point x="22" y="56"/>
      <point x="56" y="15"/>
      <point x="76" y="15" type="curve" smooth="yes"/>
      <point x="96" y="15"/>
      <point x="148" y="104"/>
      <point x="195" y="176" type="curve" smooth="yes"/>
      <point x="286" y="318"/>
      <point x="333" y="412"/>
      <point x="371" y="412" type="curve" smooth="yes"/>
      <point x="384" y="412"/>
      <point x="400" y="392"/>
      <point x="400" y="362" type="curve" smooth="yes"/>
      <point x="400" y="209"/>
      <point x="330" y="102"/>
      <point x="330" y="62" type="curve" smooth="yes"/>
      <point x="330" y="43"/>
      <point x="357" y="16"/>
      <point x="372" y="16" type="curve" smooth="yes"/>
      <point x="400" y="16"/>
      <point x="443" y="122"/>
      <point x="471" y="169" type="curve" smooth="yes"/>
      <point x="566" y="326"/>
      <point x="614" y="412"/>
      <point x="654" y="412" type="curve" smooth="yes"/>
      <point x="665" y="412"/>
      <point x="674" y="394"/>
      <point x="674" y="356" type="curve" smooth="yes"/>
      <point x="674" y="230"/>
      <point x="605" y="110"/>
      <point x="605" y="45" type="curve" smooth="yes"/>
      <point x="605" y="24"/>
      <point x="612" y="15"/>
      <point x="626" y="15" type="curve" smooth="yes"/>
      <point x="690" y="15"/>
      <point x="755" y="275"/>
      <point x="755" y="375" type="curve" smooth="yes"/>
      <point x="755" y="446"/>
      <point x="718" y="511"/>
      <point x="678" y="511" type="curve" smooth="yes"/>
      <point x="610" y="511"/>
      <point x="531" y="421"/>
      <point x="446" y="247" type="curve"/>
      <point x="457" y="253" type="line"/>
      <point x="470" y="304"/>
      <point x="476" y="355"/>
      <point x="476" y="388" type="curve" smooth="yes"/>
      <point x="476" y="444"/>
      <point x="414" y="511"/>
      <point x="385" y="511" type="curve" smooth="yes"/>
      <point x="302" y="511"/>
      <point x="228" y="366"/>
      <point x="93" y="115" type="curve"/>
      <point x="105" y="126" type="line"/>
      <point x="145" y="245"/>
      <point x="181" y="372"/>
    </contour>
  </outline>
</glyph>
<glyph name="o" format="1">
  <advance width="453"/>
  <unicode hex="006F"/>
  <outline>
    <contour>
      <point x="287" y="483" type="move" name="top"/>
    </contour>
    <contour>
      <point x="276" y="511" type="curve" smooth="yes"/>
      <point x="156" y="511"/>
      <point x="36" y="334"/>
      <point x="36" y="177" type="curve" smooth="yes"/>
      <point x="36" y="87"/>
      <point x="86" y="15"/>
      <point x="155" y="15" type="curve" smooth="yes"/>
      <point x="299" y="15"/>
      <point x="417" y="187"/>
      <point x="417" y="343" type="curve" smooth="yes"/>
      <point x="417" y="428"/>
      <point x="361" y="511"/>
    </contour>
    <contour>
      <point x="333" y="341" type="curve" smooth="yes"/>
      <point x="333" y="251"/>
      <point x="263" y="103"/>
      <point x="160" y="83" type="curve"/>
      <point x="130" y="98"/>
      <point x="122" y="135"/>
      <point x="122" y="173" type="curve" smooth="yes"/>
      <point x="122" y="277"/>
      <point x="193" y="423"/>
      <point x="290" y="450" type="curve"/>
      <point x="319" y="431"/>
      <point x="333" y="383"/>
    </contour>
  </outline>
</glyph>
<glyph name="p" format="1">
  <advance width="478"/>
  <unicode hex="0070"/>
  <outline>
    <contour>
      <point x="112" y="518" type="curve" smooth="yes"/>
      <point x="94" y="518"/>
      <point x="90" y="508"/>
      <point x="90" y="488" type="curve" smooth="yes"/>
      <point x="90" y="303"/>
      <point x="-38" y="-134"/>
      <point x="-38" y="-181" type="curve" smooth="yes"/>
      <point x="-38" y="-204"/>
      <point x="-12" y="-242"/>
      <point x="7" y="-242" type="curve" smooth="yes"/>
      <point x="31" y="-242"/>
      <point x="65" y="-65"/>
      <point x="87" y="26" type="curve" smooth="yes"/>
      <point x="143" y="259"/>
      <point x="181" y="386"/>
      <point x="181" y="433" type="curve" smooth="yes"/>
      <point x="181" y="480"/>
      <point x="131" y="518"/>
    </contour>
    <contour>
      <point x="358" y="514" type="curve" smooth="yes"/>
      <point x="266" y="514"/>
      <point x="156" y="408"/>
      <point x="95" y="248" type="curve"/>
      <point x="127" y="187" type="line"/>
      <point x="185" y="345"/>
      <point x="296" y="428"/>
      <point x="338" y="428" type="curve" smooth="yes"/>
      <point x="367" y="428"/>
      <point x="377" y="388"/>
      <point x="377" y="345" type="curve" smooth="yes"/>
      <point x="377" y="221"/>
      <point x="221" y="95"/>
      <point x="114" y="95" type="curve" smooth="yes"/>
      <point x="88" y="95"/>
      <point x="68" y="101"/>
      <point x="56" y="101" type="curve" smooth="yes"/>
      <point x="45" y="101"/>
      <point x="38" y="94"/>
      <point x="38" y="82" type="curve" smooth="yes"/>
      <point x="38" y="50"/>
      <point x="63" y="17"/>
      <point x="124" y="17" type="curve" smooth="yes"/>
      <point x="263" y="17"/>
      <point x="464" y="197"/>
      <point x="464" y="338" type="curve" smooth="yes"/>
      <point x="464" y="423"/>
      <point x="417" y="514"/>
    </contour>
  </outline>
</glyph>
<glyph name="q" format="1">
  <advance width="474"/>
  <unicode hex="0071"/>
  <outline>
    <contour>
      <point x="313" y="511" type="curve" smooth="yes"/>
      <point x="174" y="511"/>
      <point x="16" y="261"/>
      <point x="16" y="141" type="curve" smooth="yes"/>
      <point x="16" y="85"/>
      <point x="81" y="15"/>
      <point x="134" y="15" type="curve" smooth="yes"/>
      <point x="192" y="15"/>
      <point x="290" y="73"/>
      <point x="336" y="162" type="curve"/>
      <point x="298" y="140" type="line"/>
      <point x="219" y="-77"/>
      <point x="185" y="-158"/>
      <point x="185" y="-183" type="curve" smooth="yes"/>
      <point x="185" y="-207"/>
      <point x="205" y="-245"/>
      <point x="226" y="-245" type="curve" smooth="yes"/>
      <point x="246" y="-245"/>
      <point x="301" y="-194"/>
      <point x="374" y="-151" type="curve" smooth="yes"/>
      <point x="406" y="-132"/>
      <point x="424" y="-119"/>
      <point x="424" y="-105" type="curve" smooth="yes"/>
      <point x="424" y="-92"/>
      <point x="410" y="-78"/>
      <point x="396" y="-78" type="curve" smooth="yes"/>
      <point x="371" y="-78"/>
      <point x="313" y="-102"/>
      <point x="252" y="-149" type="curve"/>
      <point x="267" y="-173" type="line"/>
      <point x="358" y="90"/>
      <point x="431" y="252"/>
      <point x="431" y="291" type="curve" smooth="yes"/>
      <point x="431" y="308"/>
      <point x="392" y="334"/>
      <point x="374" y="334" type="curve" smooth="yes"/>
      <point x="361" y="334"/>
      <point x="355" y="331"/>
      <point x="352" y="319" type="curve" smooth="yes"/>
      <point x="316" y="179"/>
      <point x="195" y="98"/>
      <point x="132" y="98" type="curve" smooth="yes"/>
      <point x="110" y="98"/>
      <point x="94" y="115"/>
      <point x="94" y="136" type="curve" smooth="yes"/>
      <point x="94" y="219"/>
      <point x="234" y="431"/>
      <point x="327" y="431" type="curve" smooth="yes"/>
      <point x="364" y="431"/>
      <point x="385" y="386"/>
      <point x="412" y="386" type="curve" smooth="yes"/>
      <point x="424" y="386"/>
      <point x="429" y="396"/>
      <point x="429" y="407" type="curve" smooth="yes"/>
      <point x="429" y="443"/>
      <point x="373" y="511"/>
    </contour>
  </outline>
</glyph>
<glyph name="r" format="1">
  <advance width="331"/>
  <unicode hex="0072"/>
  <outline>
    <contour>
      <point x="198" y="483" type="move" name="top"/>
    </contour>
    <contour>
      <point x="110" y="511" type="curve" smooth="yes"/>
      <point x="90" y="511"/>
      <point x="88" y="490"/>
      <point x="88" y="464" type="curve" smooth="yes"/>
      <point x="88" y="443"/>
      <point x="91" y="416"/>
      <point x="91" y="389" type="curve" smooth="yes"/>
      <point x="91" y="333"/>
      <point x="85" y="283"/>
      <point x="76" y="238" type="curve" smooth="yes"/>
      <point x="60" y="158"/>
      <point x="33" y="104"/>
      <point x="33" y="75" type="curve" smooth="yes"/>
      <point x="33" y="48"/>
      <point x="46" y="13"/>
      <point x="71" y="13" type="curve" smooth="yes"/>
      <point x="109" y="13"/>
      <point x="119" y="99"/>
      <point x="171" y="238" type="curve" smooth="yes"/>
      <point x="214" y="348"/>
      <point x="258" y="410"/>
      <point x="330" y="441" type="curve" smooth="yes"/>
      <point x="358" y="456"/>
      <point x="376" y="468"/>
      <point x="376" y="486" type="curve" smooth="yes"/>
      <point x="376" y="502"/>
      <point x="355" y="510"/>
      <point x="327" y="510" type="curve" smooth="yes"/>
      <point x="240" y="510"/>
      <point x="167" y="388"/>
      <point x="129" y="324" type="curve"/>
      <point x="142" y="258" type="line"/>
      <point x="162" y="341"/>
      <point x="164" y="387"/>
      <point x="164" y="423" type="curve" smooth="yes"/>
      <point x="164" y="479"/>
      <point x="133" y="511"/>
    </contour>
  </outline>
</glyph>
<glyph name="s" format="1">
  <advance width="426"/>
  <unicode hex="0073"/>
  <outline>
    <contour>
      <point x="247" y="483" type="move" name="top"/>
    </contour>
    <contour>
      <point x="158" y="-17" type="move" name="cedilla"/>
    </contour>
    <contour>
      <point x="317" y="511" type="curve" smooth="yes"/>
      <point x="250" y="511"/>
      <point x="95" y="418"/>
      <point x="95" y="343" type="curve" smooth="yes"/>
      <point x="95" y="254"/>
      <point x="280" y="212"/>
      <point x="280" y="140" type="curve" smooth="yes"/>
      <point x="280" y="114"/>
      <point x="248" y="92"/>
      <point x="177" y="92" type="curve" smooth="yes"/>
      <point x="84" y="92"/>
      <point x="58" y="144"/>
      <point x="29" y="144" type="curve" smooth="yes"/>
      <point x="17" y="144"/>
      <point x="6" y="134"/>
      <point x="6" y="116" type="curve" smooth="yes"/>
      <point x="6" y="79"/>
      <point x="87" y="15"/>
      <point x="186" y="15" type="curve" smooth="yes"/>
      <point x="292" y="15"/>
      <point x="371" y="79"/>
      <point x="371" y="133" type="curve" smooth="yes"/>
      <point x="371" y="240"/>
      <point x="187" y="294"/>
      <point x="187" y="339" type="curve" smooth="yes"/>
      <point x="187" y="385"/>
      <point x="290" y="426"/>
      <point x="319" y="426" type="curve" smooth="yes"/>
      <point x="354" y="426"/>
      <point x="370" y="391"/>
      <point x="395" y="391" type="curve" smooth="yes"/>
      <point x="406" y="391"/>
      <point x="411" y="397"/>
      <point x="411" y="408" type="curve" smooth="yes"/>
      <point x="411" y="440"/>
      <point x="366" y="511"/>
    </contour>
  </outline>
</glyph>
<glyph name="t" format="1">
  <advance width="387"/>
  <unicode hex="0074"/>
  <outline>
    <contour>
      <point x="116" y="-17" type="move" name="cedilla"/>
    </contour>
    <contour>
      <point x="263" y="595" type="curve" smooth="yes"/>
      <point x="263" y="629"/>
      <point x="215" y="661"/>
      <point x="196" y="661" type="curve" smooth="yes"/>
      <point x="180" y="661"/>
      <point x="176" y="650"/>
      <point x="176" y="631" type="curve" smooth="yes"/>
      <point x="176" y="442"/>
      <point x="56" y="182"/>
      <point x="56" y="101" type="curve" smooth="yes"/>
      <point x="56" y="57"/>
      <point x="108" y="15"/>
      <point x="159" y="15" type="curve" smooth="yes"/>
      <point x="240" y="15"/>
      <point x="336" y="84"/>
      <point x="336" y="120" type="curve" smooth="yes"/>
      <point x="336" y="132"/>
      <point x="332" y="139"/>
      <point x="318" y="139" type="curve" smooth="yes"/>
      <point x="295" y="139"/>
      <point x="231" y="96"/>
      <point x="165" y="96" type="curve" smooth="yes"/>
      <point x="151" y="96"/>
      <point x="143" y="101"/>
      <point x="143" y="115" type="curve" smooth="yes"/>
      <point x="143" y="128"/>
      <point x="153" y="169"/>
      <point x="184" y="268" type="curve" smooth="yes"/>
      <point x="225" y="401"/>
      <point x="263" y="548"/>
    </contour>
    <contour>
      <point x="337" y="501" type="curve" smooth="yes"/>
      <point x="238" y="501"/>
      <point x="28" y="470"/>
      <point x="28" y="438" type="curve" smooth="yes"/>
      <point x="28" y="419"/>
      <point x="54" y="390"/>
      <point x="74" y="390" type="curve" smooth="yes"/>
      <point x="97" y="390"/>
      <point x="147" y="404"/>
      <point x="225" y="419" type="curve" smooth="yes"/>
      <point x="352" y="444"/>
      <point x="397" y="453"/>
      <point x="397" y="475" type="curve" smooth="yes"/>
      <point x="397" y="491"/>
      <point x="376" y="501"/>
    </contour>
  </outline>
</glyph>
<glyph name="u" format="1">
  <advance width="481"/>
  <unicode hex="0075"/>
  <outline>
    <contour>
      <point x="288" y="483" type="move" name="top"/>
    </contour>
    <contour>
      <point x="284" y="-17" type="move" name="ogonek"/>
    </contour>
    <contour>
      <point x="209" y="457" type="curve" smooth="yes"/>
      <point x="209" y="485"/>
      <point x="188" y="511"/>
      <point x="164" y="511" type="curve" smooth="yes"/>
      <point x="114" y="511"/>
      <point x="16" y="258"/>
      <point x="16" y="131" type="curve" smooth="yes"/>
      <point x="16" y="78"/>
      <point x="74" y="15"/>
      <point x="129" y="15" type="curve" smooth="yes"/>
      <point x="205" y="15"/>
      <point x="310" y="146"/>
      <point x="358" y="269" type="curve"/>
      <point x="345" y="274" type="line"/>
      <point x="314" y="200"/>
      <point x="286" y="101"/>
      <point x="286" y="57" type="curve" smooth="yes"/>
      <point x="286" y="29"/>
      <point x="301" y="15"/>
      <point x="317" y="15" type="curve" smooth="yes"/>
      <point x="330" y="15"/>
      <point x="343" y="29"/>
      <point x="351" y="57" type="curve" smooth="yes"/>
      <point x="414" y="271"/>
      <point x="463" y="416"/>
      <point x="463" y="435" type="curve" smooth="yes"/>
      <point x="463" y="467"/>
      <point x="430" y="511"/>
      <point x="407" y="511" type="curve" smooth="yes"/>
      <point x="393" y="511"/>
      <point x="390" y="503"/>
      <point x="385" y="483" type="curve" smooth="yes"/>
      <point x="345" y="336"/>
      <point x="215" y="95"/>
      <point x="135" y="95" type="curve" smooth="yes"/>
      <point x="117" y="95"/>
      <point x="101" y="110"/>
      <point x="101" y="132" type="curve" smooth="yes"/>
      <point x="101" y="260"/>
      <point x="209" y="428"/>
    </contour>
  </outline>
</glyph>
<glyph name="v" format="1">
  <advance width="422"/>
  <unicode hex="0076"/>
  <outline>
    <contour>
      <point x="222" y="74" type="line"/>
      <point x="153" y="187"/>
      <point x="155" y="374"/>
      <point x="142" y="446" type="curve" smooth="yes"/>
      <point x="130" y="485"/>
      <point x="92" y="511"/>
      <point x="65" y="511" type="curve" smooth="yes"/>
      <point x="54" y="511"/>
      <point x="47" y="503"/>
      <point x="47" y="481" type="curve" smooth="yes"/>
      <point x="47" y="392"/>
      <point x="102" y="154"/>
      <point x="136" y="73" type="curve" smooth="yes"/>
      <point x="148" y="44"/>
      <point x="178" y="13"/>
      <point x="196" y="13" type="curve" smooth="yes"/>
      <point x="228" y="13"/>
      <point x="262" y="85"/>
      <point x="359" y="299" type="curve" smooth="yes"/>
      <point x="385" y="356"/>
      <point x="425" y="446"/>
      <point x="425" y="471" type="curve" smooth="yes"/>
      <point x="425" y="492"/>
      <point x="397" y="511"/>
      <point x="376" y="511" type="curve" smooth="yes"/>
      <point x="343" y="511"/>
      <point x="264" y="255"/>
      <point x="185" y="96" type="curve"/>
    </contour>
  </outline>
</glyph>
<glyph name="w" format="1">
  <advance width="673"/>
  <unicode hex="0077"/>
  <outline>
    <contour>
      <point x="626" y="519" type="curve" smooth="yes"/>
      <point x="578" y="519"/>
      <point x="588" y="268"/>
      <point x="433" y="104" type="curve"/>
      <point x="427" y="134"/>
      <point x="426" y="175"/>
      <point x="426" y="217" type="curve" smooth="yes"/>
      <point x="426" y="291"/>
      <point x="433" y="371"/>
      <point x="433" y="405" type="curve" smooth="yes"/>
      <point x="433" y="471"/>
      <point x="401" y="515"/>
      <point x="357" y="515" type="curve" smooth="yes"/>
      <point x="305" y="515"/>
      <point x="261" y="284"/>
      <point x="158" y="108" type="curve"/>
      <point x="131" y="260"/>
      <point x="145" y="368"/>
      <point x="134" y="441" type="curve" smooth="yes"/>
      <point x="130" y="471"/>
      <point x="104" y="517"/>
      <point x="72" y="517" type="curve" smooth="yes"/>
      <point x="55" y="517"/>
      <point x="47" y="505"/>
      <point x="47" y="476" type="curve" smooth="yes"/>
      <point x="47" y="423"/>
      <point x="66" y="141"/>
      <point x="100" y="60" type="curve" smooth="yes"/>
      <point x="112" y="31"/>
      <point x="136" y="13"/>
      <point x="154" y="13" type="curve" smooth="yes"/>
      <point x="193" y="13"/>
      <point x="265" y="133"/>
      <point x="360" y="393" type="curve"/>
      <point x="357" y="340"/>
      <point x="356" y="282"/>
      <point x="357" y="228" type="curve" smooth="yes"/>
      <point x="358" y="147"/>
      <point x="364" y="79"/>
      <point x="375" y="54" type="curve" smooth="yes"/>
      <point x="388" y="26"/>
      <point x="409" y="13"/>
      <point x="427" y="13" type="curve" smooth="yes"/>
      <point x="476" y="13"/>
      <point x="577" y="156"/>
      <point x="629" y="300" type="curve" smooth="yes"/>
      <point x="655" y="366"/>
      <point x="675" y="431"/>
      <point x="675" y="468" type="curve" smooth="yes"/>
      <point x="675" y="495"/>
      <point x="651" y="519"/>
    </contour>
  </outline>
</glyph>
<glyph name="x" format="1">
  <advance width="427"/>
  <unicode hex="0078"/>
  <outline>
    <contour>
      <point x="148" y="470" type="curve" smooth="yes"/>
      <point x="148" y="494"/>
      <point x="94" y="511"/>
      <point x="63" y="511" type="curve" smooth="yes"/>
      <point x="48" y="511"/>
      <point x="47" y="504"/>
      <point x="47" y="489" type="curve" smooth="yes"/>
      <point x="47" y="433"/>
      <point x="266" y="15"/>
      <point x="343" y="15" type="curve" smooth="yes"/>
      <point x="356" y="15"/>
      <point x="367" y="24"/>
      <point x="367" y="38" type="curve" smooth="yes"/>
      <point x="367" y="56"/>
      <point x="330" y="105"/>
      <point x="287" y="176" type="curve" smooth="yes"/>
      <point x="224" y="278"/>
      <point x="148" y="413"/>
    </contour>
    <contour>
      <point x="442" y="464" type="curve" smooth="yes"/>
      <point x="442" y="484"/>
      <point x="409" y="511"/>
      <point x="390" y="511" type="curve" smooth="yes"/>
      <point x="355" y="511"/>
      <point x="297" y="437"/>
      <point x="186" y="285" type="curve" smooth="yes"/>
      <point x="88" y="151"/>
      <point x="-10" y="76"/>
      <point x="-10" y="62" type="curve" smooth="yes"/>
      <point x="-10" y="45"/>
      <point x="17" y="15"/>
      <point x="40" y="15" type="curve" smooth="yes"/>
      <point x="71" y="15"/>
      <point x="167" y="137"/>
      <point x="246" y="232" type="curve" smooth="yes"/>
      <point x="302" y="300"/>
      <point x="347" y="362"/>
      <point x="387" y="404" type="curve" smooth="yes"/>
      <point x="415" y="434"/>
      <point x="442" y="446"/>
    </contour>
  </outline>
</glyph>
<glyph name="z" format="1">
  <advance width="440"/>
  <unicode hex="007A"/>
  <outline>
    <contour>
      <point x="229" y="483" type="move" name="top"/>
    </contour>
    <contour>
      <point x="219" y="511" type="curve" smooth="yes"/>
      <point x="117" y="511"/>
      <point x="54" y="496"/>
      <point x="54" y="471" type="curve" smooth="yes"/>
      <point x="54" y="452"/>
      <point x="85" y="414"/>
      <point x="106" y="414" type="curve" smooth="yes"/>
      <point x="144" y="414"/>
      <point x="175" y="425"/>
      <point x="223" y="425" type="curve" smooth="yes"/>
      <point x="290" y="425"/>
      <point x="325" y="421"/>
      <point x="325" y="406" type="curve" smooth="yes"/>
      <point x="325" y="356"/>
      <point x="3" y="184"/>
      <point x="3" y="108" type="curve" smooth="yes"/>
      <point x="3" y="75"/>
      <point x="56" y="15"/>
      <point x="118" y="15" type="curve" smooth="yes"/>
      <point x="225" y="15"/>
      <point x="411" y="45"/>
      <point x="411" y="91" type="curve" smooth="yes"/>
      <point x="411" y="109"/>
      <point x="395" y="114"/>
      <point x="372" y="114" type="curve" smooth="yes"/>
      <point x="326" y="114"/>
      <point x="233" y="98"/>
      <point x="133" y="98" type="curve" smooth="yes"/>
      <point x="114" y="98"/>
      <point x="107" y="105"/>
      <point x="107" y="115" type="curve" smooth="yes"/>
      <point x="107" y="154"/>
      <point x="403" y="298"/>
      <point x="403" y="409" type="curve" smooth="yes"/>
      <point x="403" y="432"/>
      <point x="374" y="478"/>
      <point x="344" y="491" type="curve" smooth="yes"/>
      <point x="322" y="500"/>
      <point x="277" y="511"/>
    </contour>
  </outline>
</glyph>
<glyph name="braceleft" format="1">
  <advance width="421"/>
  <unicode hex="007B"/>
  <outline>
    <contour>
      <point x="300" y="441" type="curve" smooth="yes"/>
      <point x="300" y="500"/>
      <point x="256" y="546"/>
      <point x="255" y="658" type="curve" smooth="yes"/>
      <point x="255" y="741"/>
      <point x="313" y="780"/>
      <point x="368" y="780" type="curve" smooth="yes"/>
      <point x="426" y="780"/>
      <point x="433" y="748"/>
      <point x="433" y="701" type="curve" smooth="yes"/>
      <point x="433" y="675"/>
      <point x="434" y="659"/>
      <point x="447" y="659" type="curve" smooth="yes"/>
      <point x="468" y="659"/>
      <point x="494" y="703"/>
      <point x="494" y="735" type="curve" smooth="yes"/>
      <point x="494" y="803"/>
      <point x="439" y="862"/>
      <point x="358" y="862" type="curve" smooth="yes"/>
      <point x="261" y="862"/>
      <point x="174" y="792"/>
      <point x="174" y="686" type="curve" smooth="yes"/>
      <point x="174" y="578"/>
      <point x="221" y="514"/>
      <point x="221" y="462" type="curve" smooth="yes"/>
      <point x="221" y="429"/>
      <point x="199" y="408"/>
      <point x="163" y="408" type="curve" smooth="yes"/>
      <point x="131" y="408"/>
      <point x="97" y="444"/>
      <point x="78" y="444" type="curve" smooth="yes"/>
      <point x="70" y="444"/>
      <point x="65" y="430"/>
      <point x="65" y="421" type="curve" smooth="yes"/>
      <point x="65" y="377"/>
      <point x="130" y="338"/>
      <point x="183" y="338" type="curve" smooth="yes"/>
      <point x="257" y="338"/>
      <point x="300" y="391"/>
    </contour>
    <contour>
      <point x="304" y="-44" type="curve" smooth="yes"/>
      <point x="304" y="-23"/>
      <point x="288" y="-17"/>
      <point x="246" y="-17" type="curve" smooth="yes"/>
      <point x="167" y="-17"/>
      <point x="129" y="9"/>
      <point x="129" y="72" type="curve" smooth="yes"/>
      <point x="129" y="178"/>
      <point x="183" y="229"/>
      <point x="183" y="301" type="curve" smooth="yes"/>
      <point x="183" y="376"/>
      <point x="133" y="408"/>
      <point x="93" y="429" type="curve"/>
      <point x="86" y="383" type="line"/>
      <point x="93" y="370"/>
      <point x="108" y="352"/>
      <point x="108" y="335" type="curve" smooth="yes"/>
      <point x="108" y="235"/>
      <point x="41" y="184"/>
      <point x="41" y="72" type="curve" smooth="yes"/>
      <point x="41" y="-16"/>
      <point x="113" y="-95"/>
      <point x="210" y="-95" type="curve" smooth="yes"/>
      <point x="258" y="-95"/>
      <point x="304" y="-71"/>
    </contour>
  </outline>
</glyph>
<glyph name="bar" format="1">
  <advance width="368"/>
  <unicode hex="007C"/>
  <outline>
    <contour>
      <point x="67" y="-74" type="curve" smooth="yes"/>
      <point x="67" y="-96"/>
      <point x="103" y="-135"/>
      <point x="122" y="-135" type="curve" smooth="yes"/>
      <point x="142" y="-135"/>
      <point x="217" y="241"/>
      <point x="246" y="363" type="curve" smooth="yes"/>
      <point x="283" y="519"/>
      <point x="327" y="708"/>
      <point x="327" y="741" type="curve" smooth="yes"/>
      <point x="327" y="781"/>
      <point x="282" y="828"/>
      <point x="262" y="828" type="curve" smooth="yes"/>
      <point x="244" y="828"/>
      <point x="240" y="819"/>
      <point x="240" y="798" type="curve" smooth="yes"/>
      <point x="240" y="698"/>
      <point x="67" y="-20"/>
    </contour>
  </outline>
</glyph>
<glyph name="braceright" format="1">
  <advance width="538"/>
  <unicode hex="007D"/>
  <outline>
    <contour>
      <point x="518" y="714" type="curve" smooth="yes"/>
      <point x="518" y="784"/>
      <point x="427" y="862"/>
      <point x="346" y="862" type="curve" smooth="yes"/>
      <point x="266" y="862"/>
      <point x="174" y="801"/>
      <point x="174" y="756" type="curve" smooth="yes"/>
      <point x="174" y="741"/>
      <point x="204" y="707"/>
      <point x="220" y="707" type="curve" smooth="yes"/>
      <point x="247" y="707"/>
      <point x="270" y="789"/>
      <point x="338" y="789" type="curve" smooth="yes"/>
      <point x="388" y="789"/>
      <point x="428" y="755"/>
      <point x="428" y="707" type="curve" smooth="yes"/>
      <point x="428" y="608"/>
      <point x="253" y="515"/>
      <point x="253" y="423" type="curve" smooth="yes"/>
      <point x="253" y="355"/>
      <point x="321" y="306"/>
      <point x="383" y="306" type="curve" smooth="yes"/>
      <point x="419" y="306"/>
      <point x="457" y="328"/>
      <point x="457" y="356" type="curve" smooth="yes"/>
      <point x="457" y="367"/>
      <point x="445" y="368"/>
      <point x="424" y="370" type="curve" smooth="yes"/>
      <point x="408" y="372"/>
      <point x="391" y="373"/>
      <point x="376" y="376" type="curve" smooth="yes"/>
      <point x="353" y="383"/>
      <point x="335" y="400"/>
      <point x="335" y="426" type="curve" smooth="yes"/>
      <point x="335" y="495"/>
      <point x="518" y="585"/>
    </contour>
    <contour>
      <point x="77" y="-2" type="curve" smooth="yes"/>
      <point x="77" y="-42"/>
      <point x="141" y="-92"/>
      <point x="218" y="-92" type="curve" smooth="yes"/>
      <point x="425" y="-92"/>
      <point x="301" y="264"/>
      <point x="427" y="317" type="curve"/>
      <point x="444" y="361" type="line"/>
      <point x="434" y="363"/>
      <point x="424" y="363"/>
      <point x="416" y="363" type="curve" smooth="yes"/>
      <point x="209" y="363"/>
      <point x="336" y="-23"/>
      <point x="208" y="-23" type="curve" smooth="yes"/>
      <point x="123" y="-23"/>
      <point x="132" y="22"/>
      <point x="94" y="22" type="curve" smooth="yes"/>
      <point x="82" y="22"/>
      <point x="77" y="12"/>
    </contour>
  </outline>
</glyph>
<glyph name="asciitilde" format="1">
  <advance width="594"/>
  <unicode hex="007E"/>
  <outline>
    <contour>
      <point x="80" y="273" type="curve"/>
      <point x="80" y="252"/>
      <point x="94" y="241"/>
      <point x="115" y="241" type="curve"/>
      <point x="158" y="241"/>
      <point x="164" y="325"/>
      <point x="248" y="360" type="curve"/>
      <point x="300" y="277"/>
      <point x="349" y="232"/>
      <point x="402" y="232" type="curve"/>
      <point x="472" y="232"/>
      <point x="537" y="317"/>
      <point x="537" y="377" type="curve"/>
      <point x="537" y="402"/>
      <point x="527" y="412"/>
      <point x="512" y="412" type="curve"/>
      <point x="468" y="412"/>
      <point x="460" y="322"/>
      <point x="399" y="314" type="curve"/>
      <point x="338" y="322"/>
      <point x="320" y="430"/>
      <point x="239" y="430" type="curve"/>
      <point x="168" y="430"/>
      <point x="80" y="336"/>
    </contour>
  </outline>
</glyph>
<glyph name="cent" format="1">
  <advance width="482"/>
  <unicode hex="00A2"/>
  <outline>
    <contour>
      <point x="371" y="613" type="curve" smooth="yes"/>
      <point x="319" y="613"/>
      <point x="179" y="-1"/>
      <point x="177" y="-41" type="curve" smooth="yes"/>
      <point x="177" y="-54"/>
      <point x="193" y="-71"/>
      <point x="205" y="-71" type="curve" smooth="yes"/>
      <point x="236" y="-71"/>
      <point x="316" y="300"/>
      <point x="383" y="516" type="curve" smooth="yes"/>
      <point x="391" y="542"/>
      <point x="398" y="558"/>
      <point x="398" y="573" type="curve" smooth="yes"/>
      <point x="398" y="592"/>
      <point x="389" y="613"/>
    </contour>
    <contour>
      <point x="452" y="410" type="curve" smooth="yes"/>
      <point x="452" y="449"/>
      <point x="394" y="521"/>
      <point x="333" y="521" type="curve" smooth="yes"/>
      <point x="204" y="521"/>
      <point x="48" y="311"/>
      <point x="48" y="175" type="curve" smooth="yes"/>
      <point x="48" y="98"/>
      <point x="140" y="26"/>
      <point x="216" y="26" type="curve" smooth="yes"/>
      <point x="296" y="26"/>
      <point x="422" y="90"/>
      <point x="422" y="128" type="curve" smooth="yes"/>
      <point x="422" y="141"/>
      <point x="415" y="147"/>
      <point x="403" y="147" type="curve" smooth="yes"/>
      <point x="369" y="147"/>
      <point x="337" y="108"/>
      <point x="218" y="108" type="curve" smooth="yes"/>
      <point x="170" y="108"/>
      <point x="137" y="137"/>
      <point x="137" y="177" type="curve" smooth="yes"/>
      <point x="137" y="270"/>
      <point x="254" y="439"/>
      <point x="336" y="439" type="curve" smooth="yes"/>
      <point x="373" y="439"/>
      <point x="408" y="391"/>
      <point x="436" y="391" type="curve" smooth="yes"/>
      <point x="446" y="391"/>
      <point x="452" y="398"/>
    </contour>
  </outline>
</glyph>
<glyph name="sterling" format="1">
  <advance width="657"/>
  <unicode hex="00A3"/>
  <outline>
    <contour>
      <point x="647" y="562" type="curve" smooth="yes"/>
      <point x="647" y="624"/>
      <point x="603" y="684"/>
      <point x="539" y="684" type="curve" smooth="yes"/>
      <point x="439" y="684"/>
      <point x="378" y="612"/>
      <point x="306" y="351" type="curve" smooth="yes"/>
      <point x="243" y="133"/>
      <point x="203" y="86"/>
      <point x="181" y="86" type="curve" smooth="yes"/>
      <point x="158" y="86"/>
      <point x="126" y="127"/>
      <point x="126" y="148" type="curve" smooth="yes"/>
      <point x="126" y="170"/>
      <point x="140" y="183"/>
      <point x="164" y="183" type="curve" smooth="yes"/>
      <point x="226" y="183"/>
      <point x="300" y="8"/>
      <point x="441" y="8" type="curve" smooth="yes"/>
      <point x="511" y="8"/>
      <point x="621" y="82"/>
      <point x="621" y="128" type="curve" smooth="yes"/>
      <point x="621" y="153"/>
      <point x="606" y="173"/>
      <point x="581" y="173" type="curve" smooth="yes"/>
      <point x="545" y="173"/>
      <point x="512" y="86"/>
      <point x="429" y="86" type="curve" smooth="yes"/>
      <point x="334" y="86"/>
      <point x="281" y="256"/>
      <point x="153" y="256" type="curve" smooth="yes"/>
      <point x="92" y="256"/>
      <point x="46" y="209"/>
      <point x="46" y="157" type="curve" smooth="yes"/>
      <point x="46" y="89"/>
      <point x="131" y="15"/>
      <point x="176" y="15" type="curve" smooth="yes"/>
      <point x="266" y="15"/>
      <point x="316" y="89"/>
      <point x="387" y="308" type="curve" smooth="yes"/>
      <point x="460" y="553"/>
      <point x="494" y="594"/>
      <point x="533" y="594" type="curve" smooth="yes"/>
      <point x="560" y="594"/>
      <point x="574" y="577"/>
      <point x="574" y="549" type="curve" smooth="yes"/>
      <point x="574" y="532"/>
      <point x="569" y="524"/>
      <point x="569" y="510" type="curve" smooth="yes"/>
      <point x="569" y="500"/>
      <point x="574" y="493"/>
      <point x="584" y="493" type="curve" smooth="yes"/>
      <point x="602" y="493"/>
      <point x="647" y="530"/>
    </contour>
    <contour>
      <point x="303" y="324" type="curve" smooth="yes"/>
      <point x="380" y="324"/>
      <point x="573" y="334"/>
      <point x="573" y="379" type="curve" smooth="yes"/>
      <point x="573" y="397"/>
      <point x="547" y="399"/>
      <point x="423" y="399" type="curve" smooth="yes"/>
      <point x="322" y="399"/>
      <point x="292" y="407"/>
      <point x="229" y="407" type="curve" smooth="yes"/>
      <point x="214" y="407"/>
      <point x="191" y="375"/>
      <point x="191" y="350" type="curve" smooth="yes"/>
      <point x="191" y="331"/>
      <point x="240" y="324"/>
    </contour>
  </outline>
</glyph>
<glyph name="currency" format="1">
  <advance width="600"/>
  <unicode hex="00A4"/>
  <outline>
    <contour>
      <point x="296" y="122" type="curve" smooth="yes"/>
      <point x="404" y="122"/>
      <point x="484" y="225"/>
      <point x="484" y="327" type="curve" smooth="yes"/>
      <point x="484" y="418"/>
      <point x="417" y="485"/>
      <point x="327" y="485" type="curve" smooth="yes"/>
      <point x="218" y="485"/>
      <point x="138" y="383"/>
      <point x="138" y="286" type="curve" smooth="yes"/>
      <point x="138" y="189"/>
      <point x="208" y="122"/>
    </contour>
    <contour>
      <point x="324" y="422" type="curve" smooth="yes"/>
      <point x="376" y="422"/>
      <point x="412" y="374"/>
      <point x="413" y="319" type="curve" smooth="yes"/>
      <point x="413" y="261"/>
      <point x="369" y="187"/>
      <point x="302" y="187" type="curve" smooth="yes"/>
      <point x="253" y="187"/>
      <point x="213" y="229"/>
      <point x="213" y="287" type="curve" smooth="yes"/>
      <point x="213" y="350"/>
      <point x="258" y="422"/>
    </contour>
    <contour>
      <point x="408" y="199" type="curve"/>
      <point x="350" y="154" type="line"/>
      <point x="388" y="101"/>
      <point x="425" y="66"/>
      <point x="447" y="66" type="curve" smooth="yes"/>
      <point x="460" y="66"/>
      <point x="471" y="75"/>
      <point x="471" y="88" type="curve" smooth="yes"/>
      <point x="471" y="103"/>
      <point x="443" y="143"/>
    </contour>
    <contour>
      <point x="231" y="504" type="curve" smooth="yes"/>
      <point x="222" y="529"/>
      <point x="174" y="541"/>
      <point x="143" y="541" type="curve" smooth="yes"/>
      <point x="129" y="541"/>
      <point x="128" y="533"/>
      <point x="128" y="520" type="curve" smooth="yes"/>
      <point x="128" y="503"/>
      <point x="167" y="455"/>
      <point x="197" y="394" type="curve"/>
      <point x="261" y="442" type="line"/>
      <point x="247" y="466"/>
      <point x="235" y="490"/>
    </contour>
    <contour>
      <point x="85" y="111" type="curve" smooth="yes"/>
      <point x="85" y="94"/>
      <point x="111" y="66"/>
      <point x="134" y="66" type="curve" smooth="yes"/>
      <point x="153" y="66"/>
      <point x="196" y="111"/>
      <point x="244" y="167" type="curve"/>
      <point x="189" y="223" type="line"/>
      <point x="130" y="158"/>
      <point x="85" y="121"/>
    </contour>
    <contour>
      <point x="538" y="494" type="curve" smooth="yes"/>
      <point x="538" y="513"/>
      <point x="506" y="541"/>
      <point x="487" y="541" type="curve" smooth="yes"/>
      <point x="467" y="541"/>
      <point x="426" y="507"/>
      <point x="383" y="452" type="curve"/>
      <point x="440" y="388" type="line"/>
      <point x="491" y="441"/>
      <point x="538" y="476"/>
    </contour>
  </outline>
</glyph>
<glyph name="yen" format="1">
  <advance width="563"/>
  <unicode hex="00A5"/>
  <outline>
    <contour>
      <point x="498" y="344" type="curve" smooth="yes"/>
      <point x="498" y="358"/>
      <point x="482" y="366"/>
      <point x="449" y="370" type="curve" smooth="yes"/>
      <point x="422" y="373"/>
      <point x="402" y="374"/>
      <point x="366" y="374" type="curve" smooth="yes"/>
      <point x="256" y="374"/>
      <point x="55" y="363"/>
      <point x="55" y="333" type="curve" smooth="yes"/>
      <point x="55" y="312"/>
      <point x="76" y="283"/>
      <point x="90" y="283" type="curve" smooth="yes"/>
      <point x="143" y="283"/>
      <point x="211" y="292"/>
      <point x="284" y="298" type="curve" smooth="yes"/>
      <point x="397" y="306"/>
      <point x="498" y="318"/>
    </contour>
    <contour>
      <point x="489" y="225" type="curve" smooth="yes"/>
      <point x="489" y="243"/>
      <point x="448" y="247"/>
      <point x="401" y="247" type="curve" smooth="yes"/>
      <point x="296" y="247"/>
      <point x="29" y="228"/>
      <point x="29" y="198" type="curve" smooth="yes"/>
      <point x="29" y="183"/>
      <point x="47" y="148"/>
      <point x="65" y="148" type="curve" smooth="yes"/>
      <point x="133" y="148"/>
      <point x="186" y="155"/>
      <point x="249" y="162" type="curve" smooth="yes"/>
      <point x="399" y="180"/>
      <point x="489" y="198"/>
    </contour>
    <contour>
      <point x="114" y="673" type="curve" smooth="yes"/>
      <point x="102" y="673"/>
      <point x="95" y="665"/>
      <point x="95" y="647" type="curve" smooth="yes"/>
      <point x="95" y="581"/>
      <point x="195" y="381"/>
      <point x="224" y="338" type="curve"/>
      <point x="222" y="221"/>
      <point x="181" y="120"/>
      <point x="181" y="69" type="curve" smooth="yes"/>
      <point x="181" y="41"/>
      <point x="223" y="10"/>
      <point x="240" y="10" type="curve" smooth="yes"/>
      <point x="255" y="10"/>
      <point x="259" y="66"/>
      <point x="282" y="164" type="curve" smooth="yes"/>
      <point x="298" y="235"/>
      <point x="309" y="293"/>
      <point x="311" y="324" type="curve"/>
      <point x="371" y="395"/>
      <point x="572" y="605"/>
      <point x="572" y="638" type="curve" smooth="yes"/>
      <point x="572" y="653"/>
      <point x="546" y="673"/>
      <point x="526" y="673" type="curve" smooth="yes"/>
      <point x="486" y="673"/>
      <point x="352" y="494"/>
      <point x="279" y="403" type="curve"/>
      <point x="224" y="499"/>
      <point x="211" y="574"/>
      <point x="193" y="613" type="curve" smooth="yes"/>
      <point x="177" y="649"/>
      <point x="143" y="673"/>
    </contour>
  </outline>
</glyph>
<glyph name="brokenbar" format="1">
  <advance width="369"/>
  <unicode hex="00A6"/>
  <outline>
    <contour>
      <point x="120" y="233" type="curve" smooth="yes"/>
      <point x="120" y="132"/>
      <point x="68" y="-20"/>
      <point x="68" y="-74" type="curve" smooth="yes"/>
      <point x="68" y="-96"/>
      <point x="104" y="-135"/>
      <point x="123" y="-135" type="curve" smooth="yes"/>
      <point x="148" y="-135"/>
      <point x="207" y="137"/>
      <point x="207" y="175" type="curve" smooth="yes"/>
      <point x="207" y="216"/>
      <point x="162" y="263"/>
      <point x="142" y="263" type="curve" smooth="yes"/>
      <point x="124" y="263"/>
      <point x="120" y="253"/>
    </contour>
    <contour>
      <point x="241" y="798" type="curve" smooth="yes"/>
      <point x="241" y="698"/>
      <point x="188" y="546"/>
      <point x="188" y="491" type="curve" smooth="yes"/>
      <point x="188" y="469"/>
      <point x="224" y="430"/>
      <point x="243" y="430" type="curve" smooth="yes"/>
      <point x="269" y="430"/>
      <point x="328" y="702"/>
      <point x="328" y="741" type="curve" smooth="yes"/>
      <point x="328" y="781"/>
      <point x="283" y="828"/>
      <point x="262" y="828" type="curve" smooth="yes"/>
      <point x="245" y="828"/>
      <point x="241" y="819"/>
    </contour>
  </outline>
</glyph>
<glyph name="section" format="1">
  <advance width="464"/>
  <unicode hex="00A7"/>
  <outline>
    <contour>
      <point x="302" y="454" type="curve"/>
      <point x="255" y="508" type="line"/>
      <point x="180" y="488"/>
      <point x="53" y="401"/>
      <point x="53" y="306" type="curve" smooth="yes"/>
      <point x="53" y="189"/>
      <point x="227" y="127"/>
      <point x="227" y="44" type="curve" smooth="yes"/>
      <point x="227" y="-5"/>
      <point x="198" y="-29"/>
      <point x="146" y="-29" type="curve" smooth="yes"/>
      <point x="114" y="-29"/>
      <point x="91" y="-9"/>
      <point x="75" y="14" type="curve" smooth="yes"/>
      <point x="60" y="36"/>
      <point x="50" y="60"/>
      <point x="35" y="60" type="curve" smooth="yes"/>
      <point x="21" y="60"/>
      <point x="2" y="22"/>
      <point x="2" y="-2" type="curve" smooth="yes"/>
      <point x="2" y="-36"/>
      <point x="67" y="-107"/>
      <point x="149" y="-107" type="curve" smooth="yes"/>
      <point x="258" y="-107"/>
      <point x="317" y="-34"/>
      <point x="317" y="38" type="curve" smooth="yes"/>
      <point x="317" y="168"/>
      <point x="141" y="216"/>
      <point x="141" y="304" type="curve" smooth="yes"/>
      <point x="141" y="387"/>
      <point x="254" y="434"/>
    </contour>
    <contour>
      <point x="447" y="636" type="curve" smooth="yes"/>
      <point x="447" y="701"/>
      <point x="402" y="759"/>
      <point x="351" y="759" type="curve" smooth="yes"/>
      <point x="271" y="759"/>
      <point x="161" y="676"/>
      <point x="161" y="595" type="curve" smooth="yes"/>
      <point x="161" y="490"/>
      <point x="336" y="404"/>
      <point x="336" y="307" type="curve" smooth="yes"/>
      <point x="336" y="252"/>
      <point x="274" y="193"/>
      <point x="205" y="193" type="curve"/>
      <point x="209" y="137" type="line"/>
      <point x="326" y="137"/>
      <point x="424" y="225"/>
      <point x="424" y="301" type="curve" smooth="yes"/>
      <point x="424" y="446"/>
      <point x="247" y="526"/>
      <point x="247" y="598" type="curve" smooth="yes"/>
      <point x="247" y="636"/>
      <point x="294" y="678"/>
      <point x="338" y="678" type="curve" smooth="yes"/>
      <point x="382" y="678"/>
      <point x="378" y="586"/>
      <point x="419" y="586" type="curve" smooth="yes"/>
      <point x="435" y="586"/>
      <point x="447" y="603"/>
    </contour>
  </outline>
</glyph>
<glyph name="dieresis" format="1">
  <advance width="0"/>
  <unicode hex="00A8"/>
  <outline>
    <contour>
      <point x="0" y="605" type="move" name="_top"/>
    </contour>
    <contour>
      <point x="6" y="726" type="curve" smooth="yes"/>
      <point x="6" y="753"/>
      <point x="-29" y="826"/>
      <point x="-52" y="826" type="curve" smooth="yes"/>
      <point x="-73" y="826"/>
      <point x="-96" y="796"/>
      <point x="-96" y="774" type="curve" smooth="yes"/>
      <point x="-96" y="747"/>
      <point x="-51" y="700"/>
      <point x="-20" y="700" type="curve" smooth="yes"/>
      <point x="-8" y="700"/>
      <point x="6" y="715"/>
    </contour>
    <contour>
      <point x="157" y="726" type="curve" smooth="yes"/>
      <point x="157" y="753"/>
      <point x="122" y="826"/>
      <point x="99" y="826" type="curve" smooth="yes"/>
      <point x="78" y="826"/>
      <point x="54" y="796"/>
      <point x="54" y="774" type="curve" smooth="yes"/>
      <point x="54" y="747"/>
      <point x="100" y="700"/>
      <point x="130" y="700" type="curve" smooth="yes"/>
      <point x="143" y="700"/>
      <point x="157" y="715"/>
    </contour>
  </outline>
</glyph>
<glyph name="copyright" format="1">
  <advance width="708"/>
  <unicode hex="00A9"/>
  <outline>
    <contour>
      <point x="437" y="525" type="move" name="top"/>
    </contour>
    <contour>
      <point x="330" y="168" type="move" name="cedilla"/>
    </contour>
    <contour>
      <point x="327" y="60" type="curve" smooth="yes"/>
      <point x="533" y="60"/>
      <point x="693" y="206"/>
      <point x="693" y="404" type="curve" smooth="yes"/>
      <point x="693" y="549"/>
      <point x="596" y="660"/>
      <point x="436" y="660" type="curve" smooth="yes"/>
      <point x="256" y="660"/>
      <point x="79" y="492"/>
      <point x="79" y="309" type="curve" smooth="yes"/>
      <point x="79" y="170"/>
      <point x="164" y="60"/>
    </contour>
    <contour>
      <point x="622" y="413" type="curve" smooth="yes"/>
      <point x="622" y="220"/>
      <point x="503" y="113"/>
      <point x="316" y="113" type="curve" smooth="yes"/>
      <point x="218" y="113"/>
      <point x="147" y="176"/>
      <point x="147" y="291" type="curve" smooth="yes"/>
      <point x="147" y="491"/>
      <point x="321" y="606"/>
      <point x="458" y="606" type="curve" smooth="yes"/>
      <point x="549" y="606"/>
      <point x="622" y="526"/>
    </contour>
    <contour>
      <point x="452" y="543" type="curve"/>
      <point x="474" y="543"/>
      <point x="501" y="511"/>
      <point x="501" y="491" type="curve"/>
      <point x="501" y="481"/>
      <point x="495" y="477"/>
      <point x="488" y="477" type="curve"/>
      <point x="476" y="477"/>
      <point x="470" y="484"/>
      <point x="454" y="484" type="curve"/>
      <point x="405" y="484"/>
      <point x="298" y="374"/>
      <point x="298" y="285" type="curve"/>
      <point x="298" y="261"/>
      <point x="318" y="244"/>
      <point x="342" y="244" type="curve"/>
      <point x="415" y="244"/>
      <point x="462" y="285"/>
      <point x="481" y="285" type="curve"/>
      <point x="490" y="285"/>
      <point x="495" y="275"/>
      <point x="495" y="268" type="curve"/>
      <point x="495" y="241"/>
      <point x="406" y="184"/>
      <point x="343" y="184" type="curve"/>
      <point x="291" y="184"/>
      <point x="234" y="238"/>
      <point x="234" y="287" type="curve"/>
      <point x="234" y="384"/>
      <point x="351" y="543"/>
    </contour>
  </outline>
</glyph>
<glyph name="ordfeminine" format="1">
  <advance width="474"/>
  <unicode hex="00AA"/>
  <outline>
    <contour>
      <point x="406" y="666" type="curve" smooth="yes"/>
      <point x="406" y="703"/>
      <point x="355" y="771"/>
      <point x="294" y="771" type="curve" smooth="yes"/>
      <point x="174" y="771"/>
      <point x="93" y="589"/>
      <point x="93" y="510" type="curve" smooth="yes"/>
      <point x="93" y="463"/>
      <point x="143" y="409"/>
      <point x="196" y="409" type="curve" smooth="yes"/>
      <point x="263" y="409"/>
      <point x="338" y="483"/>
      <point x="370" y="567" type="curve"/>
      <point x="331" y="592" type="line"/>
      <point x="323" y="558"/>
      <point x="321" y="534"/>
      <point x="321" y="499" type="curve" smooth="yes"/>
      <point x="321" y="452"/>
      <point x="343" y="409"/>
      <point x="364" y="409" type="curve" smooth="yes"/>
      <point x="379" y="409"/>
      <point x="381" y="434"/>
      <point x="381" y="468" type="curve" smooth="yes"/>
      <point x="381" y="567"/>
      <point x="400" y="590"/>
      <point x="400" y="627" type="curve" smooth="yes"/>
      <point x="400" y="648"/>
      <point x="383" y="676"/>
      <point x="371" y="676" type="curve" smooth="yes"/>
      <point x="358" y="676"/>
      <point x="350" y="668"/>
      <point x="347" y="655" type="curve" smooth="yes"/>
      <point x="317" y="545"/>
      <point x="247" y="473"/>
      <point x="200" y="473" type="curve" smooth="yes"/>
      <point x="174" y="473"/>
      <point x="162" y="487"/>
      <point x="162" y="513" type="curve" smooth="yes"/>
      <point x="162" y="574"/>
      <point x="228" y="704"/>
      <point x="296" y="704" type="curve" smooth="yes"/>
      <point x="329" y="704"/>
      <point x="348" y="669"/>
      <point x="348" y="644" type="curve" smooth="yes"/>
      <point x="348" y="607"/>
      <point x="351" y="589"/>
      <point x="366" y="589" type="curve" smooth="yes"/>
      <point x="381" y="589"/>
      <point x="406" y="638"/>
    </contour>
  </outline>
</glyph>
<glyph name="guillemotleft" format="1">
  <advance width="657"/>
  <unicode hex="00AB"/>
  <outline>
    <contour>
      <point x="352" y="497" type="curve" smooth="yes"/>
      <point x="298" y="497"/>
      <point x="127" y="418"/>
      <point x="73" y="374" type="curve" smooth="yes"/>
      <point x="59" y="364"/>
      <point x="38" y="330"/>
      <point x="38" y="310" type="curve" smooth="yes"/>
      <point x="38" y="258"/>
      <point x="279" y="151"/>
      <point x="335" y="151" type="curve" smooth="yes"/>
      <point x="359" y="151"/>
      <point x="370" y="157"/>
      <point x="370" y="172" type="curve" smooth="yes"/>
      <point x="370" y="202"/>
      <point x="121" y="278"/>
      <point x="121" y="318" type="curve" smooth="yes"/>
      <point x="121" y="346"/>
      <point x="266" y="406"/>
      <point x="368" y="438" type="curve" smooth="yes"/>
      <point x="388" y="444"/>
      <point x="403" y="449"/>
      <point x="403" y="464" type="curve" smooth="yes"/>
      <point x="403" y="478"/>
      <point x="378" y="497"/>
    </contour>
    <contour>
      <point x="663" y="474" type="curve" smooth="yes"/>
      <point x="606" y="474"/>
      <point x="420" y="415"/>
      <point x="365" y="375" type="curve" smooth="yes"/>
      <point x="348" y="363"/>
      <point x="326" y="333"/>
      <point x="326" y="316" type="curve" smooth="yes"/>
      <point x="326" y="260"/>
      <point x="556" y="164"/>
      <point x="626" y="164" type="curve" smooth="yes"/>
      <point x="648" y="164"/>
      <point x="658" y="169"/>
      <point x="658" y="183" type="curve" smooth="yes"/>
      <point x="658" y="217"/>
      <point x="411" y="280"/>
      <point x="411" y="315" type="curve" smooth="yes"/>
      <point x="411" y="342"/>
      <point x="533" y="382"/>
      <point x="660" y="408" type="curve" smooth="yes"/>
      <point x="679" y="412"/>
      <point x="715" y="420"/>
      <point x="715" y="437" type="curve" smooth="yes"/>
      <point x="715" y="450"/>
      <point x="690" y="474"/>
    </contour>
  </outline>
</glyph>
<glyph name="logicalnot" format="1">
  <advance width="496"/>
  <unicode hex="00AC"/>
  <outline>
    <contour>
      <point x="26" y="483" type="curve" smooth="yes"/>
      <point x="13" y="483"/>
      <point x="8" y="477"/>
      <point x="8" y="464" type="curve" smooth="yes"/>
      <point x="8" y="439"/>
      <point x="52" y="396"/>
      <point x="107" y="396" type="curve"/>
      <point x="139" y="396"/>
      <point x="376" y="399"/>
      <point x="406" y="399" type="curve"/>
      <point x="436" y="399"/>
      <point x="465" y="393"/>
      <point x="465" y="376" type="curve" smooth="yes"/>
      <point x="465" y="276"/>
      <point x="350" y="124"/>
      <point x="350" y="97" type="curve" smooth="yes"/>
      <point x="350" y="86"/>
      <point x="357" y="79"/>
      <point x="369" y="79" type="curve" smooth="yes"/>
      <point x="427" y="79"/>
      <point x="554" y="291"/>
      <point x="554" y="374" type="curve" smooth="yes"/>
      <point x="554" y="415"/>
      <point x="534" y="459"/>
      <point x="501" y="469" type="curve" smooth="yes"/>
      <point x="466" y="478"/>
      <point x="385" y="479"/>
      <point x="303" y="479" type="curve" smooth="yes"/>
      <point x="207" y="479"/>
      <point x="38" y="483"/>
    </contour>
  </outline>
</glyph>
<glyph name="softhyphen" format="1">
  <advance width="600"/>
  <unicode hex="00AD"/>
  <outline>
    <contour>
      <point x="422" y="328" type="curve" smooth="yes"/>
      <point x="422" y="344"/>
      <point x="401" y="353"/>
      <point x="362" y="353" type="curve" smooth="yes"/>
      <point x="264" y="353"/>
      <point x="53" y="322"/>
      <point x="53" y="290" type="curve" smooth="yes"/>
      <point x="53" y="271"/>
      <point x="80" y="242"/>
      <point x="100" y="242" type="curve" smooth="yes"/>
      <point x="123" y="242"/>
      <point x="172" y="255"/>
      <point x="251" y="271" type="curve" smooth="yes"/>
      <point x="377" y="296"/>
      <point x="422" y="305"/>
    </contour>
  </outline>
</glyph>
<glyph name="registered" format="1">
  <advance width="589"/>
  <unicode hex="00AE"/>
  <outline>
    <contour>
      <point x="329" y="720" type="curve" smooth="yes"/>
      <point x="206" y="720"/>
      <point x="86" y="606"/>
      <point x="86" y="482" type="curve" smooth="yes"/>
      <point x="86" y="387"/>
      <point x="143" y="312"/>
      <point x="255" y="312" type="curve" smooth="yes"/>
      <point x="395" y="312"/>
      <point x="504" y="411"/>
      <point x="504" y="546" type="curve" smooth="yes"/>
      <point x="504" y="645"/>
      <point x="437" y="720"/>
    </contour>
    <contour>
      <point x="134" y="469" type="curve" smooth="yes"/>
      <point x="134" y="605"/>
      <point x="251" y="682"/>
      <point x="344" y="682" type="curve" smooth="yes"/>
      <point x="406" y="682"/>
      <point x="454" y="628"/>
      <point x="454" y="552" type="curve" smooth="yes"/>
      <point x="454" y="421"/>
      <point x="373" y="349"/>
      <point x="248" y="349" type="curve" smooth="yes"/>
      <point x="180" y="349"/>
      <point x="134" y="391"/>
    </contour>
    <contour>
      <point x="295" y="502" type="curve"/>
      <point x="295" y="496"/>
      <point x="315" y="474"/>
      <point x="334" y="459" type="curve"/>
      <point x="352" y="443"/>
      <point x="373" y="429"/>
      <point x="373" y="418" type="curve"/>
      <point x="373" y="413"/>
      <point x="368" y="408"/>
      <point x="359" y="408" type="curve"/>
      <point x="329" y="408"/>
      <point x="255" y="480"/>
      <point x="255" y="507" type="curve" smooth="yes"/>
      <point x="254" y="526"/>
      <point x="341" y="544"/>
      <point x="341" y="582" type="curve"/>
      <point x="341" y="592"/>
      <point x="331" y="596"/>
      <point x="311" y="596" type="curve"/>
      <point x="287" y="596"/>
      <point x="268" y="583"/>
      <point x="257" y="583" type="curve"/>
      <point x="246" y="583"/>
      <point x="235" y="600"/>
      <point x="235" y="606" type="curve"/>
      <point x="235" y="619"/>
      <point x="275" y="632"/>
      <point x="302" y="632" type="curve"/>
      <point x="348" y="632"/>
      <point x="378" y="615"/>
      <point x="378" y="583" type="curve"/>
      <point x="378" y="529"/>
      <point x="295" y="507"/>
    </contour>
    <contour>
      <point x="259" y="613" type="curve"/>
      <point x="268" y="613"/>
      <point x="283" y="596"/>
      <point x="283" y="582" type="curve"/>
      <point x="283" y="568"/>
      <point x="277" y="541"/>
      <point x="262" y="485" type="curve"/>
      <point x="251" y="447"/>
      <point x="241" y="408"/>
      <point x="232" y="408" type="curve"/>
      <point x="225" y="408"/>
      <point x="212" y="422"/>
      <point x="212" y="431" type="curve"/>
      <point x="212" y="453"/>
      <point x="249" y="547"/>
      <point x="249" y="601" type="curve"/>
      <point x="249" y="608"/>
      <point x="251" y="613"/>
    </contour>
  </outline>
</glyph>
<glyph name="macron" format="1">
  <advance width="0"/>
  <unicode hex="00AF"/>
  <outline>
    <contour>
      <point x="0" y="483" type="move" name="_top"/>
    </contour>
    <contour>
      <point x="38" y="594" type="curve" smooth="yes"/>
      <point x="158" y="606"/>
      <point x="194" y="611"/>
      <point x="194" y="631" type="curve" smooth="yes"/>
      <point x="194" y="652"/>
      <point x="141" y="655"/>
      <point x="24" y="655" type="curve" smooth="yes"/>
      <point x="-58" y="655"/>
      <point x="-152" y="651"/>
      <point x="-152" y="627" type="curve" smooth="yes"/>
      <point x="-152" y="609"/>
      <point x="-125" y="578"/>
      <point x="-98" y="578" type="curve" smooth="yes"/>
      <point x="-73" y="578"/>
      <point x="-37" y="585"/>
    </contour>
  </outline>
</glyph>
<glyph name="degree" format="1">
  <advance width="339"/>
  <unicode hex="00B0"/>
  <outline>
    <contour>
      <point x="79" y="530" type="curve" smooth="yes"/>
      <point x="79" y="465"/>
      <point x="121" y="415"/>
      <point x="186" y="415" type="curve" smooth="yes"/>
      <point x="286" y="415"/>
      <point x="366" y="522"/>
      <point x="366" y="610" type="curve" smooth="yes"/>
      <point x="366" y="676"/>
      <point x="325" y="725"/>
      <point x="260" y="725" type="curve" smooth="yes"/>
      <point x="159" y="725"/>
      <point x="79" y="618"/>
    </contour>
    <contour>
      <point x="285" y="595" type="curve" smooth="yes"/>
      <point x="285" y="549"/>
      <point x="252" y="483"/>
      <point x="204" y="483" type="curve" smooth="yes"/>
      <point x="177" y="483"/>
      <point x="159" y="507"/>
      <point x="159" y="540" type="curve" smooth="yes"/>
      <point x="159" y="586"/>
      <point x="193" y="654"/>
      <point x="241" y="654" type="curve" smooth="yes"/>
      <point x="268" y="654"/>
      <point x="285" y="628"/>
    </contour>
  </outline>
</glyph>
<glyph name="plusminus" format="1">
  <advance width="600"/>
  <unicode hex="00B1"/>
  <outline>
    <contour>
      <point x="164" y="385" type="curve" smooth="yes"/>
      <point x="311" y="385"/>
      <point x="604" y="413"/>
      <point x="604" y="462" type="curve"/>
      <point x="604" y="479"/>
      <point x="579" y="487"/>
      <point x="543" y="487" type="curve" smooth="yes"/>
      <point x="475" y="487"/>
      <point x="389" y="469"/>
      <point x="235" y="467" type="curve" smooth="yes"/>
      <point x="187" y="466"/>
      <point x="149" y="467"/>
      <point x="129" y="467" type="curve" smooth="yes"/>
      <point x="113" y="467"/>
      <point x="103" y="461"/>
      <point x="103" y="447" type="curve"/>
      <point x="103" y="424"/>
      <point x="133" y="385"/>
    </contour>
    <contour>
      <point x="383" y="401" type="curve"/>
      <point x="404" y="495"/>
      <point x="417" y="563"/>
      <point x="417" y="587" type="curve" smooth="yes"/>
      <point x="417" y="607"/>
      <point x="368" y="653"/>
      <point x="345" y="653" type="curve" smooth="yes"/>
      <point x="335" y="653"/>
      <point x="326" y="646"/>
      <point x="326" y="627" type="curve" smooth="yes"/>
      <point x="326" y="504"/>
      <point x="278" y="285"/>
      <point x="278" y="255" type="curve" smooth="yes"/>
      <point x="278" y="224"/>
      <point x="306" y="196"/>
      <point x="324" y="196" type="curve" smooth="yes"/>
      <point x="343" y="196"/>
      <point x="357" y="273"/>
    </contour>
    <contour>
      <point x="133" y="60" type="curve" smooth="yes"/>
      <point x="212" y="60"/>
      <point x="561" y="78"/>
      <point x="561" y="133" type="curve" smooth="yes"/>
      <point x="561" y="147"/>
      <point x="534" y="152"/>
      <point x="495" y="152" type="curve" smooth="yes"/>
      <point x="430" y="152"/>
      <point x="249" y="132"/>
      <point x="99" y="132" type="curve" smooth="yes"/>
      <point x="85" y="132"/>
      <point x="79" y="125"/>
      <point x="79" y="115" type="curve" smooth="yes"/>
      <point x="79" y="96"/>
      <point x="105" y="60"/>
    </contour>
  </outline>
</glyph>
<glyph name="twosuperior" format="1">
  <advance width="308"/>
  <unicode hex="00B2"/>
  <outline>
    <contour>
      <point x="216" y="662" type="curve"/>
      <point x="235" y="662"/>
      <point x="246" y="647"/>
      <point x="246" y="625" type="curve"/>
      <point x="246" y="530"/>
      <point x="62" y="439"/>
      <point x="62" y="406" type="curve" smooth="yes"/>
      <point x="62" y="383"/>
      <point x="96" y="358"/>
      <point x="117" y="358" type="curve" smooth="yes"/>
      <point x="157" y="358"/>
      <point x="307" y="385"/>
      <point x="307" y="413" type="curve" smooth="yes"/>
      <point x="307" y="427"/>
      <point x="294" y="431"/>
      <point x="270" y="431" type="curve" smooth="yes"/>
      <point x="248" y="431"/>
      <point x="184" y="420"/>
      <point x="136" y="412" type="curve"/>
      <point x="221" y="466"/>
      <point x="303" y="545"/>
      <point x="303" y="628" type="curve"/>
      <point x="303" y="679"/>
      <point x="270" y="720"/>
      <point x="214" y="720" type="curve"/>
      <point x="159" y="720"/>
      <point x="113" y="676"/>
      <point x="113" y="651" type="curve"/>
      <point x="113" y="639"/>
      <point x="142" y="621"/>
      <point x="152" y="621" type="curve"/>
      <point x="163" y="621"/>
      <point x="179" y="662"/>
    </contour>
  </outline>
</glyph>
<glyph name="threesuperior" format="1">
  <advance width="311"/>
  <unicode hex="00B3"/>
  <outline>
    <contour>
      <point x="313" y="645" type="curve"/>
      <point x="313" y="683"/>
      <point x="280" y="720"/>
      <point x="234" y="720" type="curve"/>
      <point x="192" y="720"/>
      <point x="118" y="692"/>
      <point x="118" y="667" type="curve"/>
      <point x="118" y="656"/>
      <point x="140" y="634"/>
      <point x="151" y="634" type="curve"/>
      <point x="171" y="634"/>
      <point x="202" y="668"/>
      <point x="236" y="668" type="curve"/>
      <point x="254" y="668"/>
      <point x="257" y="659"/>
      <point x="257" y="652" type="curve"/>
      <point x="257" y="598"/>
      <point x="128" y="568"/>
      <point x="128" y="533" type="curve" smooth="yes"/>
      <point x="128" y="523"/>
      <point x="139" y="520"/>
      <point x="152" y="520" type="curve" smooth="yes"/>
      <point x="188" y="520"/>
      <point x="313" y="588"/>
    </contour>
    <contour>
      <point x="109" y="362" type="curve"/>
      <point x="193" y="362"/>
      <point x="308" y="413"/>
      <point x="308" y="478" type="curve" smooth="yes"/>
      <point x="308" y="525"/>
      <point x="236" y="552"/>
      <point x="160" y="552" type="curve" smooth="yes"/>
      <point x="142" y="552"/>
      <point x="128" y="543"/>
      <point x="128" y="533" type="curve" smooth="yes"/>
      <point x="128" y="501"/>
      <point x="243" y="512"/>
      <point x="243" y="478" type="curve" smooth="yes"/>
      <point x="243" y="420"/>
      <point x="55" y="407"/>
      <point x="55" y="382" type="curve" smooth="yes"/>
      <point x="55" y="369"/>
      <point x="72" y="362"/>
    </contour>
  </outline>
</glyph>
<glyph name="acute" format="1">
  <advance width="0"/>
  <unicode hex="00B4"/>
  <outline>
    <contour>
      <point x="0" y="579" type="move" name="_top"/>
    </contour>
    <contour>
      <point x="1" y="687" type="curve" smooth="yes"/>
      <point x="1" y="671"/>
      <point x="13" y="658"/>
      <point x="27" y="658" type="curve" smooth="yes"/>
      <point x="44" y="658"/>
      <point x="60" y="674"/>
      <point x="105" y="706" type="curve" smooth="yes"/>
      <point x="172" y="751"/>
      <point x="199" y="760"/>
      <point x="199" y="791" type="curve" smooth="yes"/>
      <point x="199" y="816"/>
      <point x="179" y="848"/>
      <point x="157" y="848" type="curve" smooth="yes"/>
      <point x="137" y="848"/>
      <point x="111" y="816"/>
      <point x="63" y="771" type="curve" smooth="yes"/>
      <point x="19" y="727"/>
      <point x="1" y="709"/>
    </contour>
  </outline>
</glyph>
<glyph name="mu.math" format="1">
  <advance width="575"/>
  <unicode hex="00B5"/>
  <outline>
    <contour>
      <point x="214" y="15" type="curve" smooth="yes"/>
      <point x="312" y="15"/>
      <point x="414" y="194"/>
      <point x="446" y="269" type="curve"/>
      <point x="432" y="280" type="line"/>
      <point x="402" y="213"/>
      <point x="371" y="97"/>
      <point x="371" y="60" type="curve" smooth="yes"/>
      <point x="371" y="30"/>
      <point x="384" y="15"/>
      <point x="401" y="15" type="curve" smooth="yes"/>
      <point x="415" y="15"/>
      <point x="428" y="25"/>
      <point x="437" y="57" type="curve" smooth="yes"/>
      <point x="474" y="182"/>
      <point x="549" y="417"/>
      <point x="549" y="435" type="curve" smooth="yes"/>
      <point x="549" y="467"/>
      <point x="515" y="511"/>
      <point x="492" y="511" type="curve" smooth="yes"/>
      <point x="480" y="511"/>
      <point x="475" y="503"/>
      <point x="471" y="483" type="curve" smooth="yes"/>
      <point x="446" y="370"/>
      <point x="307" y="95"/>
      <point x="221" y="95" type="curve" smooth="yes"/>
      <point x="202" y="95"/>
      <point x="188" y="110"/>
      <point x="188" y="132" type="curve" smooth="yes"/>
      <point x="188" y="265"/>
      <point x="269" y="426"/>
      <point x="269" y="479" type="curve" smooth="yes"/>
      <point x="269" y="492"/>
      <point x="235" y="511"/>
      <point x="218" y="511" type="curve" smooth="yes"/>
      <point x="188" y="511"/>
      <point x="152" y="332"/>
      <point x="89" y="163" type="curve" smooth="yes"/>
      <point x="15" y="-39"/>
      <point x="-40" y="-149"/>
      <point x="-40" y="-167" type="curve" smooth="yes"/>
      <point x="-40" y="-183"/>
      <point x="-15" y="-200"/>
      <point x="5" y="-200" type="curve" smooth="yes"/>
      <point x="29" y="-200"/>
      <point x="100" y="-23"/>
      <point x="143" y="75" type="curve"/>
      <point x="149" y="41"/>
      <point x="175" y="15"/>
    </contour>
  </outline>
</glyph>
<glyph name="paragraph" format="1">
  <advance width="521"/>
  <unicode hex="00B6"/>
  <outline>
    <contour>
      <point x="70" y="466" type="curve" smooth="yes"/>
      <point x="70" y="422"/>
      <point x="114" y="368"/>
      <point x="164" y="368" type="curve" smooth="yes"/>
      <point x="191" y="368"/>
      <point x="221" y="383"/>
      <point x="249" y="405" type="curve"/>
      <point x="219" y="267"/>
      <point x="161" y="81"/>
      <point x="161" y="58" type="curve" smooth="yes"/>
      <point x="161" y="37"/>
      <point x="189" y="15"/>
      <point x="205" y="15" type="curve" smooth="yes"/>
      <point x="221" y="15"/>
      <point x="254" y="117"/>
      <point x="280" y="214" type="curve" smooth="yes"/>
      <point x="331" y="404"/>
      <point x="369" y="587"/>
      <point x="370" y="697" type="curve" smooth="yes"/>
      <point x="370" y="700"/>
      <point x="370" y="704"/>
      <point x="369" y="708" type="curve"/>
      <point x="409" y="714"/>
      <point x="443" y="721"/>
      <point x="463" y="727" type="curve"/>
      <point x="438" y="415"/>
      <point x="326" y="94"/>
      <point x="326" y="58" type="curve" smooth="yes"/>
      <point x="326" y="37"/>
      <point x="355" y="15"/>
      <point x="370" y="15" type="curve" smooth="yes"/>
      <point x="385" y="15"/>
      <point x="418" y="117"/>
      <point x="445" y="214" type="curve" smooth="yes"/>
      <point x="492" y="391"/>
      <point x="534" y="590"/>
      <point x="535" y="700" type="curve" smooth="yes"/>
      <point x="535" y="736"/>
      <point x="504" y="775"/>
      <point x="487" y="781" type="curve" smooth="yes"/>
      <point x="477" y="785"/>
      <point x="461" y="787"/>
      <point x="442" y="787" type="curve" smooth="yes"/>
      <point x="398" y="787"/>
      <point x="294" y="775"/>
      <point x="246" y="755" type="curve" smooth="yes"/>
      <point x="143" y="710"/>
      <point x="70" y="562"/>
    </contour>
  </outline>
</glyph>
<glyph name="cedilla" format="1">
  <advance width="0"/>
  <unicode hex="00B8"/>
  <outline>
    <contour>
      <point x="0" y="-21" type="move" name="_cedilla"/>
    </contour>
    <contour>
      <point x="-11" y="46" type="curve" smooth="yes"/>
      <point x="-24" y="46"/>
      <point x="-38" y="41"/>
      <point x="-43" y="25" type="curve" smooth="yes"/>
      <point x="-56" y="-14"/>
      <point x="-89" y="-68"/>
      <point x="-89" y="-89" type="curve" smooth="yes"/>
      <point x="-89" y="-110"/>
      <point x="-14" y="-106"/>
      <point x="-1" y="-126" type="curve"/>
      <point x="-45" y="-171"/>
      <point x="-148" y="-156"/>
      <point x="-148" y="-187" type="curve" smooth="yes"/>
      <point x="-148" y="-200"/>
      <point x="-130" y="-211"/>
      <point x="-104" y="-211" type="curve" smooth="yes"/>
      <point x="-28" y="-211"/>
      <point x="83" y="-177"/>
      <point x="84" y="-113" type="curve" smooth="yes"/>
      <point x="84" y="-83"/>
      <point x="28" y="-56"/>
      <point x="-9" y="-56" type="curve" smooth="yes"/>
      <point x="-23" y="-56"/>
      <point x="-39" y="-59"/>
      <point x="-48" y="-64" type="curve"/>
      <point x="-24" y="-75" type="line"/>
      <point x="1" y="-36"/>
      <point x="20" y="6"/>
      <point x="20" y="22" type="curve" smooth="yes"/>
      <point x="20" y="39"/>
      <point x="7" y="46"/>
    </contour>
  </outline>
</glyph>
<glyph name="onesuperior" format="1">
  <advance width="154"/>
  <unicode hex="00B9"/>
  <outline>
    <contour>
      <point x="129" y="724" type="curve" smooth="yes"/>
      <point x="121" y="724"/>
      <point x="116" y="718"/>
      <point x="116" y="705" type="curve" smooth="yes"/>
      <point x="116" y="562"/>
      <point x="78" y="422"/>
      <point x="78" y="392" type="curve" smooth="yes"/>
      <point x="78" y="372"/>
      <point x="98" y="353"/>
      <point x="109" y="353" type="curve" smooth="yes"/>
      <point x="130" y="353"/>
      <point x="142" y="436"/>
      <point x="157" y="520" type="curve" smooth="yes"/>
      <point x="168" y="583"/>
      <point x="179" y="640"/>
      <point x="179" y="681" type="curve" smooth="yes"/>
      <point x="179" y="694"/>
      <point x="144" y="724"/>
    </contour>
  </outline>
</glyph>
<glyph name="ordmasculine" format="1">
  <advance width="452"/>
  <unicode hex="00BA"/>
  <outline>
    <contour>
      <point x="403" y="622" type="curve" smooth="yes"/>
      <point x="403" y="689"/>
      <point x="365" y="771"/>
      <point x="292" y="771" type="curve" smooth="yes"/>
      <point x="185" y="771"/>
      <point x="108" y="658"/>
      <point x="108" y="554" type="curve" smooth="yes"/>
      <point x="108" y="483"/>
      <point x="151" y="411"/>
      <point x="211" y="411" type="curve" smooth="yes"/>
      <point x="330" y="411"/>
      <point x="403" y="531"/>
    </contour>
    <contour>
      <point x="176" y="551" type="curve" smooth="yes"/>
      <point x="176" y="616"/>
      <point x="214" y="692"/>
      <point x="291" y="711" type="curve"/>
      <point x="324" y="695"/>
      <point x="336" y="661"/>
      <point x="336" y="621" type="curve" smooth="yes"/>
      <point x="336" y="545"/>
      <point x="287" y="480"/>
      <point x="214" y="468" type="curve"/>
      <point x="191" y="485"/>
      <point x="176" y="514"/>
    </contour>
  </outline>
</glyph>
<glyph name="guillemotright" format="1">
  <advance width="833"/>
  <unicode hex="00BB"/>
  <outline>
    <contour>
      <point x="174" y="474" type="curve" smooth="yes"/>
      <point x="156" y="474"/>
      <point x="127" y="447"/>
      <point x="127" y="434" type="curve" smooth="yes"/>
      <point x="127" y="422"/>
      <point x="144" y="415"/>
      <point x="166" y="411" type="curve" smooth="yes"/>
      <point x="252" y="395"/>
      <point x="360" y="355"/>
      <point x="360" y="328" type="curve" smooth="yes"/>
      <point x="360" y="293"/>
      <point x="85" y="210"/>
      <point x="85" y="175" type="curve" smooth="yes"/>
      <point x="85" y="165"/>
      <point x="95" y="158"/>
      <point x="113" y="158" type="curve" smooth="yes"/>
      <point x="183" y="158"/>
      <point x="444" y="269"/>
      <point x="444" y="325" type="curve" smooth="yes"/>
      <point x="444" y="393"/>
      <point x="235" y="474"/>
    </contour>
    <contour>
      <point x="457" y="497" type="curve" smooth="yes"/>
      <point x="439" y="497"/>
      <point x="415" y="474"/>
      <point x="415" y="461" type="curve" smooth="yes"/>
      <point x="415" y="449"/>
      <point x="431" y="442"/>
      <point x="453" y="435" type="curve" smooth="yes"/>
      <point x="537" y="411"/>
      <point x="639" y="351"/>
      <point x="639" y="323" type="curve" smooth="yes"/>
      <point x="639" y="289"/>
      <point x="368" y="197"/>
      <point x="368" y="165" type="curve" smooth="yes"/>
      <point x="368" y="155"/>
      <point x="378" y="150"/>
      <point x="399" y="150" type="curve" smooth="yes"/>
      <point x="457" y="150"/>
      <point x="641" y="231"/>
      <point x="698" y="276" type="curve" smooth="yes"/>
      <point x="710" y="287"/>
      <point x="719" y="309"/>
      <point x="719" y="324" type="curve" smooth="yes"/>
      <point x="719" y="390"/>
      <point x="515" y="496"/>
    </contour>
  </outline>
</glyph>
<glyph name="onequarter" format="1">
  <advance width="783"/>
  <unicode hex="00BC"/>
  <outline>
    <contour>
      <point x="101" y="-14" type="curve" smooth="yes"/>
      <point x="122" y="-14"/>
      <point x="176" y="62"/>
      <point x="345" y="308" type="curve" smooth="yes"/>
      <point x="468" y="481"/>
      <point x="613" y="644"/>
      <point x="613" y="693" type="curve" smooth="yes"/>
      <point x="613" y="720"/>
      <point x="589" y="758"/>
      <point x="573" y="758" type="curve" smooth="yes"/>
      <point x="563" y="758"/>
      <point x="560" y="752"/>
      <point x="547" y="734" type="curve" smooth="yes"/>
      <point x="280" y="358"/>
      <point x="69" y="62"/>
      <point x="69" y="27" type="curve" smooth="yes"/>
      <point x="69" y="11"/>
      <point x="90" y="-14"/>
    </contour>
    <contour>
      <point x="219" y="517" type="curve" smooth="yes"/>
      <point x="233" y="591"/>
      <point x="244" y="658"/>
      <point x="244" y="711" type="curve" smooth="yes"/>
      <point x="244" y="727"/>
      <point x="203" y="762"/>
      <point x="183" y="762" type="curve" smooth="yes"/>
      <point x="176" y="762"/>
      <point x="167" y="757"/>
      <point x="167" y="742" type="curve" smooth="yes"/>
      <point x="167" y="552"/>
      <point x="121" y="395"/>
      <point x="119" y="342" type="curve" smooth="yes"/>
      <point x="119" y="319"/>
      <point x="147" y="297"/>
      <point x="161" y="297" type="curve" smooth="yes"/>
      <point x="184" y="296"/>
      <point x="198" y="406"/>
    </contour>
    <contour>
      <point x="498" y="116" type="curve" smooth="yes"/>
      <point x="572" y="116"/>
      <point x="671" y="157"/>
      <point x="671" y="190" type="curve"/>
      <point x="671" y="210"/>
      <point x="661" y="220"/>
      <point x="643" y="220" type="curve"/>
      <point x="613" y="220"/>
      <point x="552" y="180"/>
      <point x="499" y="180" type="curve" smooth="yes"/>
      <point x="478" y="180"/>
      <point x="470" y="188"/>
      <point x="470" y="210" type="curve" smooth="yes"/>
      <point x="470" y="271"/>
      <point x="613" y="415"/>
      <point x="613" y="439" type="curve"/>
      <point x="613" y="456"/>
      <point x="591" y="478"/>
      <point x="575" y="478" type="curve"/>
      <point x="545" y="478"/>
      <point x="399" y="289"/>
      <point x="399" y="207" type="curve" smooth="yes"/>
      <point x="399" y="151"/>
      <point x="439" y="116"/>
    </contour>
    <contour>
      <point x="698" y="273" type="curve"/>
      <point x="698" y="294"/>
      <point x="661" y="326"/>
      <point x="646" y="326" type="curve"/>
      <point x="636" y="326"/>
      <point x="626" y="319"/>
      <point x="626" y="304" type="curve"/>
      <point x="626" y="144"/>
      <point x="567" y="34"/>
      <point x="567" y="-7" type="curve"/>
      <point x="567" y="-25"/>
      <point x="578" y="-45"/>
      <point x="594" y="-45" type="curve"/>
      <point x="633" y="-45"/>
      <point x="698" y="198"/>
    </contour>
  </outline>
</glyph>
<glyph name="onehalf" format="1">
  <advance width="787"/>
  <unicode hex="00BD"/>
  <outline>
    <contour>
      <point x="230" y="711" type="curve" smooth="yes"/>
      <point x="230" y="727"/>
      <point x="189" y="762"/>
      <point x="169" y="762" type="curve" smooth="yes"/>
      <point x="161" y="762"/>
      <point x="153" y="757"/>
      <point x="153" y="742" type="curve" smooth="yes"/>
      <point x="153" y="545"/>
      <point x="105" y="378"/>
      <point x="105" y="342" type="curve" smooth="yes"/>
      <point x="105" y="319"/>
      <point x="132" y="297"/>
      <point x="147" y="297" type="curve" smooth="yes"/>
      <point x="169" y="296"/>
      <point x="184" y="406"/>
      <point x="204" y="517" type="curve" smooth="yes"/>
      <point x="219" y="591"/>
      <point x="229" y="659"/>
    </contour>
    <contour>
      <point x="568" y="370" type="curve"/>
      <point x="592" y="370"/>
      <point x="606" y="351"/>
      <point x="606" y="321" type="curve"/>
      <point x="606" y="197"/>
      <point x="372" y="83"/>
      <point x="372" y="42" type="curve"/>
      <point x="372" y="12"/>
      <point x="413" y="-18"/>
      <point x="440" y="-18" type="curve"/>
      <point x="492" y="-18"/>
      <point x="683" y="16"/>
      <point x="683" y="50" type="curve" smooth="yes"/>
      <point x="683" y="67"/>
      <point x="662" y="70"/>
      <point x="637" y="70" type="curve" smooth="yes"/>
      <point x="601" y="70"/>
      <point x="484" y="49"/>
      <point x="433" y="41" type="curve"/>
      <point x="438" y="36" type="line"/>
      <point x="554" y="102"/>
      <point x="678" y="210"/>
      <point x="678" y="326" type="curve"/>
      <point x="678" y="388"/>
      <point x="636" y="441"/>
      <point x="564" y="441" type="curve"/>
      <point x="501" y="441"/>
      <point x="437" y="387"/>
      <point x="437" y="353" type="curve"/>
      <point x="437" y="338"/>
      <point x="472" y="319"/>
      <point x="484" y="319" type="curve"/>
      <point x="499" y="319"/>
      <point x="523" y="370"/>
    </contour>
    <contour>
      <point x="331" y="308" type="curve" smooth="yes"/>
      <point x="454" y="481"/>
      <point x="599" y="643"/>
      <point x="599" y="693" type="curve" smooth="yes"/>
      <point x="599" y="722"/>
      <point x="573" y="758"/>
      <point x="559" y="758" type="curve" smooth="yes"/>
      <point x="548" y="758"/>
      <point x="545" y="752"/>
      <point x="533" y="734" type="curve" smooth="yes"/>
      <point x="263" y="344"/>
      <point x="55" y="69"/>
      <point x="55" y="27" type="curve" smooth="yes"/>
      <point x="55" y="10"/>
      <point x="77" y="-14"/>
      <point x="87" y="-14" type="curve" smooth="yes"/>
      <point x="107" y="-14"/>
      <point x="161" y="62"/>
    </contour>
  </outline>
</glyph>
<glyph name="threequarters" format="1">
  <advance width="876"/>
  <unicode hex="00BE"/>
  <outline>
    <contour>
      <point x="609" y="116" type="curve" smooth="yes"/>
      <point x="683" y="116"/>
      <point x="781" y="157"/>
      <point x="781" y="190" type="curve"/>
      <point x="781" y="210"/>
      <point x="772" y="220"/>
      <point x="755" y="220" type="curve"/>
      <point x="724" y="220"/>
      <point x="663" y="180"/>
      <point x="610" y="180" type="curve" smooth="yes"/>
      <point x="589" y="180"/>
      <point x="581" y="188"/>
      <point x="581" y="210" type="curve" smooth="yes"/>
      <point x="581" y="271"/>
      <point x="724" y="415"/>
      <point x="724" y="439" type="curve"/>
      <point x="724" y="456"/>
      <point x="702" y="478"/>
      <point x="686" y="478" type="curve"/>
      <point x="656" y="478"/>
      <point x="509" y="289"/>
      <point x="509" y="207" type="curve" smooth="yes"/>
      <point x="509" y="151"/>
      <point x="551" y="116"/>
    </contour>
    <contour>
      <point x="807" y="273" type="curve"/>
      <point x="807" y="294"/>
      <point x="772" y="326"/>
      <point x="757" y="326" type="curve"/>
      <point x="747" y="326"/>
      <point x="737" y="319"/>
      <point x="737" y="304" type="curve"/>
      <point x="737" y="144"/>
      <point x="677" y="34"/>
      <point x="677" y="-7" type="curve"/>
      <point x="677" y="-25"/>
      <point x="687" y="-45"/>
      <point x="703" y="-45" type="curve"/>
      <point x="740" y="-45"/>
      <point x="807" y="198"/>
    </contour>
    <contour>
      <point x="413" y="698" type="curve" smooth="yes"/>
      <point x="413" y="744"/>
      <point x="371" y="792"/>
      <point x="314" y="792" type="curve"/>
      <point x="259" y="792"/>
      <point x="167" y="755"/>
      <point x="167" y="725" type="curve"/>
      <point x="167" y="712"/>
      <point x="193" y="686"/>
      <point x="208" y="686" type="curve"/>
      <point x="229" y="686"/>
      <point x="272" y="729"/>
      <point x="317" y="729" type="curve"/>
      <point x="341" y="729"/>
      <point x="344" y="715"/>
      <point x="344" y="706" type="curve"/>
      <point x="344" y="637"/>
      <point x="179" y="592"/>
      <point x="179" y="554" type="curve"/>
      <point x="179" y="544"/>
      <point x="192" y="539"/>
      <point x="206" y="539" type="curve" smooth="yes"/>
      <point x="269" y="539"/>
      <point x="413" y="635"/>
    </contour>
    <contour>
      <point x="86" y="362" type="curve"/>
      <point x="86" y="346"/>
      <point x="107" y="337"/>
      <point x="154" y="337" type="curve"/>
      <point x="261" y="337"/>
      <point x="407" y="403"/>
      <point x="407" y="483" type="curve"/>
      <point x="407" y="542"/>
      <point x="322" y="575"/>
      <point x="219" y="575" type="curve"/>
      <point x="199" y="575"/>
      <point x="179" y="570"/>
      <point x="179" y="551" type="curve"/>
      <point x="179" y="513"/>
      <point x="328" y="531"/>
      <point x="328" y="485" type="curve"/>
      <point x="328" y="402"/>
      <point x="86" y="389"/>
    </contour>
    <contour>
      <point x="212" y="-14" type="curve" smooth="yes"/>
      <point x="232" y="-14"/>
      <point x="286" y="62"/>
      <point x="456" y="308" type="curve" smooth="yes"/>
      <point x="580" y="481"/>
      <point x="724" y="643"/>
      <point x="724" y="693" type="curve" smooth="yes"/>
      <point x="724" y="722"/>
      <point x="698" y="758"/>
      <point x="684" y="758" type="curve" smooth="yes"/>
      <point x="673" y="758"/>
      <point x="671" y="752"/>
      <point x="658" y="734" type="curve" smooth="yes"/>
      <point x="388" y="344"/>
      <point x="180" y="69"/>
      <point x="180" y="27" type="curve" smooth="yes"/>
      <point x="180" y="10"/>
      <point x="202" y="-14"/>
    </contour>
  </outline>
</glyph>
